<?xml version="1.0"?>
<svg xmlns="http://www.w3.org/2000/svg" width="550" height="400" version="1.0" id="ezcGraph"><defs><linearGradient id="Definition_LinearGradient_156_203_403_203_ffffffbf_0000007f"><stop offset="0" style="stop-color: #ffffff; stop-opacity: 0.25;"/><stop offset="1" style="stop-color: #000000; stop-opacity: 0.50;"/></linearGradient><linearGradient xmlns:xlink="http://www.w3.org/1999/xlink" id="LinearGradient_156_203_403_203_ffffffbf_0000007f" x1="156.0433" y1="203.4013" x2="403.5433" y2="203.4013" gradientUnits="userSpaceOnUse" xlink:href="#Definition_LinearGradient_156_203_403_203_ffffffbf_0000007f"/><linearGradient id="Definition_LinearGradient_151_215_398_215_ffffffbf_0000007f"><stop offset="0" style="stop-color: #ffffff; stop-opacity: 0.25;"/><stop offset="1" style="stop-color: #000000; stop-opacity: 0.50;"/></linearGradient><linearGradient xmlns:xlink="http://www.w3.org/1999/xlink" id="LinearGradient_151_215_398_215_ffffffbf_0000007f" x1="151.2500" y1="215.0000" x2="398.7500" y2="215.0000" gradientUnits="userSpaceOnUse" xlink:href="#Definition_LinearGradient_151_215_398_215_ffffffbf_0000007f"/><linearGradient id="Definition_LinearGradient_275_215_151_108_ffffffff_ffffff4c"><stop offset="0" style="stop-color: #ffffff; stop-opacity: 0.00;"/><stop offset="1" style="stop-color: #ffffff; stop-opacity: 0.70;"/></linearGradient><linearGradient xmlns:xlink="http://www.w3.org/1999/xlink" id="LinearGradient_275_215_151_108_ffffffff_ffffff4c" x1="275.0000" y1="215.0000" x2="151.2500" y2="108.6250" gradientUnits="userSpaceOnUse" xlink:href="#Definition_LinearGradient_275_215_151_108_ffffffff_ffffff4c"/><linearGradient id="Definition_RadialGradient_187_290_247_212_0.00_ffffff4c_ffffffcc"><stop offset="0" style="stop-color: #ffffff; stop-opacity: 0.70;"/><stop offset="1" style="stop-color: #ffffff; stop-opacity: 0.20;"/></linearGradient><radialGradient xmlns:xlink="http://www.w3.org/1999/xlink" id="RadialGradient_187_290_247_212_0.00_ffffff4c_ffffffcc" cx="187.4955" cy="290.2185" fx="187.4955" fy="290.2185" r="247.5" gradientUnits="userSpaceOnUse" xlink:href="#Definition_RadialGradient_187_290_247_212_0.00_ffffff4c_ffffffcc"/><linearGradient id="Definition_LinearGradient_279_203_156_97_ffffffff_ffffff4c"><stop offset="0" style="stop-color: #ffffff; stop-opacity: 0.00;"/><stop offset="1" style="stop-color: #ffffff; stop-opacity: 0.70;"/></linearGradient><linearGradient xmlns:xlink="http://www.w3.org/1999/xlink" id="LinearGradient_279_203_156_97_ffffffff_ffffff4c" x1="279.7933" y1="203.4013" x2="156.0433" y2="97.0263" gradientUnits="userSpaceOnUse" xlink:href="#Definition_LinearGradient_279_203_156_97_ffffffff_ffffff4c"/><linearGradient id="Definition_RadialGradient_192_278_247_212_0.00_ffffff4c_ffffffcc"><stop offset="0" style="stop-color: #ffffff; stop-opacity: 0.70;"/><stop offset="1" style="stop-color: #ffffff; stop-opacity: 0.20;"/></linearGradient><radialGradient xmlns:xlink="http://www.w3.org/1999/xlink" id="RadialGradient_192_278_247_212_0.00_ffffff4c_ffffffcc" cx="192.2889" cy="278.6198" fx="192.2889" fy="278.6198" r="247.5" gradientUnits="userSpaceOnUse" xlink:href="#Definition_RadialGradient_192_278_247_212_0.00_ffffff4c_ffffffcc"/></defs><g id="ezcGraphChart" color-rendering="optimizeQuality" shape-rendering="geometricPrecision" text-rendering="optimizeLegibility"><path d=" M 0.0000,400.0000 L 0.0000,0.0000 L 550.0000,0.0000 L 550.0000,400.0000 L 0.0000,400.0000 z " style="fill: #eeeeec; fill-opacity: 1.00; stroke: none;" id="ezcGraphPolygon_1"/><path d=" M 0.0000,40.0000 L 0.0000,0.0000 L 550.0000,0.0000 L 550.0000,40.0000 L 0.0000,40.0000 z " style="fill: #000000; fill-opacity: 0.00; stroke: none;" id="ezcGraphPolygon_2"/><path d="M 275.00,225.00 L 333.45,324.24 A 128.75,111.38 0 0,1 155.79,267.07 z" style="fill: #000000; fill-opacity: 0.06; stroke: none;" id="ezcGraphCircleSector_4"/><path d="M 275.00,225.00 L 334.97,322.46 A 127.75,110.38 0 0,1 155.89,264.91 z" style="fill: #000000; fill-opacity: 0.06; stroke: none;" id="ezcGraphCircleSector_5"/><path d="M 275.00,225.00 L 336.45,320.66 A 126.75,109.38 0 0,1 156.04,262.76 z" style="fill: #000000; fill-opacity: 0.06; stroke: none;" id="ezcGraphCircleSector_6"/><path d="M 275.00,225.00 L 337.88,318.86 A 125.75,108.38 0 0,1 156.24,260.63 z" style="fill: #000000; fill-opacity: 0.06; stroke: none;" id="ezcGraphCircleSector_7"/><path d="M 275.00,225.00 L 339.25,317.04 A 124.75,107.38 0 0,1 156.49,258.53 z" style="fill: #000000; fill-opacity: 0.06; stroke: none;" id="ezcGraphCircleSector_8"/><path d="M 279.79,213.40 L 160.58,255.48 A 128.75,111.38 0 1,1 338.24,312.64 z" style="fill: #000000; fill-opacity: 0.06; stroke: none;" id="ezcGraphCircleSector_9"/><path d="M 279.79,213.40 L 162.37,256.88 A 127.75,110.38 0 1,1 335.80,312.61 z" style="fill: #000000; fill-opacity: 0.06; stroke: none;" id="ezcGraphCircleSector_10"/><path d="M 279.79,213.40 L 164.18,258.23 A 126.75,109.38 0 1,1 333.36,312.53 z" style="fill: #000000; fill-opacity: 0.06; stroke: none;" id="ezcGraphCircleSector_11"/><path d="M 279.79,213.40 L 166.01,259.54 A 125.75,108.38 0 1,1 330.94,312.41 z" style="fill: #000000; fill-opacity: 0.06; stroke: none;" id="ezcGraphCircleSector_12"/><path d="M 279.79,213.40 L 167.86,260.80 A 124.75,107.38 0 1,1 328.54,312.24 z" style="fill: #000000; fill-opacity: 0.06; stroke: none;" id="ezcGraphCircleSector_13"/><path d="M 156.04,213.40 A 123.75,106.38 0 0,0 165.21,253.59 L 165.21,243.59 A 123.75,106.375000 0 0,1 156.04,203.40 z" style="fill: #4e9a06; fill-opacity: 1.00; stroke: none;" id="ezcGraphCircularArc_14"/><path d="M 156.04,213.40 A 123.75,106.38 0 0,0 165.21,253.59 L 165.21,243.59 A 123.75,106.375000 0 0,1 156.04,203.40 z" style="fill: url(#LinearGradient_156_203_403_203_ffffffbf_0000007f); stroke: none;" id="ezcGraphCircularArc_15"/><path d="M 403.54,213.40 A 123.75,106.38 0 0,0 156.04,213.40 L 156.04,203.40 A 123.75,106.375000 0 0,1 403.54,203.40 z" style="fill: #4e9a06; fill-opacity: 1.00; stroke: none;" id="ezcGraphCircularArc_16"/><path d="M 403.54,213.40 A 123.75,106.38 0 0,0 156.04,213.40 L 156.04,203.40 A 123.75,106.375000 0 0,1 403.54,203.40 z" style="fill: url(#LinearGradient_156_203_403_203_ffffffbf_0000007f); stroke: none;" id="ezcGraphCircularArc_17"/><path d="M 335.97,308.18 A 123.75,106.38 0 0,0 403.54,213.40 L 403.54,203.40 A 123.75,106.375000 0 0,1 335.97,298.18 z" style="fill: #4e9a06; fill-opacity: 1.00; stroke: none;" id="ezcGraphCircularArc_18"/><path d="M 335.97,308.18 A 123.75,106.38 0 0,0 403.54,213.40 L 403.54,203.40 A 123.75,106.375000 0 0,1 335.97,298.18 z" style="fill: url(#LinearGradient_156_203_403_203_ffffffbf_0000007f); stroke: none;" id="ezcGraphCircularArc_19"/><path d=" M 165.2135,243.5870 L 279.7933,203.4013 L 279.7933,213.4013 L 165.2135,253.5870 L 165.2135,243.5870 z " style="fill: #4e9a06; fill-opacity: 1.00; stroke: none;" id="ezcGraphPolygon_20"/><path d=" M 279.2933,204.1065 L 279.2933,213.0468 L 165.7135,252.8818 L 165.7135,243.9415 L 279.2933,204.1065 z " style="fill: none; stroke: #274d03; stroke-width: 1; stroke-opacity: 1.00; stroke-linecap: round; stroke-linejoin: round;" id="ezcGraphPolygon_21"/><path d=" M 160.4201,255.1857 L 275.0000,215.0000 L 275.0000,225.0000 L 160.4201,265.1857 L 160.4201,255.1857 z " style="fill: #3465a4; fill-opacity: 1.00; stroke: none;" id="ezcGraphPolygon_22"/><path d=" M 274.5000,215.7052 L 274.5000,224.6455 L 160.9201,264.4805 L 160.9201,255.5402 L 274.5000,215.7052 z " style="fill: none; stroke: #1a3352; stroke-width: 1; stroke-opacity: 1.00; stroke-linecap: round; stroke-linejoin: round;" id="ezcGraphPolygon_23"/><path d=" M 335.9747,298.1821 L 279.7933,203.4013 L 279.7933,213.4013 L 335.9747,308.1821 L 335.9747,298.1821 z " style="fill: #4e9a06; fill-opacity: 1.00; stroke: none;" id="ezcGraphPolygon_24"/><path d=" M 280.2933,205.2254 L 280.2933,213.2642 L 335.4747,306.3580 L 335.4747,298.3192 L 280.2933,205.2254 z " style="fill: none; stroke: #274d03; stroke-width: 1; stroke-opacity: 1.00; stroke-linecap: round; stroke-linejoin: round;" id="ezcGraphPolygon_25"/><path d=" M 331.1813,309.7808 L 275.0000,215.0000 L 275.0000,225.0000 L 331.1813,319.7808 L 331.1813,309.7808 z " style="fill: #3465a4; fill-opacity: 1.00; stroke: none;" id="ezcGraphPolygon_26"/><path d=" M 275.5000,216.8241 L 275.5000,224.8629 L 330.6813,317.9567 L 330.6813,309.9179 L 275.5000,216.8241 z " style="fill: none; stroke: #1a3352; stroke-width: 1; stroke-opacity: 1.00; stroke-linecap: round; stroke-linejoin: round;" id="ezcGraphPolygon_27"/><path d="M 160.42,265.19 A 123.75,106.38 0 0,0 331.18,319.78 L 331.18,309.78 A 123.75,106.375000 0 0,1 160.42,255.19 z" style="fill: #3465a4; fill-opacity: 1.00; stroke: none;" id="ezcGraphCircularArc_28"/><path d="M 160.42,265.19 A 123.75,106.38 0 0,0 331.18,319.78 L 331.18,309.78 A 123.75,106.375000 0 0,1 160.42,255.19 z" style="fill: url(#LinearGradient_151_215_398_215_ffffffbf_0000007f); stroke: none;" id="ezcGraphCircularArc_29"/><path d="M 275.00,215.00 L 331.18,309.78 A 123.75,106.38 0 0,1 160.42,255.19 z" style="fill: #3465a4; fill-opacity: 1.00; stroke: none;" id="ezcGraphCircleSector_30"/><path d="M 275.00,215.00 L 331.18,309.78 A 123.75,106.38 0 0,1 160.42,255.19 z" style="fill: url(#LinearGradient_275_215_151_108_ffffffff_ffffff4c); stroke: none;" id="ezcGraphCircleSector_31"/><path d="M 274.80,215.65 L 330.47,309.55 A 123.25,105.88 0 0,1 161.11,255.47 z" style="fill: none; stroke: #1a3352; stroke-width: 1; stroke-opacity: 1.00; stroke-linecap: round; stroke-linejoin: round;" id="ezcGraphCircleSector_32"/><path d="M 331.18,309.78  A 123.75,106.38 0 0,1 160.42,255.19" style="fill: none; stroke: url(#RadialGradient_187_290_247_212_0.00_ffffff4c_ffffffcc);" id="ezcGraphCircularArc_33"/><path d="M 279.79,203.40 L 165.21,243.59 A 123.75,106.38 0 1,1 335.97,298.18 z" style="fill: #4e9a06; fill-opacity: 1.00; stroke: none;" id="ezcGraphCircleSector_34"/><path d="M 279.79,203.40 L 165.21,243.59 A 123.75,106.38 0 1,1 335.97,298.18 z" style="fill: url(#LinearGradient_279_203_156_97_ffffffff_ffffff4c); stroke: none;" id="ezcGraphCircleSector_35"/><path d="M 280.06,202.78 L 165.47,242.97 A 123.25,105.88 0 1,1 336.18,297.55 z" style="fill: none; stroke: #274d03; stroke-width: 1; stroke-opacity: 1.00; stroke-linecap: round; stroke-linejoin: round;" id="ezcGraphCircleSector_36"/><path d="M 165.21,243.59  A 123.75,106.38 0 0,1 156.04,203.40" style="fill: none; stroke: url(#RadialGradient_192_278_247_212_0.00_ffffff4c_ffffffcc);" id="ezcGraphCircularArc_37"/><path d="M 156.04,203.40  A 123.75,106.38 0 0,1 403.54,203.40" style="fill: none; stroke: url(#RadialGradient_192_278_247_212_0.00_ffffff4c_ffffffcc);" id="ezcGraphCircularArc_38"/><path d="M 403.54,203.40  A 123.75,106.38 0 0,1 335.97,298.18" style="fill: none; stroke: url(#RadialGradient_192_278_247_212_0.00_ffffff4c_ffffffcc);" id="ezcGraphCircularArc_39"/><path d=" M 246.2400,279.5310 L 186.5000,330.0000" style="fill: none; stroke: #555753; stroke-width: 1; stroke-opacity: 0.47; stroke-linecap: round; stroke-linejoin: round;" id="ezcGraphLine_40"/><ellipse cx="246.2400" cy="279.5310" rx="3.0000" ry="3.0000" style="fill: #555753; fill-opacity: 0.47; stroke: none;" id="ezcGraphCircle_41"/><ellipse cx="186.5000" cy="330.0000" rx="3.0000" ry="3.0000" style="fill: #555753; fill-opacity: 0.47; stroke: none;" id="ezcGraphCircle_42"/><path d=" M 308.5533,138.8703 L 315.8891,87.0000" style="fill: none; stroke: #555753; stroke-width: 1; stroke-opacity: 0.47; stroke-linecap: round; stroke-linejoin: round;" id="ezcGraphLine_44"/><ellipse cx="308.5533" cy="138.8703" rx="3.0000" ry="3.0000" style="fill: #555753; fill-opacity: 0.47; stroke: none;" id="ezcGraphCircle_45"/><ellipse cx="315.8891" cy="87.0000" rx="3.0000" ry="3.0000" style="fill: #555753; fill-opacity: 0.47; stroke: none;" id="ezcGraphCircle_46"/><g id="ezcGraphTextBox_3"><path d=" M 93.2400,40.0000 L 93.2400,0.5000 L 457.2600,0.5000 L 457.2600,40.0000 L 93.2400,40.0000 z " style="fill: #ffffff; fill-opacity: 0.00; stroke: none;" id="ezcGraphPolygon_48"/><text id="ezcGraphTextBox_3_text" x="93.7400" text-length="362.5200px" y="33.3000" style="font-size: 38px; font-family: 'sans-serif'; fill: #2e3436; fill-opacity: 1.00; stroke: none;">Ausgaben = 9996.97</text></g><g id="ezcGraphTextBox_43"><path d=" M 8.8100,339.5000 L 8.8100,321.0000 L 181.5000,321.0000 L 181.5000,339.5000 L 8.8100,339.5000 z " style="fill: #ffffff; fill-opacity: 0.00; stroke: none;" id="ezcGraphPolygon_49"/><text id="ezcGraphTextBox_43_text" x="9.3100" text-length="171.1900px" y="335.9500" style="font-size: 17px; font-family: 'sans-serif'; fill: #2e3436; fill-opacity: 1.00; stroke: none;">Miete: 2632 (26.3%)</text></g><g id="ezcGraphTextBox_47"><path d=" M 321.3891,105.0500 L 321.3891,69.4500 L 521.1091,69.4500 L 521.1091,105.0500 L 321.3891,105.0500 z " style="fill: #ffffff; fill-opacity: 0.00; stroke: none;" id="ezcGraphPolygon_50"/><text id="ezcGraphTextBox_47_text" x="321.8891" text-length="198.2200px" y="84.4000" style="font-size: 17px; font-family: 'sans-serif'; fill: #2e3436; fill-opacity: 1.00; stroke: none;">Studiengebuehren: 7364</text><text id="ezcGraphTextBox_47_text" x="321.8891" text-length="63.0700px" y="103.1000" style="font-size: 17px; font-family: 'sans-serif'; fill: #2e3436; fill-opacity: 1.00; stroke: none;">(73.7%)</text></g></g></svg>
