<?xml version="1.0"?>
<svg xmlns="http://www.w3.org/2000/svg" width="550" height="400" version="1.0" id="ezcGraph"><defs><linearGradient id="Definition_LinearGradient_143_204_391_204_ffffffbf_0000007f"><stop offset="0" style="stop-color: #ffffff; stop-opacity: 0.25;"/><stop offset="1" style="stop-color: #000000; stop-opacity: 0.50;"/></linearGradient><linearGradient xmlns:xlink="http://www.w3.org/1999/xlink" id="LinearGradient_143_204_391_204_ffffffbf_0000007f" x1="143.8798" y1="204.5529" x2="391.3798" y2="204.5529" gradientUnits="userSpaceOnUse" xlink:href="#Definition_LinearGradient_143_204_391_204_ffffffbf_0000007f"/><linearGradient id="Definition_LinearGradient_151_215_398_215_ffffffbf_0000007f"><stop offset="0" style="stop-color: #ffffff; stop-opacity: 0.25;"/><stop offset="1" style="stop-color: #000000; stop-opacity: 0.50;"/></linearGradient><linearGradient xmlns:xlink="http://www.w3.org/1999/xlink" id="LinearGradient_151_215_398_215_ffffffbf_0000007f" x1="151.2500" y1="215.0000" x2="398.7500" y2="215.0000" gradientUnits="userSpaceOnUse" xlink:href="#Definition_LinearGradient_151_215_398_215_ffffffbf_0000007f"/><linearGradient id="Definition_LinearGradient_275_215_151_108_ffffffff_ffffff4c"><stop offset="0" style="stop-color: #ffffff; stop-opacity: 0.00;"/><stop offset="1" style="stop-color: #ffffff; stop-opacity: 0.70;"/></linearGradient><linearGradient xmlns:xlink="http://www.w3.org/1999/xlink" id="LinearGradient_275_215_151_108_ffffffff_ffffff4c" x1="275.0000" y1="215.0000" x2="151.2500" y2="108.6250" gradientUnits="userSpaceOnUse" xlink:href="#Definition_LinearGradient_275_215_151_108_ffffffff_ffffff4c"/><linearGradient id="Definition_RadialGradient_187_290_247_212_0.00_ffffff4c_ffffffcc"><stop offset="0" style="stop-color: #ffffff; stop-opacity: 0.70;"/><stop offset="1" style="stop-color: #ffffff; stop-opacity: 0.20;"/></linearGradient><radialGradient xmlns:xlink="http://www.w3.org/1999/xlink" id="RadialGradient_187_290_247_212_0.00_ffffff4c_ffffffcc" cx="187.4955" cy="290.2185" fx="187.4955" fy="290.2185" r="247.5" gradientUnits="userSpaceOnUse" xlink:href="#Definition_RadialGradient_187_290_247_212_0.00_ffffff4c_ffffffcc"/><linearGradient id="Definition_LinearGradient_267_204_143_98_ffffffff_ffffff4c"><stop offset="0" style="stop-color: #ffffff; stop-opacity: 0.00;"/><stop offset="1" style="stop-color: #ffffff; stop-opacity: 0.70;"/></linearGradient><linearGradient xmlns:xlink="http://www.w3.org/1999/xlink" id="LinearGradient_267_204_143_98_ffffffff_ffffff4c" x1="267.6298" y1="204.5529" x2="143.8798" y2="98.1779" gradientUnits="userSpaceOnUse" xlink:href="#Definition_LinearGradient_267_204_143_98_ffffffff_ffffff4c"/><linearGradient id="Definition_RadialGradient_180_279_247_212_0.00_ffffff4c_ffffffcc"><stop offset="0" style="stop-color: #ffffff; stop-opacity: 0.70;"/><stop offset="1" style="stop-color: #ffffff; stop-opacity: 0.20;"/></linearGradient><radialGradient xmlns:xlink="http://www.w3.org/1999/xlink" id="RadialGradient_180_279_247_212_0.00_ffffff4c_ffffffcc" cx="180.1254" cy="279.7714" fx="180.1254" fy="279.7714" r="247.5" gradientUnits="userSpaceOnUse" xlink:href="#Definition_RadialGradient_180_279_247_212_0.00_ffffff4c_ffffffcc"/></defs><g id="ezcGraphChart" color-rendering="optimizeQuality" shape-rendering="geometricPrecision" text-rendering="optimizeLegibility"><path d=" M 0.0000,400.0000 L 0.0000,0.0000 L 550.0000,0.0000 L 550.0000,400.0000 L 0.0000,400.0000 z " style="fill: #eeeeec; fill-opacity: 1.00; stroke: none;" id="ezcGraphPolygon_1"/><path d=" M 0.0000,40.0000 L 0.0000,0.0000 L 550.0000,0.0000 L 550.0000,40.0000 L 0.0000,40.0000 z " style="fill: #000000; fill-opacity: 0.00; stroke: none;" id="ezcGraphPolygon_2"/><path d="M 275.00,225.00 L 333.45,324.24 A 128.75,111.38 0 0,1 223.17,326.95 z" style="fill: #000000; fill-opacity: 0.06; stroke: none;" id="ezcGraphCircleSector_4"/><path d="M 275.00,225.00 L 334.97,322.46 A 127.75,110.38 0 0,1 221.54,325.25 z" style="fill: #000000; fill-opacity: 0.06; stroke: none;" id="ezcGraphCircleSector_5"/><path d="M 275.00,225.00 L 336.45,320.66 A 126.75,109.38 0 0,1 219.96,323.52 z" style="fill: #000000; fill-opacity: 0.06; stroke: none;" id="ezcGraphCircleSector_6"/><path d="M 275.00,225.00 L 337.88,318.86 A 125.75,108.38 0 0,1 218.43,321.79 z" style="fill: #000000; fill-opacity: 0.06; stroke: none;" id="ezcGraphCircleSector_7"/><path d="M 275.00,225.00 L 339.25,317.04 A 124.75,107.38 0 0,1 216.94,320.04 z" style="fill: #000000; fill-opacity: 0.06; stroke: none;" id="ezcGraphCircleSector_8"/><path d="M 267.63,214.55 L 215.80,316.51 A 128.75,111.38 0 1,1 396.34,217.35 z" style="fill: #000000; fill-opacity: 0.06; stroke: none;" id="ezcGraphCircleSector_9"/><path d="M 267.63,214.55 L 218.25,316.35 A 127.75,110.38 0 1,1 395.26,219.25 z" style="fill: #000000; fill-opacity: 0.06; stroke: none;" id="ezcGraphCircleSector_10"/><path d="M 267.63,214.55 L 220.69,316.15 A 126.75,109.38 0 1,1 394.15,221.11 z" style="fill: #000000; fill-opacity: 0.06; stroke: none;" id="ezcGraphCircleSector_11"/><path d="M 267.63,214.55 L 223.10,315.91 A 125.75,108.38 0 1,1 393.00,222.94 z" style="fill: #000000; fill-opacity: 0.06; stroke: none;" id="ezcGraphCircleSector_12"/><path d="M 267.63,214.55 L 225.50,315.62 A 124.75,107.38 0 1,1 391.82,224.73 z" style="fill: #000000; fill-opacity: 0.06; stroke: none;" id="ezcGraphCircleSector_13"/><path d="M 275.00,225.00 L 403.71,227.79 A 128.75,111.38 0 0,1 333.45,324.24 z" style="fill: #000000; fill-opacity: 0.06; stroke: none;" id="ezcGraphCircleSector_14"/><path d="M 275.00,225.00 L 402.75,225.84 A 127.75,110.38 0 0,1 331.00,324.20 z" style="fill: #000000; fill-opacity: 0.06; stroke: none;" id="ezcGraphCircleSector_15"/><path d="M 275.00,225.00 L 401.74,223.93 A 126.75,109.38 0 0,1 328.57,324.13 z" style="fill: #000000; fill-opacity: 0.06; stroke: none;" id="ezcGraphCircleSector_16"/><path d="M 275.00,225.00 L 400.70,222.04 A 125.75,108.38 0 0,1 326.15,324.01 z" style="fill: #000000; fill-opacity: 0.06; stroke: none;" id="ezcGraphCircleSector_17"/><path d="M 275.00,225.00 L 399.63,220.20 A 124.75,107.38 0 0,1 323.74,323.84 z" style="fill: #000000; fill-opacity: 0.06; stroke: none;" id="ezcGraphCircleSector_18"/><path d="M 143.88,214.55 A 123.75,106.38 0 0,0 217.82,311.93 L 217.82,301.93 A 123.75,106.375000 0 0,1 143.88,204.55 z" style="fill: #4e9a06; fill-opacity: 1.00; stroke: none;" id="ezcGraphCircularArc_19"/><path d="M 143.88,214.55 A 123.75,106.38 0 0,0 217.82,311.93 L 217.82,301.93 A 123.75,106.375000 0 0,1 143.88,204.55 z" style="fill: url(#LinearGradient_143_204_391_204_ffffffbf_0000007f); stroke: none;" id="ezcGraphCircularArc_20"/><path d="M 391.38,214.55 A 123.75,106.38 0 0,0 143.88,214.55 L 143.88,204.55 A 123.75,106.375000 0 0,1 391.38,204.55 z" style="fill: #4e9a06; fill-opacity: 1.00; stroke: none;" id="ezcGraphCircularArc_21"/><path d="M 391.38,214.55 A 123.75,106.38 0 0,0 143.88,214.55 L 143.88,204.55 A 123.75,106.375000 0 0,1 391.38,204.55 z" style="fill: url(#LinearGradient_143_204_391_204_ffffffbf_0000007f); stroke: none;" id="ezcGraphCircularArc_22"/><path d="M 391.34,217.22 A 123.75,106.38 0 0,0 391.38,214.55 L 391.38,204.55 A 123.75,106.375000 0 0,1 391.34,207.22 z" style="fill: #4e9a06; fill-opacity: 1.00; stroke: none;" id="ezcGraphCircularArc_23"/><path d="M 391.34,217.22 A 123.75,106.38 0 0,0 391.38,214.55 L 391.38,204.55 A 123.75,106.375000 0 0,1 391.34,207.22 z" style="fill: url(#LinearGradient_143_204_391_204_ffffffbf_0000007f); stroke: none;" id="ezcGraphCircularArc_24"/><path d=" M 391.3409,207.2216 L 267.6298,204.5529 L 267.6298,214.5529 L 391.3409,217.2216 L 391.3409,207.2216 z " style="fill: #4e9a06; fill-opacity: 1.00; stroke: none;" id="ezcGraphPolygon_25"/><path d=" M 268.1298,205.0638 L 268.1298,214.0636 L 390.8409,216.7107 L 390.8409,207.7109 L 268.1298,205.0638 z " style="fill: none; stroke: #274d03; stroke-width: 1; stroke-opacity: 1.00; stroke-linecap: round; stroke-linejoin: round;" id="ezcGraphPolygon_26"/><path d=" M 398.7111,217.6687 L 275.0000,215.0000 L 275.0000,225.0000 L 398.7111,227.6687 L 398.7111,217.6687 z " style="fill: #cc0000; fill-opacity: 1.00; stroke: none;" id="ezcGraphPolygon_27"/><path d=" M 275.5000,215.5109 L 275.5000,224.5107 L 398.2111,227.1578 L 398.2111,218.1580 L 275.5000,215.5109 z " style="fill: none; stroke: #660000; stroke-width: 1; stroke-opacity: 1.00; stroke-linecap: round; stroke-linejoin: round;" id="ezcGraphPolygon_28"/><path d=" M 388.2351,257.9099 L 275.0000,215.0000 L 275.0000,225.0000 L 388.2351,267.9099 L 388.2351,257.9099 z " style="fill: #cc0000; fill-opacity: 1.00; stroke: none;" id="ezcGraphPolygon_29"/><path d=" M 275.5000,215.7242 L 275.5000,224.6548 L 387.7351,267.1857 L 387.7351,258.2551 L 275.5000,215.7242 z " style="fill: none; stroke: #660000; stroke-width: 1; stroke-opacity: 1.00; stroke-linecap: round; stroke-linejoin: round;" id="ezcGraphPolygon_30"/><path d=" M 388.2351,257.9099 L 275.0000,215.0000 L 275.0000,225.0000 L 388.2351,267.9099 L 388.2351,257.9099 z " style="fill: #edd400; fill-opacity: 1.00; stroke: none;" id="ezcGraphPolygon_31"/><path d=" M 275.5000,215.7242 L 275.5000,224.6548 L 387.7351,267.1857 L 387.7351,258.2551 L 275.5000,215.7242 z " style="fill: none; stroke: #776a00; stroke-width: 1; stroke-opacity: 1.00; stroke-linecap: round; stroke-linejoin: round;" id="ezcGraphPolygon_32"/><path d="M 388.24,267.91 A 123.75,106.38 0 0,0 398.71,227.67 L 398.71,217.67 A 123.75,106.375000 0 0,1 388.24,257.91 z" style="fill: #cc0000; fill-opacity: 1.00; stroke: none;" id="ezcGraphCircularArc_33"/><path d="M 388.24,267.91 A 123.75,106.38 0 0,0 398.71,227.67 L 398.71,217.67 A 123.75,106.375000 0 0,1 388.24,257.91 z" style="fill: url(#LinearGradient_151_215_398_215_ffffffbf_0000007f); stroke: none;" id="ezcGraphCircularArc_34"/><path d=" M 217.8154,301.9288 L 267.6298,204.5529 L 267.6298,214.5529 L 217.8154,311.9288 L 217.8154,301.9288 z " style="fill: #4e9a06; fill-opacity: 1.00; stroke: none;" id="ezcGraphPolygon_35"/><path d=" M 267.1298,206.6281 L 267.1298,214.4324 L 218.3154,309.8536 L 218.3154,302.0493 L 267.1298,206.6281 z " style="fill: none; stroke: #274d03; stroke-width: 1; stroke-opacity: 1.00; stroke-linecap: round; stroke-linejoin: round;" id="ezcGraphPolygon_36"/><path d=" M 357.5146,294.2760 L 275.0000,215.0000 L 275.0000,225.0000 L 357.5146,304.2760 L 357.5146,294.2760 z " style="fill: #edd400; fill-opacity: 1.00; stroke: none;" id="ezcGraphPolygon_37"/><path d=" M 275.5000,216.1737 L 275.5000,224.7870 L 357.0146,303.1023 L 357.0146,294.4890 L 275.5000,216.1737 z " style="fill: none; stroke: #776a00; stroke-width: 1; stroke-opacity: 1.00; stroke-linecap: round; stroke-linejoin: round;" id="ezcGraphPolygon_38"/><path d=" M 357.5146,294.2760 L 275.0000,215.0000 L 275.0000,225.0000 L 357.5146,304.2760 L 357.5146,294.2760 z " style="fill: #75505b; fill-opacity: 1.00; stroke: none;" id="ezcGraphPolygon_39"/><path d=" M 275.5000,216.1737 L 275.5000,224.7870 L 357.0146,303.1023 L 357.0146,294.4890 L 275.5000,216.1737 z " style="fill: none; stroke: #3b282e; stroke-width: 1; stroke-opacity: 1.00; stroke-linecap: round; stroke-linejoin: round;" id="ezcGraphPolygon_40"/><path d=" M 355.6282,295.6975 L 275.0000,215.0000 L 275.0000,225.0000 L 355.6282,305.6975 L 355.6282,295.6975 z " style="fill: #75505b; fill-opacity: 1.00; stroke: none;" id="ezcGraphPolygon_41"/><path d=" M 275.5000,216.2078 L 275.5000,224.7930 L 355.1282,304.4897 L 355.1282,295.9045 L 275.5000,216.2078 z " style="fill: none; stroke: #3b282e; stroke-width: 1; stroke-opacity: 1.00; stroke-linecap: round; stroke-linejoin: round;" id="ezcGraphPolygon_42"/><path d=" M 355.6282,295.6975 L 275.0000,215.0000 L 275.0000,225.0000 L 355.6282,305.6975 L 355.6282,295.6975 z " style="fill: #f57900; fill-opacity: 1.00; stroke: none;" id="ezcGraphPolygon_43"/><path d=" M 275.5000,216.2078 L 275.5000,224.7930 L 355.1282,304.4897 L 355.1282,295.9045 L 275.5000,216.2078 z " style="fill: none; stroke: #7b3d00; stroke-width: 1; stroke-opacity: 1.00; stroke-linecap: round; stroke-linejoin: round;" id="ezcGraphPolygon_44"/><path d=" M 331.1813,309.7808 L 275.0000,215.0000 L 275.0000,225.0000 L 331.1813,319.7808 L 331.1813,309.7808 z " style="fill: #3465a4; fill-opacity: 1.00; stroke: none;" id="ezcGraphPolygon_45"/><path d=" M 275.5000,216.8241 L 275.5000,224.8629 L 330.6813,317.9567 L 330.6813,309.9179 L 275.5000,216.8241 z " style="fill: none; stroke: #1a3352; stroke-width: 1; stroke-opacity: 1.00; stroke-linecap: round; stroke-linejoin: round;" id="ezcGraphPolygon_46"/><path d=" M 331.1813,309.7808 L 275.0000,215.0000 L 275.0000,225.0000 L 331.1813,319.7808 L 331.1813,309.7808 z " style="fill: #f57900; fill-opacity: 1.00; stroke: none;" id="ezcGraphPolygon_47"/><path d=" M 275.5000,216.8241 L 275.5000,224.8629 L 330.6813,317.9567 L 330.6813,309.9179 L 275.5000,216.8241 z " style="fill: none; stroke: #7b3d00; stroke-width: 1; stroke-opacity: 1.00; stroke-linecap: round; stroke-linejoin: round;" id="ezcGraphPolygon_48"/><path d=" M 225.1856,312.3759 L 275.0000,215.0000 L 275.0000,225.0000 L 225.1856,322.3759 L 225.1856,312.3759 z " style="fill: #3465a4; fill-opacity: 1.00; stroke: none;" id="ezcGraphPolygon_49"/><path d=" M 274.5000,217.0752 L 274.5000,224.8795 L 225.6856,320.3007 L 225.6856,312.4964 L 274.5000,217.0752 z " style="fill: none; stroke: #1a3352; stroke-width: 1; stroke-opacity: 1.00; stroke-linecap: round; stroke-linejoin: round;" id="ezcGraphPolygon_50"/><path d="M 357.51,304.28 A 123.75,106.38 0 0,0 388.24,267.91 L 388.24,257.91 A 123.75,106.375000 0 0,1 357.51,294.28 z" style="fill: #edd400; fill-opacity: 1.00; stroke: none;" id="ezcGraphCircularArc_51"/><path d="M 357.51,304.28 A 123.75,106.38 0 0,0 388.24,267.91 L 388.24,257.91 A 123.75,106.375000 0 0,1 357.51,294.28 z" style="fill: url(#LinearGradient_151_215_398_215_ffffffbf_0000007f); stroke: none;" id="ezcGraphCircularArc_52"/><path d="M 355.63,305.70 A 123.75,106.38 0 0,0 357.51,304.28 L 357.51,294.28 A 123.75,106.375000 0 0,1 355.63,295.70 z" style="fill: #75505b; fill-opacity: 1.00; stroke: none;" id="ezcGraphCircularArc_53"/><path d="M 355.63,305.70 A 123.75,106.38 0 0,0 357.51,304.28 L 357.51,294.28 A 123.75,106.375000 0 0,1 355.63,295.70 z" style="fill: url(#LinearGradient_151_215_398_215_ffffffbf_0000007f); stroke: none;" id="ezcGraphCircularArc_54"/><path d="M 331.18,319.78 A 123.75,106.38 0 0,0 355.63,305.70 L 355.63,295.70 A 123.75,106.375000 0 0,1 331.18,309.78 z" style="fill: #f57900; fill-opacity: 1.00; stroke: none;" id="ezcGraphCircularArc_55"/><path d="M 331.18,319.78 A 123.75,106.38 0 0,0 355.63,305.70 L 355.63,295.70 A 123.75,106.375000 0 0,1 331.18,309.78 z" style="fill: url(#LinearGradient_151_215_398_215_ffffffbf_0000007f); stroke: none;" id="ezcGraphCircularArc_56"/><path d="M 225.19,322.38 A 123.75,106.38 0 0,0 331.18,319.78 L 331.18,309.78 A 123.75,106.375000 0 0,1 225.19,312.38 z" style="fill: #3465a4; fill-opacity: 1.00; stroke: none;" id="ezcGraphCircularArc_57"/><path d="M 225.19,322.38 A 123.75,106.38 0 0,0 331.18,319.78 L 331.18,309.78 A 123.75,106.375000 0 0,1 225.19,312.38 z" style="fill: url(#LinearGradient_151_215_398_215_ffffffbf_0000007f); stroke: none;" id="ezcGraphCircularArc_58"/><path d="M 275.00,215.00 L 331.18,309.78 A 123.75,106.38 0 0,1 225.19,312.38 z" style="fill: #3465a4; fill-opacity: 1.00; stroke: none;" id="ezcGraphCircleSector_59"/><path d="M 275.00,215.00 L 331.18,309.78 A 123.75,106.38 0 0,1 225.19,312.38 z" style="fill: url(#LinearGradient_275_215_151_108_ffffffff_ffffff4c); stroke: none;" id="ezcGraphCircleSector_60"/><path d="M 275.11,216.16 L 330.47,309.55 A 123.25,105.88 0 0,1 225.88,312.11 z" style="fill: none; stroke: #1a3352; stroke-width: 1; stroke-opacity: 1.00; stroke-linecap: round; stroke-linejoin: round;" id="ezcGraphCircleSector_61"/><path d="M 331.18,309.78  A 123.75,106.38 0 0,1 225.19,312.38" style="fill: none; stroke: url(#RadialGradient_187_290_247_212_0.00_ffffff4c_ffffffcc);" id="ezcGraphCircularArc_62"/><path d="M 267.63,204.55 L 217.82,301.93 A 123.75,106.38 0 1,1 391.34,207.22 z" style="fill: #4e9a06; fill-opacity: 1.00; stroke: none;" id="ezcGraphCircleSector_63"/><path d="M 267.63,204.55 L 217.82,301.93 A 123.75,106.38 0 1,1 391.34,207.22 z" style="fill: url(#LinearGradient_267_204_143_98_ffffffff_ffffff4c); stroke: none;" id="ezcGraphCircleSector_64"/><path d="M 267.34,204.03 L 217.58,301.31 A 123.25,105.88 0 1,1 390.86,206.71 z" style="fill: none; stroke: #274d03; stroke-width: 1; stroke-opacity: 1.00; stroke-linecap: round; stroke-linejoin: round;" id="ezcGraphCircleSector_65"/><path d="M 217.82,301.93  A 123.75,106.38 0 0,1 143.88,204.55" style="fill: none; stroke: url(#RadialGradient_180_279_247_212_0.00_ffffff4c_ffffffcc);" id="ezcGraphCircularArc_66"/><path d="M 143.88,204.55  A 123.75,106.38 0 0,1 391.38,204.55" style="fill: none; stroke: url(#RadialGradient_180_279_247_212_0.00_ffffff4c_ffffffcc);" id="ezcGraphCircularArc_67"/><path d="M 391.38,204.55  A 123.75,106.38 0 0,1 391.34,207.22" style="fill: none; stroke: url(#RadialGradient_180_279_247_212_0.00_ffffff4c_ffffffcc);" id="ezcGraphCircularArc_68"/><path d="M 275.00,215.00 L 398.71,217.67 A 123.75,106.38 0 0,1 388.24,257.91 z" style="fill: #cc0000; fill-opacity: 1.00; stroke: none;" id="ezcGraphCircleSector_69"/><path d="M 275.00,215.00 L 398.71,217.67 A 123.75,106.38 0 0,1 388.24,257.91 z" style="fill: url(#LinearGradient_275_215_151_108_ffffffff_ffffff4c); stroke: none;" id="ezcGraphCircleSector_70"/><path d="M 277.52,215.55 L 398.20,218.16 A 123.25,105.88 0 0,1 388.00,257.29 z" style="fill: none; stroke: #660000; stroke-width: 1; stroke-opacity: 1.00; stroke-linecap: round; stroke-linejoin: round;" id="ezcGraphCircleSector_71"/><path d="M 398.71,217.67  A 123.75,106.38 0 0,1 388.24,257.91" style="fill: none; stroke: url(#RadialGradient_187_290_247_212_0.00_ffffff4c_ffffffcc);" id="ezcGraphCircularArc_72"/><path d="M 275.00,215.00 L 388.24,257.91 A 123.75,106.38 0 0,1 357.51,294.28 z" style="fill: #edd400; fill-opacity: 1.00; stroke: none;" id="ezcGraphCircleSector_73"/><path d="M 275.00,215.00 L 388.24,257.91 A 123.75,106.38 0 0,1 357.51,294.28 z" style="fill: url(#LinearGradient_275_215_151_108_ffffffff_ffffff4c); stroke: none;" id="ezcGraphCircleSector_74"/><path d="M 276.99,216.29 L 387.54,258.18 A 123.25,105.88 0 0,1 357.55,293.62 z" style="fill: none; stroke: #776a00; stroke-width: 1; stroke-opacity: 1.00; stroke-linecap: round; stroke-linejoin: round;" id="ezcGraphCircleSector_75"/><path d="M 388.24,257.91  A 123.75,106.38 0 0,1 357.51,294.28" style="fill: none; stroke: url(#RadialGradient_187_290_247_212_0.00_ffffff4c_ffffffcc);" id="ezcGraphCircularArc_76"/><path d="M 275.00,215.00 L 357.51,294.28 A 123.75,106.38 0 0,1 355.63,295.70 z" style="fill: #75505b; fill-opacity: 1.00; stroke: none;" id="ezcGraphCircleSector_77"/><path d="M 275.00,215.00 L 357.51,294.28 A 123.75,106.38 0 0,1 355.63,295.70 z" style="fill: url(#LinearGradient_275_215_151_108_ffffffff_ffffff4c); stroke: none;" id="ezcGraphCircleSector_78"/><path d="M 310.23,249.54 L 356.76,294.23 A 123.25,105.88 0 0,1 355.68,295.05 z" style="fill: none; stroke: #3b282e; stroke-width: 1; stroke-opacity: 1.00; stroke-linecap: round; stroke-linejoin: round;" id="ezcGraphCircleSector_79"/><path d="M 357.51,294.28  A 123.75,106.38 0 0,1 355.63,295.70" style="fill: none; stroke: url(#RadialGradient_187_290_247_212_0.00_ffffff4c_ffffffcc);" id="ezcGraphCircularArc_80"/><path d="M 275.00,215.00 L 355.63,295.70 A 123.75,106.38 0 0,1 331.18,309.78 z" style="fill: #f57900; fill-opacity: 1.00; stroke: none;" id="ezcGraphCircleSector_81"/><path d="M 275.00,215.00 L 355.63,295.70 A 123.75,106.38 0 0,1 331.18,309.78 z" style="fill: url(#LinearGradient_275_215_151_108_ffffffff_ffffff4c); stroke: none;" id="ezcGraphCircleSector_82"/><path d="M 277.60,218.31 L 354.87,295.64 A 123.25,105.88 0 0,1 331.38,309.15 z" style="fill: none; stroke: #7b3d00; stroke-width: 1; stroke-opacity: 1.00; stroke-linecap: round; stroke-linejoin: round;" id="ezcGraphCircleSector_83"/><path d="M 355.63,295.70  A 123.75,106.38 0 0,1 331.18,309.78" style="fill: none; stroke: url(#RadialGradient_187_290_247_212_0.00_ffffff4c_ffffffcc);" id="ezcGraphCircularArc_84"/><path d=" M 223.4087,146.4291 L 201.8714,100.0000" style="fill: none; stroke: #555753; stroke-width: 1; stroke-opacity: 0.47; stroke-linecap: round; stroke-linejoin: round;" id="ezcGraphLine_85"/><ellipse cx="223.4087" cy="146.4291" rx="3.0000" ry="3.0000" style="fill: #555753; fill-opacity: 0.47; stroke: none;" id="ezcGraphCircle_86"/><ellipse cx="201.8714" cy="100.0000" rx="3.0000" ry="3.0000" style="fill: #555753; fill-opacity: 0.47; stroke: none;" id="ezcGraphCircle_87"/><path d=" M 355.5088,230.0352 L 417.3167,238.0000" style="fill: none; stroke: #555753; stroke-width: 1; stroke-opacity: 0.47; stroke-linecap: round; stroke-linejoin: round;" id="ezcGraphLine_89"/><ellipse cx="355.5088" cy="230.0352" rx="3.0000" ry="3.0000" style="fill: #555753; fill-opacity: 0.47; stroke: none;" id="ezcGraphCircle_90"/><ellipse cx="417.3167" cy="238.0000" rx="3.0000" ry="3.0000" style="fill: #555753; fill-opacity: 0.47; stroke: none;" id="ezcGraphCircle_91"/><path d=" M 341.7564,255.4547 L 407.4526,274.0000" style="fill: none; stroke: #555753; stroke-width: 1; stroke-opacity: 0.47; stroke-linecap: round; stroke-linejoin: round;" id="ezcGraphLine_93"/><ellipse cx="341.7564" cy="255.4547" rx="3.0000" ry="3.0000" style="fill: #555753; fill-opacity: 0.47; stroke: none;" id="ezcGraphCircle_94"/><ellipse cx="407.4526" cy="274.0000" rx="3.0000" ry="3.0000" style="fill: #555753; fill-opacity: 0.47; stroke: none;" id="ezcGraphCircle_95"/><path d=" M 329.3837,266.7732 L 384.9531,310.0000" style="fill: none; stroke: #555753; stroke-width: 1; stroke-opacity: 0.47; stroke-linecap: round; stroke-linejoin: round;" id="ezcGraphLine_97"/><ellipse cx="329.3837" cy="266.7732" rx="3.0000" ry="3.0000" style="fill: #555753; fill-opacity: 0.47; stroke: none;" id="ezcGraphCircle_98"/><ellipse cx="384.9531" cy="310.0000" rx="3.0000" ry="3.0000" style="fill: #555753; fill-opacity: 0.47; stroke: none;" id="ezcGraphCircle_99"/><path d=" M 320.9290,272.1939 L 336.0477,346.0000" style="fill: none; stroke: #555753; stroke-width: 1; stroke-opacity: 0.47; stroke-linecap: round; stroke-linejoin: round;" id="ezcGraphLine_101"/><ellipse cx="320.9290" cy="272.1939" rx="3.0000" ry="3.0000" style="fill: #555753; fill-opacity: 0.47; stroke: none;" id="ezcGraphCircle_102"/><ellipse cx="336.0477" cy="346.0000" rx="3.0000" ry="3.0000" style="fill: #555753; fill-opacity: 0.47; stroke: none;" id="ezcGraphCircle_103"/><path d=" M 277.3488,283.8221 L 280.0000,382.0000" style="fill: none; stroke: #555753; stroke-width: 1; stroke-opacity: 0.47; stroke-linecap: round; stroke-linejoin: round;" id="ezcGraphLine_105"/><ellipse cx="277.3488" cy="283.8221" rx="3.0000" ry="3.0000" style="fill: #555753; fill-opacity: 0.47; stroke: none;" id="ezcGraphCircle_106"/><ellipse cx="280.0000" cy="382.0000" rx="3.0000" ry="3.0000" style="fill: #555753; fill-opacity: 0.47; stroke: none;" id="ezcGraphCircle_107"/><g id="ezcGraphTextBox_3"><path d=" M 93.2400,40.0000 L 93.2400,0.5000 L 457.2600,0.5000 L 457.2600,40.0000 L 93.2400,40.0000 z " style="fill: #ffffff; fill-opacity: 0.00; stroke: none;" id="ezcGraphPolygon_109"/><text id="ezcGraphTextBox_3_text" x="93.7400" text-length="362.5200px" y="33.3000" style="font-size: 38px; font-family: 'sans-serif'; fill: #2e3436; fill-opacity: 1.00; stroke: none;">Ausgaben = 1518.77</text></g><g id="ezcGraphTextBox_88"><path d=" M 78.2414,114.0500 L 78.2414,86.4500 L 196.8714,86.4500 L 196.8714,114.0500 L 78.2414,114.0500 z " style="fill: #ffffff; fill-opacity: 0.00; stroke: none;" id="ezcGraphPolygon_110"/><text id="ezcGraphTextBox_88_text" x="78.7414" text-length="117.1300px" y="98.0000" style="font-size: 13px; font-family: 'sans-serif'; fill: #2e3436; fill-opacity: 1.00; stroke: none;">Einkommenssteuer:</text><text id="ezcGraphTextBox_88_text" x="113.1914" text-length="82.6800px" y="112.3000" style="font-size: 13px; font-family: 'sans-serif'; fill: #2e3436; fill-opacity: 1.00; stroke: none;">1045 (68.8%)</text></g><g id="ezcGraphTextBox_92"><path d=" M 422.8167,252.0500 L 422.8167,224.4500 L 520.7767,224.4500 L 520.7767,252.0500 L 422.8167,252.0500 z " style="fill: #ffffff; fill-opacity: 0.00; stroke: none;" id="ezcGraphPolygon_111"/><text id="ezcGraphTextBox_92_text" x="423.3167" text-length="96.4600px" y="236.0000" style="font-size: 13px; font-family: 'sans-serif'; fill: #2e3436; fill-opacity: 1.00; stroke: none;">Kirchensteuer:</text><text id="ezcGraphTextBox_92_text" x="423.3167" text-length="62.0100px" y="250.3000" style="font-size: 13px; font-family: 'sans-serif'; fill: #2e3436; fill-opacity: 1.00; stroke: none;">94 (6.2%)</text></g><g id="ezcGraphTextBox_96"><path d=" M 412.9526,288.0500 L 412.9526,260.4500 L 517.8026,260.4500 L 517.8026,288.0500 L 412.9526,288.0500 z " style="fill: #ffffff; fill-opacity: 0.00; stroke: none;" id="ezcGraphPolygon_112"/><text id="ezcGraphTextBox_96_text" x="413.4526" text-length="103.3500px" y="272.0000" style="font-size: 13px; font-family: 'sans-serif'; fill: #2e3436; fill-opacity: 1.00; stroke: none;">Server Hosting:</text><text id="ezcGraphTextBox_96_text" x="413.4526" text-length="68.9000px" y="286.3000" style="font-size: 13px; font-family: 'sans-serif'; fill: #2e3436; fill-opacity: 1.00; stroke: none;">102 (6.8%)</text></g><g id="ezcGraphTextBox_100"><path d=" M 390.4531,317.5000 L 390.4531,303.0000 L 502.1931,303.0000 L 502.1931,317.5000 L 390.4531,317.5000 z " style="fill: #ffffff; fill-opacity: 0.00; stroke: none;" id="ezcGraphPolygon_113"/><text id="ezcGraphTextBox_100_text" x="390.9531" text-length="110.2400px" y="314.5500" style="font-size: 13px; font-family: 'sans-serif'; fill: #2e3436; fill-opacity: 1.00; stroke: none;">&lt; 1.0%: 4 (0.3%)</text></g><g id="ezcGraphTextBox_104"><path d=" M 341.5477,360.0500 L 341.5477,332.4500 L 542.8577,332.4500 L 542.8577,360.0500 L 341.5477,360.0500 z " style="fill: #ffffff; fill-opacity: 0.00; stroke: none;" id="ezcGraphPolygon_114"/><text id="ezcGraphTextBox_104_text" x="342.0477" text-length="199.8100px" y="344.0000" style="font-size: 13px; font-family: 'sans-serif'; fill: #2e3436; fill-opacity: 1.00; stroke: none;">Solidaritaetszuschlagssteuer:</text><text id="ezcGraphTextBox_104_text" x="342.0477" text-length="62.0100px" y="358.3000" style="font-size: 13px; font-family: 'sans-serif'; fill: #2e3436; fill-opacity: 1.00; stroke: none;">57 (3.8%)</text></g><g id="ezcGraphTextBox_108"><path d=" M 285.5000,389.5000 L 285.5000,375.0000 L 473.0300,375.0000 L 473.0300,389.5000 L 285.5000,389.5000 z " style="fill: #ffffff; fill-opacity: 0.00; stroke: none;" id="ezcGraphPolygon_115"/><text id="ezcGraphTextBox_108_text" x="286.0000" text-length="186.0300px" y="386.5500" style="font-size: 13px; font-family: 'sans-serif'; fill: #2e3436; fill-opacity: 1.00; stroke: none;">Domain Hosting: 214 (14.1%)</text></g></g></svg>
