<?xml version="1.0"?>
<svg xmlns="http://www.w3.org/2000/svg" width="550" height="400" version="1.0" id="ezcGraph"><defs><linearGradient id="Definition_LinearGradient_158_204_406_204_ffffffbf_0000007f"><stop offset="0" style="stop-color: #ffffff; stop-opacity: 0.25;"/><stop offset="1" style="stop-color: #000000; stop-opacity: 0.50;"/></linearGradient><linearGradient xmlns:xlink="http://www.w3.org/1999/xlink" id="LinearGradient_158_204_406_204_ffffffbf_0000007f" x1="158.7075" y1="204.6032" x2="406.2075" y2="204.6032" gradientUnits="userSpaceOnUse" xlink:href="#Definition_LinearGradient_158_204_406_204_ffffffbf_0000007f"/><linearGradient id="Definition_LinearGradient_151_215_398_215_ffffffbf_0000007f"><stop offset="0" style="stop-color: #ffffff; stop-opacity: 0.25;"/><stop offset="1" style="stop-color: #000000; stop-opacity: 0.50;"/></linearGradient><linearGradient xmlns:xlink="http://www.w3.org/1999/xlink" id="LinearGradient_151_215_398_215_ffffffbf_0000007f" x1="151.2500" y1="215.0000" x2="398.7500" y2="215.0000" gradientUnits="userSpaceOnUse" xlink:href="#Definition_LinearGradient_151_215_398_215_ffffffbf_0000007f"/><linearGradient id="Definition_LinearGradient_275_215_151_108_ffffffff_ffffff4c"><stop offset="0" style="stop-color: #ffffff; stop-opacity: 0.00;"/><stop offset="1" style="stop-color: #ffffff; stop-opacity: 0.70;"/></linearGradient><linearGradient xmlns:xlink="http://www.w3.org/1999/xlink" id="LinearGradient_275_215_151_108_ffffffff_ffffff4c" x1="275.0000" y1="215.0000" x2="151.2500" y2="108.6250" gradientUnits="userSpaceOnUse" xlink:href="#Definition_LinearGradient_275_215_151_108_ffffffff_ffffff4c"/><linearGradient id="Definition_RadialGradient_187_290_247_212_0.00_ffffff4c_ffffffcc"><stop offset="0" style="stop-color: #ffffff; stop-opacity: 0.70;"/><stop offset="1" style="stop-color: #ffffff; stop-opacity: 0.20;"/></linearGradient><radialGradient xmlns:xlink="http://www.w3.org/1999/xlink" id="RadialGradient_187_290_247_212_0.00_ffffff4c_ffffffcc" cx="187.4955" cy="290.2185" fx="187.4955" fy="290.2185" r="247.5" gradientUnits="userSpaceOnUse" xlink:href="#Definition_RadialGradient_187_290_247_212_0.00_ffffff4c_ffffffcc"/><linearGradient id="Definition_LinearGradient_282_204_158_98_ffffffff_ffffff4c"><stop offset="0" style="stop-color: #ffffff; stop-opacity: 0.00;"/><stop offset="1" style="stop-color: #ffffff; stop-opacity: 0.70;"/></linearGradient><linearGradient xmlns:xlink="http://www.w3.org/1999/xlink" id="LinearGradient_282_204_158_98_ffffffff_ffffff4c" x1="282.4575" y1="204.6032" x2="158.7075" y2="98.2282" gradientUnits="userSpaceOnUse" xlink:href="#Definition_LinearGradient_282_204_158_98_ffffffff_ffffff4c"/><linearGradient id="Definition_RadialGradient_194_279_247_212_0.00_ffffff4c_ffffffcc"><stop offset="0" style="stop-color: #ffffff; stop-opacity: 0.70;"/><stop offset="1" style="stop-color: #ffffff; stop-opacity: 0.20;"/></linearGradient><radialGradient xmlns:xlink="http://www.w3.org/1999/xlink" id="RadialGradient_194_279_247_212_0.00_ffffff4c_ffffffcc" cx="194.9530" cy="279.8217" fx="194.9530" fy="279.8217" r="247.5" gradientUnits="userSpaceOnUse" xlink:href="#Definition_RadialGradient_194_279_247_212_0.00_ffffff4c_ffffffcc"/></defs><g id="ezcGraphChart" color-rendering="optimizeQuality" shape-rendering="geometricPrecision" text-rendering="optimizeLegibility"><path d=" M 0.0000,400.0000 L 0.0000,0.0000 L 550.0000,0.0000 L 550.0000,400.0000 L 0.0000,400.0000 z " style="fill: #eeeeec; fill-opacity: 1.00; stroke: none;" id="ezcGraphPolygon_1"/><path d=" M 0.0000,40.0000 L 0.0000,0.0000 L 550.0000,0.0000 L 550.0000,40.0000 L 0.0000,40.0000 z " style="fill: #000000; fill-opacity: 0.00; stroke: none;" id="ezcGraphPolygon_2"/><path d="M 275.00,225.00 L 333.45,324.24 A 128.75,111.38 0 0,1 146.39,219.77 z" style="fill: #000000; fill-opacity: 0.06; stroke: none;" id="ezcGraphCircleSector_4"/><path d="M 275.00,225.00 L 334.97,322.46 A 127.75,110.38 0 0,1 147.51,217.90 z" style="fill: #000000; fill-opacity: 0.06; stroke: none;" id="ezcGraphCircleSector_5"/><path d="M 275.00,225.00 L 336.45,320.66 A 126.75,109.38 0 0,1 148.67,216.06 z" style="fill: #000000; fill-opacity: 0.06; stroke: none;" id="ezcGraphCircleSector_6"/><path d="M 275.00,225.00 L 337.88,318.86 A 125.75,108.38 0 0,1 149.87,214.26 z" style="fill: #000000; fill-opacity: 0.06; stroke: none;" id="ezcGraphCircleSector_7"/><path d="M 275.00,225.00 L 339.25,317.04 A 124.75,107.38 0 0,1 151.10,212.49 z" style="fill: #000000; fill-opacity: 0.06; stroke: none;" id="ezcGraphCircleSector_8"/><path d="M 282.46,214.60 L 153.85,209.38 A 128.75,111.38 0 1,1 340.91,313.84 z" style="fill: #000000; fill-opacity: 0.06; stroke: none;" id="ezcGraphCircleSector_9"/><path d="M 282.46,214.60 L 154.76,211.35 A 127.75,110.38 0 1,1 338.46,313.81 z" style="fill: #000000; fill-opacity: 0.06; stroke: none;" id="ezcGraphCircleSector_10"/><path d="M 282.46,214.60 L 155.72,213.29 A 126.75,109.38 0 1,1 336.02,313.73 z" style="fill: #000000; fill-opacity: 0.06; stroke: none;" id="ezcGraphCircleSector_11"/><path d="M 282.46,214.60 L 156.71,215.19 A 125.75,108.38 0 1,1 333.60,313.61 z" style="fill: #000000; fill-opacity: 0.06; stroke: none;" id="ezcGraphCircleSector_12"/><path d="M 282.46,214.60 L 157.74,217.06 A 124.75,107.38 0 1,1 331.20,313.44 z" style="fill: #000000; fill-opacity: 0.06; stroke: none;" id="ezcGraphCircleSector_13"/><path d="M 406.21,214.60 A 123.75,106.38 0 0,0 158.84,209.61 L 158.84,199.61 A 123.75,106.375000 0 0,1 406.21,204.60 z" style="fill: #4e9a06; fill-opacity: 1.00; stroke: none;" id="ezcGraphCircularArc_14"/><path d="M 406.21,214.60 A 123.75,106.38 0 0,0 158.84,209.61 L 158.84,199.61 A 123.75,106.375000 0 0,1 406.21,204.60 z" style="fill: url(#LinearGradient_158_204_406_204_ffffffbf_0000007f); stroke: none;" id="ezcGraphCircularArc_15"/><path d="M 338.64,309.38 A 123.75,106.38 0 0,0 406.21,214.60 L 406.21,204.60 A 123.75,106.375000 0 0,1 338.64,299.38 z" style="fill: #4e9a06; fill-opacity: 1.00; stroke: none;" id="ezcGraphCircularArc_16"/><path d="M 338.64,309.38 A 123.75,106.38 0 0,0 406.21,214.60 L 406.21,204.60 A 123.75,106.375000 0 0,1 338.64,299.38 z" style="fill: url(#LinearGradient_158_204_406_204_ffffffbf_0000007f); stroke: none;" id="ezcGraphCircularArc_17"/><path d=" M 158.8438,199.6121 L 282.4575,204.6032 L 282.4575,214.6032 L 158.8438,209.6121 L 158.8438,199.6121 z " style="fill: #4e9a06; fill-opacity: 1.00; stroke: none;" id="ezcGraphPolygon_18"/><path d=" M 281.9575,205.0834 L 281.9575,214.0826 L 159.3438,209.1319 L 159.3438,200.1327 L 281.9575,205.0834 z " style="fill: none; stroke: #274d03; stroke-width: 1; stroke-opacity: 1.00; stroke-linecap: round; stroke-linejoin: round;" id="ezcGraphPolygon_19"/><path d=" M 151.3863,210.0089 L 275.0000,215.0000 L 275.0000,225.0000 L 151.3863,220.0089 L 151.3863,210.0089 z " style="fill: #3465a4; fill-opacity: 1.00; stroke: none;" id="ezcGraphPolygon_20"/><path d=" M 274.5000,215.4802 L 274.5000,224.4794 L 151.8863,219.5287 L 151.8863,210.5295 L 274.5000,215.4802 z " style="fill: none; stroke: #1a3352; stroke-width: 1; stroke-opacity: 1.00; stroke-linecap: round; stroke-linejoin: round;" id="ezcGraphPolygon_21"/><path d=" M 338.6388,299.3840 L 282.4575,204.6032 L 282.4575,214.6032 L 338.6388,309.3840 L 338.6388,299.3840 z " style="fill: #4e9a06; fill-opacity: 1.00; stroke: none;" id="ezcGraphPolygon_22"/><path d=" M 282.9575,206.4273 L 282.9575,214.4662 L 338.1388,307.5599 L 338.1388,299.5211 L 282.9575,206.4273 z " style="fill: none; stroke: #274d03; stroke-width: 1; stroke-opacity: 1.00; stroke-linecap: round; stroke-linejoin: round;" id="ezcGraphPolygon_23"/><path d=" M 331.1813,309.7808 L 275.0000,215.0000 L 275.0000,225.0000 L 331.1813,319.7808 L 331.1813,309.7808 z " style="fill: #3465a4; fill-opacity: 1.00; stroke: none;" id="ezcGraphPolygon_24"/><path d=" M 275.5000,216.8241 L 275.5000,224.8629 L 330.6813,317.9567 L 330.6813,309.9179 L 275.5000,216.8241 z " style="fill: none; stroke: #1a3352; stroke-width: 1; stroke-opacity: 1.00; stroke-linecap: round; stroke-linejoin: round;" id="ezcGraphPolygon_25"/><path d="M 151.25,225.00 A 123.75,106.38 0 0,0 331.18,319.78 L 331.18,309.78 A 123.75,106.375000 0 0,1 151.25,215.00 z" style="fill: #3465a4; fill-opacity: 1.00; stroke: none;" id="ezcGraphCircularArc_26"/><path d="M 151.25,225.00 A 123.75,106.38 0 0,0 331.18,319.78 L 331.18,309.78 A 123.75,106.375000 0 0,1 151.25,215.00 z" style="fill: url(#LinearGradient_151_215_398_215_ffffffbf_0000007f); stroke: none;" id="ezcGraphCircularArc_27"/><path d="M 151.39,220.01 A 123.75,106.38 0 0,0 151.25,225.00 L 151.25,215.00 A 123.75,106.375000 0 0,1 151.39,210.01 z" style="fill: #3465a4; fill-opacity: 1.00; stroke: none;" id="ezcGraphCircularArc_28"/><path d="M 151.39,220.01 A 123.75,106.38 0 0,0 151.25,225.00 L 151.25,215.00 A 123.75,106.375000 0 0,1 151.39,210.01 z" style="fill: url(#LinearGradient_151_215_398_215_ffffffbf_0000007f); stroke: none;" id="ezcGraphCircularArc_29"/><path d="M 275.00,215.00 L 331.18,309.78 A 123.75,106.38 0 0,1 151.39,210.01 z" style="fill: #3465a4; fill-opacity: 1.00; stroke: none;" id="ezcGraphCircleSector_30"/><path d="M 275.00,215.00 L 331.18,309.78 A 123.75,106.38 0 0,1 151.39,210.01 z" style="fill: url(#LinearGradient_275_215_151_108_ffffffff_ffffff4c); stroke: none;" id="ezcGraphCircleSector_31"/><path d="M 274.72,215.50 L 330.47,309.55 A 123.25,105.88 0 0,1 151.86,210.53 z" style="fill: none; stroke: #1a3352; stroke-width: 1; stroke-opacity: 1.00; stroke-linecap: round; stroke-linejoin: round;" id="ezcGraphCircleSector_32"/><path d="M 331.18,309.78  A 123.75,106.38 0 0,1 151.25,215.00" style="fill: none; stroke: url(#RadialGradient_187_290_247_212_0.00_ffffff4c_ffffffcc);" id="ezcGraphCircularArc_33"/><path d="M 151.25,215.00  A 123.75,106.38 0 0,1 151.39,210.01" style="fill: none; stroke: url(#RadialGradient_187_290_247_212_0.00_ffffff4c_ffffffcc);" id="ezcGraphCircularArc_34"/><path d="M 282.46,204.60 L 158.84,199.61 A 123.75,106.38 0 1,1 338.64,299.38 z" style="fill: #4e9a06; fill-opacity: 1.00; stroke: none;" id="ezcGraphCircleSector_35"/><path d="M 282.46,204.60 L 158.84,199.61 A 123.75,106.38 0 1,1 338.64,299.38 z" style="fill: url(#LinearGradient_282_204_158_98_ffffffff_ffffff4c); stroke: none;" id="ezcGraphCircleSector_36"/><path d="M 282.77,204.12 L 159.37,199.13 A 123.25,105.88 0 1,1 338.84,298.75 z" style="fill: none; stroke: #274d03; stroke-width: 1; stroke-opacity: 1.00; stroke-linecap: round; stroke-linejoin: round;" id="ezcGraphCircleSector_37"/><path d="M 158.84,199.61  A 123.75,106.38 0 0,1 406.21,204.60" style="fill: none; stroke: url(#RadialGradient_194_279_247_212_0.00_ffffff4c_ffffffcc);" id="ezcGraphCircularArc_38"/><path d="M 406.21,204.60  A 123.75,106.38 0 0,1 338.64,299.38" style="fill: none; stroke: url(#RadialGradient_194_279_247_212_0.00_ffffff4c_ffffffcc);" id="ezcGraphCircularArc_39"/><path d=" M 230.2551,272.8439 L 172.5518,318.0000" style="fill: none; stroke: #555753; stroke-width: 1; stroke-opacity: 0.47; stroke-linecap: round; stroke-linejoin: round;" id="ezcGraphLine_40"/><ellipse cx="230.2551" cy="272.8439" rx="3.0000" ry="3.0000" style="fill: #555753; fill-opacity: 0.47; stroke: none;" id="ezcGraphCircle_41"/><ellipse cx="172.5518" cy="318.0000" rx="3.0000" ry="3.0000" style="fill: #555753; fill-opacity: 0.47; stroke: none;" id="ezcGraphCircle_42"/><path d=" M 327.2024,146.7593 L 348.1286,100.0000" style="fill: none; stroke: #555753; stroke-width: 1; stroke-opacity: 0.47; stroke-linecap: round; stroke-linejoin: round;" id="ezcGraphLine_44"/><ellipse cx="327.2024" cy="146.7593" rx="3.0000" ry="3.0000" style="fill: #555753; fill-opacity: 0.47; stroke: none;" id="ezcGraphCircle_45"/><ellipse cx="348.1286" cy="100.0000" rx="3.0000" ry="3.0000" style="fill: #555753; fill-opacity: 0.47; stroke: none;" id="ezcGraphCircle_46"/><g id="ezcGraphTextBox_3"><path d=" M 123.4500,40.0000 L 123.4500,0.5000 L 427.0500,0.5000 L 427.0500,40.0000 L 123.4500,40.0000 z " style="fill: #ffffff; fill-opacity: 0.00; stroke: none;" id="ezcGraphPolygon_48"/><text id="ezcGraphTextBox_3_text" x="123.9500" text-length="302.1000px" y="33.3000" style="font-size: 38px; font-family: 'sans-serif'; fill: #2e3436; fill-opacity: 1.00; stroke: none;">Ausgaben = 1931</text></g><g id="ezcGraphTextBox_43"><path d=" M 3.8718,327.5000 L 3.8718,309.0000 L 167.5518,309.0000 L 167.5518,327.5000 L 3.8718,327.5000 z " style="fill: #ffffff; fill-opacity: 0.00; stroke: none;" id="ezcGraphPolygon_49"/><text id="ezcGraphTextBox_43_text" x="4.3718" text-length="162.1800px" y="323.9500" style="font-size: 17px; font-family: 'sans-serif'; fill: #2e3436; fill-opacity: 1.00; stroke: none;">Essen: 642 (33.2%)</text></g><g id="ezcGraphTextBox_47"><path d=" M 353.6286,118.0500 L 353.6286,82.4500 L 535.3286,82.4500 L 535.3286,118.0500 L 353.6286,118.0500 z " style="fill: #ffffff; fill-opacity: 0.00; stroke: none;" id="ezcGraphPolygon_50"/><text id="ezcGraphTextBox_47_text" x="354.1286" text-length="180.2000px" y="97.4000" style="font-size: 17px; font-family: 'sans-serif'; fill: #2e3436; fill-opacity: 1.00; stroke: none;">Nahrungsmittel: 1289</text><text id="ezcGraphTextBox_47_text" x="354.1286" text-length="63.0700px" y="116.1000" style="font-size: 17px; font-family: 'sans-serif'; fill: #2e3436; fill-opacity: 1.00; stroke: none;">(66.8%)</text></g></g></svg>
