<?xml version="1.0"?>
<svg xmlns="http://www.w3.org/2000/svg" width="550" height="400" version="1.0" id="ezcGraph"><defs><linearGradient id="Definition_LinearGradient_151_215_398_215_ffffffbf_0000007f"><stop offset="0" style="stop-color: #ffffff; stop-opacity: 0.25;"/><stop offset="1" style="stop-color: #000000; stop-opacity: 0.50;"/></linearGradient><linearGradient xmlns:xlink="http://www.w3.org/1999/xlink" id="LinearGradient_151_215_398_215_ffffffbf_0000007f" x1="151.2500" y1="215.0000" x2="398.7500" y2="215.0000" gradientUnits="userSpaceOnUse" xlink:href="#Definition_LinearGradient_151_215_398_215_ffffffbf_0000007f"/><linearGradient id="Definition_LinearGradient_137_216_385_216_ffffffbf_0000007f"><stop offset="0" style="stop-color: #ffffff; stop-opacity: 0.25;"/><stop offset="1" style="stop-color: #000000; stop-opacity: 0.50;"/></linearGradient><linearGradient xmlns:xlink="http://www.w3.org/1999/xlink" id="LinearGradient_137_216_385_216_ffffffbf_0000007f" x1="137.5613" y1="216.1674" x2="385.0613" y2="216.1674" gradientUnits="userSpaceOnUse" xlink:href="#Definition_LinearGradient_137_216_385_216_ffffffbf_0000007f"/><linearGradient id="Definition_LinearGradient_261_216_137_109_ffffffff_ffffff4c"><stop offset="0" style="stop-color: #ffffff; stop-opacity: 0.00;"/><stop offset="1" style="stop-color: #ffffff; stop-opacity: 0.70;"/></linearGradient><linearGradient xmlns:xlink="http://www.w3.org/1999/xlink" id="LinearGradient_261_216_137_109_ffffffff_ffffff4c" x1="261.3113" y1="216.1674" x2="137.5613" y2="109.7924" gradientUnits="userSpaceOnUse" xlink:href="#Definition_LinearGradient_261_216_137_109_ffffffff_ffffff4c"/><linearGradient id="Definition_RadialGradient_173_291_247_212_0.00_ffffff4c_ffffffcc"><stop offset="0" style="stop-color: #ffffff; stop-opacity: 0.70;"/><stop offset="1" style="stop-color: #ffffff; stop-opacity: 0.20;"/></linearGradient><radialGradient xmlns:xlink="http://www.w3.org/1999/xlink" id="RadialGradient_173_291_247_212_0.00_ffffff4c_ffffffcc" cx="173.8069" cy="291.3859" fx="173.8069" fy="291.3859" r="247.5" gradientUnits="userSpaceOnUse" xlink:href="#Definition_RadialGradient_173_291_247_212_0.00_ffffff4c_ffffffcc"/><linearGradient id="Definition_LinearGradient_275_215_151_108_ffffffff_ffffff4c"><stop offset="0" style="stop-color: #ffffff; stop-opacity: 0.00;"/><stop offset="1" style="stop-color: #ffffff; stop-opacity: 0.70;"/></linearGradient><linearGradient xmlns:xlink="http://www.w3.org/1999/xlink" id="LinearGradient_275_215_151_108_ffffffff_ffffff4c" x1="275.0000" y1="215.0000" x2="151.2500" y2="108.6250" gradientUnits="userSpaceOnUse" xlink:href="#Definition_LinearGradient_275_215_151_108_ffffffff_ffffff4c"/><linearGradient id="Definition_RadialGradient_187_290_247_212_0.00_ffffff4c_ffffffcc"><stop offset="0" style="stop-color: #ffffff; stop-opacity: 0.70;"/><stop offset="1" style="stop-color: #ffffff; stop-opacity: 0.20;"/></linearGradient><radialGradient xmlns:xlink="http://www.w3.org/1999/xlink" id="RadialGradient_187_290_247_212_0.00_ffffff4c_ffffffcc" cx="187.4955" cy="290.2185" fx="187.4955" fy="290.2185" r="247.5" gradientUnits="userSpaceOnUse" xlink:href="#Definition_RadialGradient_187_290_247_212_0.00_ffffff4c_ffffffcc"/></defs><g id="ezcGraphChart" color-rendering="optimizeQuality" shape-rendering="geometricPrecision" text-rendering="optimizeLegibility"><path d=" M 0.0000,400.0000 L 0.0000,0.0000 L 550.0000,0.0000 L 550.0000,400.0000 L 0.0000,400.0000 z " style="fill: #eeeeec; fill-opacity: 1.00; stroke: none;" id="ezcGraphPolygon_1"/><path d=" M 0.0000,40.0000 L 0.0000,0.0000 L 550.0000,0.0000 L 550.0000,40.0000 L 0.0000,40.0000 z " style="fill: #000000; fill-opacity: 0.00; stroke: none;" id="ezcGraphPolygon_2"/><path d="M 261.31,226.17 L 319.76,325.40 A 128.75,111.38 0 1,1 297.17,119.20 z" style="fill: #000000; fill-opacity: 0.06; stroke: none;" id="ezcGraphCircleSector_4"/><path d="M 261.31,226.17 L 321.29,323.62 A 127.75,110.38 0 1,1 299.03,120.71 z" style="fill: #000000; fill-opacity: 0.06; stroke: none;" id="ezcGraphCircleSector_5"/><path d="M 261.31,226.17 L 322.76,321.83 A 126.75,109.38 0 1,1 300.84,122.25 z" style="fill: #000000; fill-opacity: 0.06; stroke: none;" id="ezcGraphCircleSector_6"/><path d="M 261.31,226.17 L 324.19,320.02 A 125.75,108.38 0 1,1 302.61,123.80 z" style="fill: #000000; fill-opacity: 0.06; stroke: none;" id="ezcGraphCircleSector_7"/><path d="M 261.31,226.17 L 325.56,318.21 A 124.75,107.38 0 1,1 304.33,125.38 z" style="fill: #000000; fill-opacity: 0.06; stroke: none;" id="ezcGraphCircleSector_8"/><path d="M 275.00,225.00 L 310.86,118.03 A 128.75,111.38 0 0,1 333.45,324.24 z" style="fill: #000000; fill-opacity: 0.06; stroke: none;" id="ezcGraphCircleSector_9"/><path d="M 275.00,225.00 L 308.44,118.47 A 127.75,110.38 0 0,1 331.00,324.20 z" style="fill: #000000; fill-opacity: 0.06; stroke: none;" id="ezcGraphCircleSector_10"/><path d="M 275.00,225.00 L 306.04,118.95 A 126.75,109.38 0 0,1 328.57,324.13 z" style="fill: #000000; fill-opacity: 0.06; stroke: none;" id="ezcGraphCircleSector_11"/><path d="M 275.00,225.00 L 303.66,119.48 A 125.75,108.38 0 0,1 326.15,324.01 z" style="fill: #000000; fill-opacity: 0.06; stroke: none;" id="ezcGraphCircleSector_12"/><path d="M 275.00,225.00 L 301.31,120.04 A 124.75,107.38 0 0,1 323.74,323.84 z" style="fill: #000000; fill-opacity: 0.06; stroke: none;" id="ezcGraphCircleSector_13"/><path d="M 382.38,172.13 A 123.75,106.38 0 0,0 309.47,122.84 L 309.47,112.84 A 123.75,106.375000 0 0,1 382.38,162.13 z" style="fill: #4e9a06; fill-opacity: 1.00; stroke: none;" id="ezcGraphCircularArc_14"/><path d="M 382.38,172.13 A 123.75,106.38 0 0,0 309.47,122.84 L 309.47,112.84 A 123.75,106.375000 0 0,1 382.38,162.13 z" style="fill: url(#LinearGradient_151_215_398_215_ffffffbf_0000007f); stroke: none;" id="ezcGraphCircularArc_15"/><path d=" M 309.4709,112.8352 L 275.0000,215.0000 L 275.0000,225.0000 L 309.4709,122.8352 L 309.4709,112.8352 z " style="fill: #4e9a06; fill-opacity: 1.00; stroke: none;" id="ezcGraphPolygon_16"/><path d=" M 275.5000,215.0821 L 275.5000,221.9541 L 308.9709,122.7531 L 308.9709,115.8811 L 275.5000,215.0821 z " style="fill: none; stroke: #274d03; stroke-width: 1; stroke-opacity: 1.00; stroke-linecap: round; stroke-linejoin: round;" id="ezcGraphPolygon_17"/><path d=" M 295.7822,114.0026 L 261.3113,216.1674 L 261.3113,226.1674 L 295.7822,124.0026 L 295.7822,114.0026 z " style="fill: #3465a4; fill-opacity: 1.00; stroke: none;" id="ezcGraphPolygon_18"/><path d=" M 261.8113,216.2495 L 261.8113,223.1215 L 295.2822,123.9205 L 295.2822,117.0485 L 261.8113,216.2495 z " style="fill: none; stroke: #1a3352; stroke-width: 1; stroke-opacity: 1.00; stroke-linecap: round; stroke-linejoin: round;" id="ezcGraphPolygon_19"/><path d=" M 382.3822,162.1288 L 275.0000,215.0000 L 275.0000,225.0000 L 382.3822,172.1288 L 382.3822,162.1288 z " style="fill: #4e9a06; fill-opacity: 1.00; stroke: none;" id="ezcGraphPolygon_20"/><path d=" M 275.5000,215.3111 L 275.5000,224.1965 L 381.8822,171.8176 L 381.8822,162.9323 L 275.5000,215.3111 z " style="fill: none; stroke: #274d03; stroke-width: 1; stroke-opacity: 1.00; stroke-linecap: round; stroke-linejoin: round;" id="ezcGraphPolygon_21"/><path d=" M 382.3822,162.1288 L 275.0000,215.0000 L 275.0000,225.0000 L 382.3822,172.1288 L 382.3822,162.1288 z " style="fill: #cc0000; fill-opacity: 1.00; stroke: none;" id="ezcGraphPolygon_22"/><path d=" M 275.5000,215.3111 L 275.5000,224.1965 L 381.8822,171.8176 L 381.8822,162.9323 L 275.5000,215.3111 z " style="fill: none; stroke: #660000; stroke-width: 1; stroke-opacity: 1.00; stroke-linecap: round; stroke-linejoin: round;" id="ezcGraphPolygon_23"/><path d="M 137.56,226.17 A 123.75,106.38 0 0,0 317.49,320.95 L 317.49,310.95 A 123.75,106.375000 0 0,1 137.56,216.17 z" style="fill: #3465a4; fill-opacity: 1.00; stroke: none;" id="ezcGraphCircularArc_24"/><path d="M 137.56,226.17 A 123.75,106.38 0 0,0 317.49,320.95 L 317.49,310.95 A 123.75,106.375000 0 0,1 137.56,216.17 z" style="fill: url(#LinearGradient_137_216_385_216_ffffffbf_0000007f); stroke: none;" id="ezcGraphCircularArc_25"/><path d="M 295.78,124.00 A 123.75,106.38 0 0,0 137.56,226.17 L 137.56,216.17 A 123.75,106.375000 0 0,1 295.78,114.00 z" style="fill: #3465a4; fill-opacity: 1.00; stroke: none;" id="ezcGraphCircularArc_26"/><path d="M 295.78,124.00 A 123.75,106.38 0 0,0 137.56,226.17 L 137.56,216.17 A 123.75,106.375000 0 0,1 295.78,114.00 z" style="fill: url(#LinearGradient_137_216_385_216_ffffffbf_0000007f); stroke: none;" id="ezcGraphCircularArc_27"/><path d="M 398.75,225.00 A 123.75,106.38 0 0,0 382.38,172.13 L 382.38,162.13 A 123.75,106.375000 0 0,1 398.75,215.00 z" style="fill: #cc0000; fill-opacity: 1.00; stroke: none;" id="ezcGraphCircularArc_28"/><path d="M 398.75,225.00 A 123.75,106.38 0 0,0 382.38,172.13 L 382.38,162.13 A 123.75,106.375000 0 0,1 398.75,215.00 z" style="fill: url(#LinearGradient_151_215_398_215_ffffffbf_0000007f); stroke: none;" id="ezcGraphCircularArc_29"/><path d="M 331.18,319.78 A 123.75,106.38 0 0,0 398.75,225.00 L 398.75,215.00 A 123.75,106.375000 0 0,1 331.18,309.78 z" style="fill: #cc0000; fill-opacity: 1.00; stroke: none;" id="ezcGraphCircularArc_30"/><path d="M 331.18,319.78 A 123.75,106.38 0 0,0 398.75,225.00 L 398.75,215.00 A 123.75,106.375000 0 0,1 331.18,309.78 z" style="fill: url(#LinearGradient_151_215_398_215_ffffffbf_0000007f); stroke: none;" id="ezcGraphCircularArc_31"/><path d=" M 331.1813,309.7808 L 275.0000,215.0000 L 275.0000,225.0000 L 331.1813,319.7808 L 331.1813,309.7808 z " style="fill: #cc0000; fill-opacity: 1.00; stroke: none;" id="ezcGraphPolygon_32"/><path d=" M 275.5000,216.8241 L 275.5000,224.8629 L 330.6813,317.9567 L 330.6813,309.9179 L 275.5000,216.8241 z " style="fill: none; stroke: #660000; stroke-width: 1; stroke-opacity: 1.00; stroke-linecap: round; stroke-linejoin: round;" id="ezcGraphPolygon_33"/><path d=" M 317.4926,310.9482 L 261.3113,216.1674 L 261.3113,226.1674 L 317.4926,320.9482 L 317.4926,310.9482 z " style="fill: #3465a4; fill-opacity: 1.00; stroke: none;" id="ezcGraphPolygon_34"/><path d=" M 261.8113,217.9915 L 261.8113,226.0304 L 316.9926,319.1241 L 316.9926,311.0853 L 261.8113,217.9915 z " style="fill: none; stroke: #1a3352; stroke-width: 1; stroke-opacity: 1.00; stroke-linecap: round; stroke-linejoin: round;" id="ezcGraphPolygon_35"/><path d="M 261.31,216.17 L 317.49,310.95 A 123.75,106.38 0 1,1 295.78,114.00 z" style="fill: #3465a4; fill-opacity: 1.00; stroke: none;" id="ezcGraphCircleSector_36"/><path d="M 261.31,216.17 L 317.49,310.95 A 123.75,106.38 0 1,1 295.78,114.00 z" style="fill: url(#LinearGradient_261_216_137_109_ffffffff_ffffff4c); stroke: none;" id="ezcGraphCircleSector_37"/><path d="M 260.78,216.25 L 316.78,310.72 A 123.25,105.88 0 1,1 295.14,114.36 z" style="fill: none; stroke: #1a3352; stroke-width: 1; stroke-opacity: 1.00; stroke-linecap: round; stroke-linejoin: round;" id="ezcGraphCircleSector_38"/><path d="M 317.49,310.95  A 123.75,106.38 0 0,1 137.56,216.17" style="fill: none; stroke: url(#RadialGradient_173_291_247_212_0.00_ffffff4c_ffffffcc);" id="ezcGraphCircularArc_39"/><path d="M 137.56,216.17  A 123.75,106.38 0 0,1 295.78,114.00" style="fill: none; stroke: url(#RadialGradient_173_291_247_212_0.00_ffffff4c_ffffffcc);" id="ezcGraphCircularArc_40"/><path d="M 275.00,215.00 L 309.47,112.84 A 123.75,106.38 0 0,1 382.38,162.13 z" style="fill: #4e9a06; fill-opacity: 1.00; stroke: none;" id="ezcGraphCircleSector_41"/><path d="M 275.00,215.00 L 309.47,112.84 A 123.75,106.38 0 0,1 382.38,162.13 z" style="fill: url(#LinearGradient_275_215_151_108_ffffffff_ffffff4c); stroke: none;" id="ezcGraphCircleSector_42"/><path d="M 275.87,213.99 L 309.80,113.43 A 123.25,105.88 0 0,1 381.66,161.93 z" style="fill: none; stroke: #274d03; stroke-width: 1; stroke-opacity: 1.00; stroke-linecap: round; stroke-linejoin: round;" id="ezcGraphCircleSector_43"/><path d="M 309.47,112.84  A 123.75,106.38 0 0,1 382.38,162.13" style="fill: none; stroke: url(#RadialGradient_187_290_247_212_0.00_ffffff4c_ffffffcc);" id="ezcGraphCircularArc_44"/><path d="M 275.00,215.00 L 382.38,162.13 A 123.75,106.38 0 0,1 331.18,309.78 z" style="fill: #cc0000; fill-opacity: 1.00; stroke: none;" id="ezcGraphCircleSector_45"/><path d="M 275.00,215.00 L 382.38,162.13 A 123.75,106.38 0 0,1 331.18,309.78 z" style="fill: url(#LinearGradient_275_215_151_108_ffffffff_ffffff4c); stroke: none;" id="ezcGraphCircleSector_46"/><path d="M 275.65,215.24 L 382.21,162.77 A 123.25,105.88 0 0,1 331.38,309.15 z" style="fill: none; stroke: #660000; stroke-width: 1; stroke-opacity: 1.00; stroke-linecap: round; stroke-linejoin: round;" id="ezcGraphCircleSector_47"/><path d="M 382.38,162.13  A 123.75,106.38 0 0,1 398.75,215.00" style="fill: none; stroke: url(#RadialGradient_187_290_247_212_0.00_ffffff4c_ffffffcc);" id="ezcGraphCircularArc_48"/><path d="M 398.75,215.00  A 123.75,106.38 0 0,1 331.18,309.78" style="fill: none; stroke: url(#RadialGradient_187_290_247_212_0.00_ffffff4c_ffffffcc);" id="ezcGraphCircularArc_49"/><path d=" M 179.1792,222.6624 L 131.6783,227.0000" style="fill: none; stroke: #555753; stroke-width: 1; stroke-opacity: 0.47; stroke-linecap: round; stroke-linejoin: round;" id="ezcGraphLine_50"/><ellipse cx="179.1792" cy="222.6624" rx="3.0000" ry="3.0000" style="fill: #555753; fill-opacity: 0.47; stroke: none;" id="ezcGraphCircle_51"/><ellipse cx="131.6783" cy="227.0000" rx="3.0000" ry="3.0000" style="fill: #555753; fill-opacity: 0.47; stroke: none;" id="ezcGraphCircle_52"/><path d=" M 326.0019,160.8827 L 372.0892,117.0000" style="fill: none; stroke: #555753; stroke-width: 1; stroke-opacity: 0.47; stroke-linecap: round; stroke-linejoin: round;" id="ezcGraphLine_54"/><ellipse cx="326.0019" cy="160.8827" rx="3.0000" ry="3.0000" style="fill: #555753; fill-opacity: 0.47; stroke: none;" id="ezcGraphCircle_55"/><ellipse cx="372.0892" cy="117.0000" rx="3.0000" ry="3.0000" style="fill: #555753; fill-opacity: 0.47; stroke: none;" id="ezcGraphCircle_56"/><path d=" M 354.0623,234.6676 L 415.1874,250.0000" style="fill: none; stroke: #555753; stroke-width: 1; stroke-opacity: 0.47; stroke-linecap: round; stroke-linejoin: round;" id="ezcGraphLine_58"/><ellipse cx="354.0623" cy="234.6676" rx="3.0000" ry="3.0000" style="fill: #555753; fill-opacity: 0.47; stroke: none;" id="ezcGraphCircle_59"/><ellipse cx="415.1874" cy="250.0000" rx="3.0000" ry="3.0000" style="fill: #555753; fill-opacity: 0.47; stroke: none;" id="ezcGraphCircle_60"/><g id="ezcGraphTextBox_3"><path d=" M 83.1700,40.0000 L 83.1700,0.5000 L 467.3300,0.5000 L 467.3300,40.0000 L 83.1700,40.0000 z " style="fill: #ffffff; fill-opacity: 0.00; stroke: none;" id="ezcGraphPolygon_62"/><text id="ezcGraphTextBox_3_text" x="83.6700" text-length="382.6600px" y="33.3000" style="font-size: 38px; font-family: 'sans-serif'; fill: #2e3436; fill-opacity: 1.00; stroke: none;">Ausgaben = 12025.41</text></g><g id="ezcGraphTextBox_53"><path d=" M 6.4583,244.0500 L 6.4583,210.4500 L 126.6783,210.4500 L 126.6783,244.0500 L 6.4583,244.0500 z " style="fill: #ffffff; fill-opacity: 0.00; stroke: none;" id="ezcGraphPolygon_63"/><text id="ezcGraphTextBox_53_text" x="6.9583" text-length="118.7200px" y="224.5500" style="font-size: 16px; font-family: 'sans-serif'; fill: #2e3436; fill-opacity: 1.00; stroke: none;">Investitionen:</text><text id="ezcGraphTextBox_53_text" x="23.9183" text-length="101.7600px" y="242.1500" style="font-size: 16px; font-family: 'sans-serif'; fill: #2e3436; fill-opacity: 1.00; stroke: none;">7454 (62.0%)</text></g><g id="ezcGraphTextBox_57"><path d=" M 377.5892,126.0000 L 377.5892,108.5000 L 540.2092,108.5000 L 540.2092,126.0000 L 377.5892,126.0000 z " style="fill: #ffffff; fill-opacity: 0.00; stroke: none;" id="ezcGraphPolygon_64"/><text id="ezcGraphTextBox_57_text" x="378.0892" text-length="161.1200px" y="122.6000" style="font-size: 16px; font-family: 'sans-serif'; fill: #2e3436; fill-opacity: 1.00; stroke: none;">Miete: 1470 (12.2%)</text></g><g id="ezcGraphTextBox_61"><path d=" M 420.6874,267.0500 L 420.6874,233.4500 L 523.9474,233.4500 L 523.9474,267.0500 L 420.6874,267.0500 z " style="fill: #ffffff; fill-opacity: 0.00; stroke: none;" id="ezcGraphPolygon_65"/><text id="ezcGraphTextBox_61_text" x="421.1874" text-length="84.8000px" y="247.5500" style="font-size: 16px; font-family: 'sans-serif'; fill: #2e3436; fill-opacity: 1.00; stroke: none;">Sonstiges:</text><text id="ezcGraphTextBox_61_text" x="421.1874" text-length="101.7600px" y="265.1500" style="font-size: 16px; font-family: 'sans-serif'; fill: #2e3436; fill-opacity: 1.00; stroke: none;">3100 (25.8%)</text></g></g></svg>
