<?xml version="1.0"?>
<svg xmlns="http://www.w3.org/2000/svg" width="550" height="400" version="1.0" id="ezcGraph"><defs><linearGradient id="Definition_LinearGradient_159_204_406_204_ffffffbf_0000007f"><stop offset="0" style="stop-color: #ffffff; stop-opacity: 0.25;"/><stop offset="1" style="stop-color: #000000; stop-opacity: 0.50;"/></linearGradient><linearGradient xmlns:xlink="http://www.w3.org/1999/xlink" id="LinearGradient_159_204_406_204_ffffffbf_0000007f" x1="159.1695" y1="204.8838" x2="406.6695" y2="204.8838" gradientUnits="userSpaceOnUse" xlink:href="#Definition_LinearGradient_159_204_406_204_ffffffbf_0000007f"/><linearGradient id="Definition_LinearGradient_151_215_398_215_ffffffbf_0000007f"><stop offset="0" style="stop-color: #ffffff; stop-opacity: 0.25;"/><stop offset="1" style="stop-color: #000000; stop-opacity: 0.50;"/></linearGradient><linearGradient xmlns:xlink="http://www.w3.org/1999/xlink" id="LinearGradient_151_215_398_215_ffffffbf_0000007f" x1="151.2500" y1="215.0000" x2="398.7500" y2="215.0000" gradientUnits="userSpaceOnUse" xlink:href="#Definition_LinearGradient_151_215_398_215_ffffffbf_0000007f"/><linearGradient id="Definition_LinearGradient_275_215_151_108_ffffffff_ffffff4c"><stop offset="0" style="stop-color: #ffffff; stop-opacity: 0.00;"/><stop offset="1" style="stop-color: #ffffff; stop-opacity: 0.70;"/></linearGradient><linearGradient xmlns:xlink="http://www.w3.org/1999/xlink" id="LinearGradient_275_215_151_108_ffffffff_ffffff4c" x1="275.0000" y1="215.0000" x2="151.2500" y2="108.6250" gradientUnits="userSpaceOnUse" xlink:href="#Definition_LinearGradient_275_215_151_108_ffffffff_ffffff4c"/><linearGradient id="Definition_RadialGradient_187_290_247_212_0.00_ffffff4c_ffffffcc"><stop offset="0" style="stop-color: #ffffff; stop-opacity: 0.70;"/><stop offset="1" style="stop-color: #ffffff; stop-opacity: 0.20;"/></linearGradient><radialGradient xmlns:xlink="http://www.w3.org/1999/xlink" id="RadialGradient_187_290_247_212_0.00_ffffff4c_ffffffcc" cx="187.4955" cy="290.2185" fx="187.4955" fy="290.2185" r="247.5" gradientUnits="userSpaceOnUse" xlink:href="#Definition_RadialGradient_187_290_247_212_0.00_ffffff4c_ffffffcc"/><linearGradient id="Definition_LinearGradient_282_204_159_98_ffffffff_ffffff4c"><stop offset="0" style="stop-color: #ffffff; stop-opacity: 0.00;"/><stop offset="1" style="stop-color: #ffffff; stop-opacity: 0.70;"/></linearGradient><linearGradient xmlns:xlink="http://www.w3.org/1999/xlink" id="LinearGradient_282_204_159_98_ffffffff_ffffff4c" x1="282.9195" y1="204.8838" x2="159.1695" y2="98.5088" gradientUnits="userSpaceOnUse" xlink:href="#Definition_LinearGradient_282_204_159_98_ffffffff_ffffff4c"/><linearGradient id="Definition_RadialGradient_195_280_247_212_0.00_ffffff4c_ffffffcc"><stop offset="0" style="stop-color: #ffffff; stop-opacity: 0.70;"/><stop offset="1" style="stop-color: #ffffff; stop-opacity: 0.20;"/></linearGradient><radialGradient xmlns:xlink="http://www.w3.org/1999/xlink" id="RadialGradient_195_280_247_212_0.00_ffffff4c_ffffffcc" cx="195.4151" cy="280.1023" fx="195.4151" fy="280.1023" r="247.5" gradientUnits="userSpaceOnUse" xlink:href="#Definition_RadialGradient_195_280_247_212_0.00_ffffff4c_ffffffcc"/></defs><g id="ezcGraphChart" color-rendering="optimizeQuality" shape-rendering="geometricPrecision" text-rendering="optimizeLegibility"><path d=" M 0.0000,400.0000 L 0.0000,0.0000 L 550.0000,0.0000 L 550.0000,400.0000 L 0.0000,400.0000 z " style="fill: #eeeeec; fill-opacity: 1.00; stroke: none;" id="ezcGraphPolygon_1"/><path d=" M 0.0000,40.0000 L 0.0000,0.0000 L 550.0000,0.0000 L 550.0000,40.0000 L 0.0000,40.0000 z " style="fill: #000000; fill-opacity: 0.00; stroke: none;" id="ezcGraphPolygon_2"/><path d="M 275.00,225.00 L 333.45,324.24 A 128.75,111.38 0 0,1 147.30,210.78 z" style="fill: #000000; fill-opacity: 0.06; stroke: none;" id="ezcGraphCircleSector_4"/><path d="M 275.00,225.00 L 334.97,322.46 A 127.75,110.38 0 0,1 148.60,209.00 z" style="fill: #000000; fill-opacity: 0.06; stroke: none;" id="ezcGraphCircleSector_5"/><path d="M 275.00,225.00 L 336.45,320.66 A 126.75,109.38 0 0,1 149.93,207.26 z" style="fill: #000000; fill-opacity: 0.06; stroke: none;" id="ezcGraphCircleSector_6"/><path d="M 275.00,225.00 L 337.88,318.86 A 125.75,108.38 0 0,1 151.29,205.56 z" style="fill: #000000; fill-opacity: 0.06; stroke: none;" id="ezcGraphCircleSector_7"/><path d="M 275.00,225.00 L 339.25,317.04 A 124.75,107.38 0 0,1 152.68,203.90 z" style="fill: #000000; fill-opacity: 0.06; stroke: none;" id="ezcGraphCircleSector_8"/><path d="M 282.92,214.88 L 155.22,200.66 A 128.75,111.38 0 1,1 341.37,314.12 z" style="fill: #000000; fill-opacity: 0.06; stroke: none;" id="ezcGraphCircleSector_9"/><path d="M 282.92,214.88 L 155.95,202.71 A 127.75,110.38 0 1,1 338.92,314.09 z" style="fill: #000000; fill-opacity: 0.06; stroke: none;" id="ezcGraphCircleSector_10"/><path d="M 282.92,214.88 L 156.72,204.71 A 126.75,109.38 0 1,1 336.49,314.01 z" style="fill: #000000; fill-opacity: 0.06; stroke: none;" id="ezcGraphCircleSector_11"/><path d="M 282.92,214.88 L 157.53,206.69 A 125.75,108.38 0 1,1 334.07,313.89 z" style="fill: #000000; fill-opacity: 0.06; stroke: none;" id="ezcGraphCircleSector_12"/><path d="M 282.92,214.88 L 158.38,208.64 A 124.75,107.38 0 1,1 331.66,313.72 z" style="fill: #000000; fill-opacity: 0.06; stroke: none;" id="ezcGraphCircleSector_13"/><path d="M 406.67,214.88 A 123.75,106.38 0 0,0 160.18,201.30 L 160.18,191.30 A 123.75,106.375000 0 0,1 406.67,204.88 z" style="fill: #edd400; fill-opacity: 1.00; stroke: none;" id="ezcGraphCircularArc_14"/><path d="M 406.67,214.88 A 123.75,106.38 0 0,0 160.18,201.30 L 160.18,191.30 A 123.75,106.375000 0 0,1 406.67,204.88 z" style="fill: url(#LinearGradient_159_204_406_204_ffffffbf_0000007f); stroke: none;" id="ezcGraphCircularArc_15"/><path d="M 339.10,309.66 A 123.75,106.38 0 0,0 406.67,214.88 L 406.67,204.88 A 123.75,106.375000 0 0,1 339.10,299.66 z" style="fill: #edd400; fill-opacity: 1.00; stroke: none;" id="ezcGraphCircularArc_16"/><path d="M 339.10,309.66 A 123.75,106.38 0 0,0 406.67,214.88 L 406.67,204.88 A 123.75,106.375000 0 0,1 339.10,299.66 z" style="fill: url(#LinearGradient_159_204_406_204_ffffffbf_0000007f); stroke: none;" id="ezcGraphCircularArc_17"/><path d=" M 160.1822,191.3032 L 282.9195,204.8838 L 282.9195,214.8838 L 160.1822,201.3032 L 160.1822,191.3032 z " style="fill: #edd400; fill-opacity: 1.00; stroke: none;" id="ezcGraphPolygon_18"/><path d=" M 282.4195,205.3315 L 282.4195,214.3254 L 160.6822,200.8555 L 160.6822,191.8616 L 282.4195,205.3315 z " style="fill: none; stroke: #776a00; stroke-width: 1; stroke-opacity: 1.00; stroke-linecap: round; stroke-linejoin: round;" id="ezcGraphPolygon_19"/><path d=" M 152.2626,201.4195 L 275.0000,215.0000 L 275.0000,225.0000 L 152.2626,211.4195 L 152.2626,201.4195 z " style="fill: #cc0000; fill-opacity: 1.00; stroke: none;" id="ezcGraphPolygon_20"/><path d=" M 274.5000,215.4477 L 274.5000,224.4416 L 152.7626,210.9717 L 152.7626,201.9778 L 274.5000,215.4477 z " style="fill: none; stroke: #660000; stroke-width: 1; stroke-opacity: 1.00; stroke-linecap: round; stroke-linejoin: round;" id="ezcGraphPolygon_21"/><path d="M 151.25,225.00 A 123.75,106.38 0 0,0 165.91,275.21 L 165.91,265.21 A 123.75,106.375000 0 0,1 151.25,215.00 z" style="fill: #cc0000; fill-opacity: 1.00; stroke: none;" id="ezcGraphCircularArc_22"/><path d="M 151.25,225.00 A 123.75,106.38 0 0,0 165.91,275.21 L 165.91,265.21 A 123.75,106.375000 0 0,1 151.25,215.00 z" style="fill: url(#LinearGradient_151_215_398_215_ffffffbf_0000007f); stroke: none;" id="ezcGraphCircularArc_23"/><path d="M 152.26,211.42 A 123.75,106.38 0 0,0 151.25,225.00 L 151.25,215.00 A 123.75,106.375000 0 0,1 152.26,201.42 z" style="fill: #cc0000; fill-opacity: 1.00; stroke: none;" id="ezcGraphCircularArc_24"/><path d="M 152.26,211.42 A 123.75,106.38 0 0,0 151.25,225.00 L 151.25,215.00 A 123.75,106.375000 0 0,1 152.26,201.42 z" style="fill: url(#LinearGradient_151_215_398_215_ffffffbf_0000007f); stroke: none;" id="ezcGraphCircularArc_25"/><path d=" M 165.9057,265.2146 L 275.0000,215.0000 L 275.0000,225.0000 L 165.9057,275.2146 L 165.9057,265.2146 z " style="fill: #4e9a06; fill-opacity: 1.00; stroke: none;" id="ezcGraphPolygon_26"/><path d=" M 274.5000,215.7806 L 274.5000,224.6797 L 166.4057,274.4341 L 166.4057,265.5349 L 274.5000,215.7806 z " style="fill: none; stroke: #274d03; stroke-width: 1; stroke-opacity: 1.00; stroke-linecap: round; stroke-linejoin: round;" id="ezcGraphPolygon_27"/><path d=" M 165.9057,265.2146 L 275.0000,215.0000 L 275.0000,225.0000 L 165.9057,275.2146 L 165.9057,265.2146 z " style="fill: #cc0000; fill-opacity: 1.00; stroke: none;" id="ezcGraphPolygon_28"/><path d=" M 274.5000,215.7806 L 274.5000,224.6797 L 166.4057,274.4341 L 166.4057,265.5349 L 274.5000,215.7806 z " style="fill: none; stroke: #660000; stroke-width: 1; stroke-opacity: 1.00; stroke-linecap: round; stroke-linejoin: round;" id="ezcGraphPolygon_29"/><path d=" M 178.7100,281.8184 L 275.0000,215.0000 L 275.0000,225.0000 L 178.7100,291.8184 L 178.7100,281.8184 z " style="fill: #3465a4; fill-opacity: 1.00; stroke: none;" id="ezcGraphPolygon_30"/><path d=" M 274.5000,215.9556 L 274.5000,224.7384 L 179.2100,290.8628 L 179.2100,282.0800 L 274.5000,215.9556 z " style="fill: none; stroke: #1a3352; stroke-width: 1; stroke-opacity: 1.00; stroke-linecap: round; stroke-linejoin: round;" id="ezcGraphPolygon_31"/><path d=" M 178.7100,281.8184 L 275.0000,215.0000 L 275.0000,225.0000 L 178.7100,291.8184 L 178.7100,281.8184 z " style="fill: #4e9a06; fill-opacity: 1.00; stroke: none;" id="ezcGraphPolygon_32"/><path d=" M 274.5000,215.9556 L 274.5000,224.7384 L 179.2100,290.8628 L 179.2100,282.0800 L 274.5000,215.9556 z " style="fill: none; stroke: #274d03; stroke-width: 1; stroke-opacity: 1.00; stroke-linecap: round; stroke-linejoin: round;" id="ezcGraphPolygon_33"/><path d=" M 339.1009,299.6646 L 282.9195,204.8838 L 282.9195,214.8838 L 339.1009,309.6646 L 339.1009,299.6646 z " style="fill: #edd400; fill-opacity: 1.00; stroke: none;" id="ezcGraphPolygon_34"/><path d=" M 283.4195,206.7079 L 283.4195,214.7467 L 338.6009,307.8405 L 338.6009,299.8016 L 283.4195,206.7079 z " style="fill: none; stroke: #776a00; stroke-width: 1; stroke-opacity: 1.00; stroke-linecap: round; stroke-linejoin: round;" id="ezcGraphPolygon_35"/><path d=" M 331.1813,309.7808 L 275.0000,215.0000 L 275.0000,225.0000 L 331.1813,319.7808 L 331.1813,309.7808 z " style="fill: #3465a4; fill-opacity: 1.00; stroke: none;" id="ezcGraphPolygon_36"/><path d=" M 275.5000,216.8241 L 275.5000,224.8629 L 330.6813,317.9567 L 330.6813,309.9179 L 275.5000,216.8241 z " style="fill: none; stroke: #1a3352; stroke-width: 1; stroke-opacity: 1.00; stroke-linecap: round; stroke-linejoin: round;" id="ezcGraphPolygon_37"/><path d="M 165.91,275.21 A 123.75,106.38 0 0,0 178.71,291.82 L 178.71,281.82 A 123.75,106.375000 0 0,1 165.91,265.21 z" style="fill: #4e9a06; fill-opacity: 1.00; stroke: none;" id="ezcGraphCircularArc_38"/><path d="M 165.91,275.21 A 123.75,106.38 0 0,0 178.71,291.82 L 178.71,281.82 A 123.75,106.375000 0 0,1 165.91,265.21 z" style="fill: url(#LinearGradient_151_215_398_215_ffffffbf_0000007f); stroke: none;" id="ezcGraphCircularArc_39"/><path d="M 178.71,291.82 A 123.75,106.38 0 0,0 331.18,319.78 L 331.18,309.78 A 123.75,106.375000 0 0,1 178.71,281.82 z" style="fill: #3465a4; fill-opacity: 1.00; stroke: none;" id="ezcGraphCircularArc_40"/><path d="M 178.71,291.82 A 123.75,106.38 0 0,0 331.18,319.78 L 331.18,309.78 A 123.75,106.375000 0 0,1 178.71,281.82 z" style="fill: url(#LinearGradient_151_215_398_215_ffffffbf_0000007f); stroke: none;" id="ezcGraphCircularArc_41"/><path d="M 275.00,215.00 L 331.18,309.78 A 123.75,106.38 0 0,1 178.71,281.82 z" style="fill: #3465a4; fill-opacity: 1.00; stroke: none;" id="ezcGraphCircleSector_42"/><path d="M 275.00,215.00 L 331.18,309.78 A 123.75,106.38 0 0,1 178.71,281.82 z" style="fill: url(#LinearGradient_275_215_151_108_ffffffff_ffffff4c); stroke: none;" id="ezcGraphCircleSector_43"/><path d="M 274.88,215.79 L 330.47,309.55 A 123.25,105.88 0 0,1 179.46,281.90 z" style="fill: none; stroke: #1a3352; stroke-width: 1; stroke-opacity: 1.00; stroke-linecap: round; stroke-linejoin: round;" id="ezcGraphCircleSector_44"/><path d="M 331.18,309.78  A 123.75,106.38 0 0,1 178.71,281.82" style="fill: none; stroke: url(#RadialGradient_187_290_247_212_0.00_ffffff4c_ffffffcc);" id="ezcGraphCircularArc_45"/><path d="M 275.00,215.00 L 178.71,281.82 A 123.75,106.38 0 0,1 165.91,265.21 z" style="fill: #4e9a06; fill-opacity: 1.00; stroke: none;" id="ezcGraphCircleSector_46"/><path d="M 275.00,215.00 L 178.71,281.82 A 123.75,106.38 0 0,1 165.91,265.21 z" style="fill: url(#LinearGradient_275_215_151_108_ffffffff_ffffff4c); stroke: none;" id="ezcGraphCircleSector_47"/><path d="M 270.35,217.62 L 178.78,281.17 A 123.25,105.88 0 0,1 166.62,265.43 z" style="fill: none; stroke: #274d03; stroke-width: 1; stroke-opacity: 1.00; stroke-linecap: round; stroke-linejoin: round;" id="ezcGraphCircleSector_48"/><path d="M 178.71,281.82  A 123.75,106.38 0 0,1 165.91,265.21" style="fill: none; stroke: url(#RadialGradient_187_290_247_212_0.00_ffffff4c_ffffffcc);" id="ezcGraphCircularArc_49"/><path d="M 275.00,215.00 L 165.91,265.21 A 123.75,106.38 0 0,1 152.26,201.42 z" style="fill: #cc0000; fill-opacity: 1.00; stroke: none;" id="ezcGraphCircleSector_50"/><path d="M 275.00,215.00 L 165.91,265.21 A 123.75,106.38 0 0,1 152.26,201.42 z" style="fill: url(#LinearGradient_275_215_151_108_ffffffff_ffffff4c); stroke: none;" id="ezcGraphCircleSector_51"/><path d="M 273.37,215.20 L 166.10,264.58 A 123.25,105.88 0 0,1 152.69,201.97 z" style="fill: none; stroke: #660000; stroke-width: 1; stroke-opacity: 1.00; stroke-linecap: round; stroke-linejoin: round;" id="ezcGraphCircleSector_52"/><path d="M 165.91,265.21  A 123.75,106.38 0 0,1 151.25,215.00" style="fill: none; stroke: url(#RadialGradient_187_290_247_212_0.00_ffffff4c_ffffffcc);" id="ezcGraphCircularArc_53"/><path d="M 151.25,215.00  A 123.75,106.38 0 0,1 152.26,201.42" style="fill: none; stroke: url(#RadialGradient_187_290_247_212_0.00_ffffff4c_ffffffcc);" id="ezcGraphCircularArc_54"/><path d="M 282.92,204.88 L 160.18,191.30 A 123.75,106.38 0 1,1 339.10,299.66 z" style="fill: #edd400; fill-opacity: 1.00; stroke: none;" id="ezcGraphCircleSector_55"/><path d="M 282.92,204.88 L 160.18,191.30 A 123.75,106.38 0 1,1 339.10,299.66 z" style="fill: url(#LinearGradient_282_204_159_98_ffffffff_ffffff4c); stroke: none;" id="ezcGraphCircleSector_56"/><path d="M 283.24,204.42 L 160.75,190.86 A 123.25,105.88 0 1,1 339.30,299.03 z" style="fill: none; stroke: #776a00; stroke-width: 1; stroke-opacity: 1.00; stroke-linecap: round; stroke-linejoin: round;" id="ezcGraphCircleSector_57"/><path d="M 160.18,191.30  A 123.75,106.38 0 0,1 406.67,204.88" style="fill: none; stroke: url(#RadialGradient_195_280_247_212_0.00_ffffff4c_ffffffcc);" id="ezcGraphCircularArc_58"/><path d="M 406.67,204.88  A 123.75,106.38 0 0,1 339.10,299.66" style="fill: none; stroke: url(#RadialGradient_195_280_247_212_0.00_ffffff4c_ffffffcc);" id="ezcGraphCircularArc_59"/><path d=" M 193.8596,227.4482 L 132.5550,237.0000" style="fill: none; stroke: #555753; stroke-width: 1; stroke-opacity: 0.47; stroke-linecap: round; stroke-linejoin: round;" id="ezcGraphLine_60"/><ellipse cx="193.8596" cy="227.4482" rx="3.0000" ry="3.0000" style="fill: #555753; fill-opacity: 0.47; stroke: none;" id="ezcGraphCircle_61"/><ellipse cx="132.5550" cy="237.0000" rx="3.0000" ry="3.0000" style="fill: #555753; fill-opacity: 0.47; stroke: none;" id="ezcGraphCircle_62"/><path d=" M 206.2365,253.0413 L 146.7820,283.0000" style="fill: none; stroke: #555753; stroke-width: 1; stroke-opacity: 0.47; stroke-linecap: round; stroke-linejoin: round;" id="ezcGraphLine_64"/><ellipse cx="206.2365" cy="253.0413" rx="3.0000" ry="3.0000" style="fill: #555753; fill-opacity: 0.47; stroke: none;" id="ezcGraphCircle_65"/><ellipse cx="146.7820" cy="283.0000" rx="3.0000" ry="3.0000" style="fill: #555753; fill-opacity: 0.47; stroke: none;" id="ezcGraphCircle_66"/><path d=" M 257.7860,282.3346 L 195.1742,336.0000" style="fill: none; stroke: #555753; stroke-width: 1; stroke-opacity: 0.47; stroke-linecap: round; stroke-linejoin: round;" id="ezcGraphLine_68"/><ellipse cx="257.7860" cy="282.3346" rx="3.0000" ry="3.0000" style="fill: #555753; fill-opacity: 0.47; stroke: none;" id="ezcGraphCircle_69"/><ellipse cx="195.1742" cy="336.0000" rx="3.0000" ry="3.0000" style="fill: #555753; fill-opacity: 0.47; stroke: none;" id="ezcGraphCircle_70"/><path d=" M 330.4368,148.6008 L 353.2305,103.0000" style="fill: none; stroke: #555753; stroke-width: 1; stroke-opacity: 0.47; stroke-linecap: round; stroke-linejoin: round;" id="ezcGraphLine_72"/><ellipse cx="330.4368" cy="148.6008" rx="3.0000" ry="3.0000" style="fill: #555753; fill-opacity: 0.47; stroke: none;" id="ezcGraphCircle_73"/><ellipse cx="353.2305" cy="103.0000" rx="3.0000" ry="3.0000" style="fill: #555753; fill-opacity: 0.47; stroke: none;" id="ezcGraphCircle_74"/><g id="ezcGraphTextBox_3"><path d=" M 103.3100,40.0000 L 103.3100,0.5000 L 447.1900,0.5000 L 447.1900,40.0000 L 103.3100,40.0000 z " style="fill: #ffffff; fill-opacity: 0.00; stroke: none;" id="ezcGraphPolygon_76"/><text id="ezcGraphTextBox_3_text" x="103.8100" text-length="342.3800px" y="33.3000" style="font-size: 38px; font-family: 'sans-serif'; fill: #2e3436; fill-opacity: 1.00; stroke: none;">Ausgaben = 117.93</text></g><g id="ezcGraphTextBox_63"><path d=" M 8.9250,255.0500 L 8.9250,219.4500 L 127.5550,219.4500 L 127.5550,255.0500 L 8.9250,255.0500 z " style="fill: #ffffff; fill-opacity: 0.00; stroke: none;" id="ezcGraphPolygon_77"/><text id="ezcGraphTextBox_63_text" x="9.4250" text-length="117.1300px" y="234.4000" style="font-size: 17px; font-family: 'sans-serif'; fill: #2e3436; fill-opacity: 1.00; stroke: none;">Sonstiges: 11</text><text id="ezcGraphTextBox_63_text" x="72.4950" text-length="54.0600px" y="253.1000" style="font-size: 17px; font-family: 'sans-serif'; fill: #2e3436; fill-opacity: 1.00; stroke: none;">(9.9%)</text></g><g id="ezcGraphTextBox_67"><path d=" M 59.1920,301.0500 L 59.1920,265.4500 L 141.7820,265.4500 L 141.7820,301.0500 L 59.1920,301.0500 z " style="fill: #ffffff; fill-opacity: 0.00; stroke: none;" id="ezcGraphPolygon_78"/><text id="ezcGraphTextBox_67_text" x="59.6920" text-length="81.0900px" y="280.4000" style="font-size: 17px; font-family: 'sans-serif'; fill: #2e3436; fill-opacity: 1.00; stroke: none;">Moebel: 3</text><text id="ezcGraphTextBox_67_text" x="86.7220" text-length="54.0600px" y="299.1000" style="font-size: 17px; font-family: 'sans-serif'; fill: #2e3436; fill-opacity: 1.00; stroke: none;">(3.0%)</text></g><g id="ezcGraphTextBox_71"><path d=" M 17.4842,354.0500 L 17.4842,318.4500 L 190.1742,318.4500 L 190.1742,354.0500 L 17.4842,354.0500 z " style="fill: #ffffff; fill-opacity: 0.00; stroke: none;" id="ezcGraphPolygon_79"/><text id="ezcGraphTextBox_71_text" x="17.9842" text-length="171.1900px" y="333.4000" style="font-size: 17px; font-family: 'sans-serif'; fill: #2e3436; fill-opacity: 1.00; stroke: none;">Essen/Getraenke: 25</text><text id="ezcGraphTextBox_71_text" x="126.1042" text-length="63.0700px" y="352.1000" style="font-size: 17px; font-family: 'sans-serif'; fill: #2e3436; fill-opacity: 1.00; stroke: none;">(21.7%)</text></g><g id="ezcGraphTextBox_75"><path d=" M 358.7305,112.5000 L 358.7305,94.0000 L 522.4105,94.0000 L 522.4105,112.5000 L 358.7305,112.5000 z " style="fill: #ffffff; fill-opacity: 0.00; stroke: none;" id="ezcGraphPolygon_80"/><text id="ezcGraphTextBox_75_text" x="359.2305" text-length="162.1800px" y="108.9500" style="font-size: 17px; font-family: 'sans-serif'; fill: #2e3436; fill-opacity: 1.00; stroke: none;">Tanken: 77 (65.5%)</text></g></g></svg>
