<?xml version="1.0"?>
<svg xmlns="http://www.w3.org/2000/svg" width="1200" height="500" version="1.0" id="ezcGraph"><defs><linearGradient id="Definition_LinearGradient_3_3_14_14_4e98f600_1a335200"><stop offset="0" style="stop-color: #4e98f6; stop-opacity: 1.00;"/><stop offset="1" style="stop-color: #1a3352; stop-opacity: 1.00;"/></linearGradient><linearGradient xmlns:xlink="http://www.w3.org/1999/xlink" id="LinearGradient_3_3_14_14_4e98f600_1a335200" x1="3.4000" y1="3.4000" x2="14.6000" y2="14.6000" gradientUnits="userSpaceOnUse" xlink:href="#Definition_LinearGradient_3_3_14_14_4e98f600_1a335200"/><linearGradient id="Definition_LinearGradient_602_3_613_14_75e70900_274d0300"><stop offset="0" style="stop-color: #75e709; stop-opacity: 1.00;"/><stop offset="1" style="stop-color: #274d03; stop-opacity: 1.00;"/></linearGradient><linearGradient xmlns:xlink="http://www.w3.org/1999/xlink" id="LinearGradient_602_3_613_14_75e70900_274d0300" x1="602.4000" y1="3.4000" x2="613.6000" y2="14.6000" gradientUnits="userSpaceOnUse" xlink:href="#Definition_LinearGradient_602_3_613_14_75e70900_274d0300"/></defs><g id="ezcGraphChart" color-rendering="optimizeQuality" shape-rendering="geometricPrecision" text-rendering="optimizeLegibility"><path d=" M 0.0000,500.0000 L 0.0000,0.0000 L 1200.0000,0.0000 L 1200.0000,500.0000 L 0.0000,500.0000 z " style="fill: #eeeeec; fill-opacity: 1.00; stroke: none;" id="ezcGraphPolygon_1"/><path d=" M 0.0000,25.0000 L 0.0000,0.0000 L 1200.0000,0.0000 L 1200.0000,25.0000 L 0.0000,25.0000 z " style="fill: #000000; fill-opacity: 0.00; stroke: none;" id="ezcGraphPolygon_2"/><path d=" M 2.0000,16.0000 L 2.0000,2.0000 L 16.0000,2.0000 L 16.0000,16.0000 L 2.0000,16.0000 z " style="fill: #3465a4; fill-opacity: 1.00; stroke: none;" id="ezcGraphPolygon_3"/><path d=" M 14.6000,3.4000 L 14.6000,14.6000 L 3.4000,14.6000 L 3.4000,3.4000 L 14.6000,3.4000 z " style="fill: url(#LinearGradient_3_3_14_14_4e98f600_1a335200); stroke: none;" id="ezcGraphPolygon_4"/><path d=" M 601.0000,16.0000 L 601.0000,2.0000 L 615.0000,2.0000 L 615.0000,16.0000 L 601.0000,16.0000 z " style="fill: #4e9a06; fill-opacity: 1.00; stroke: none;" id="ezcGraphPolygon_6"/><path d=" M 613.6000,3.4000 L 613.6000,14.6000 L 602.4000,14.6000 L 602.4000,3.4000 L 613.6000,3.4000 z " style="fill: url(#LinearGradient_602_3_613_14_75e70900_274d0300); stroke: none;" id="ezcGraphPolygon_7"/><path d=" M 0.0000,405.0000 L 1200.0000,405.0000" style="fill: none; stroke: #2e3436; stroke-width: 1; stroke-opacity: 1.00; stroke-linecap: round; stroke-linejoin: round;" id="ezcGraphLine_9"/><path d=" M 1192.0000,401.0000 L 1200.0000,405.0000 L 1192.0000,409.0000 L 1192.0000,401.0000 z " style="fill: #2e3436; fill-opacity: 1.00; stroke: none;" id="ezcGraphPolygon_10"/><path d=" M 121.4433,120.0000 L 121.4433,405.0000" style="fill: none; stroke: #000000; stroke-width: 1; stroke-opacity: 0.00; stroke-linecap: round; stroke-linejoin: round;" id="ezcGraphLine_12"/><path d=" M 121.4433,402.0000 L 121.4433,405.0000" style="fill: none; stroke: #2e3436; stroke-width: 1; stroke-opacity: 1.00; stroke-linecap: round; stroke-linejoin: round;" id="ezcGraphLine_13"/><path d=" M 227.9496,120.0000 L 227.9496,405.0000" style="fill: none; stroke: #000000; stroke-width: 1; stroke-opacity: 0.00; stroke-linecap: round; stroke-linejoin: round;" id="ezcGraphLine_15"/><path d=" M 227.9496,402.0000 L 227.9496,405.0000" style="fill: none; stroke: #2e3436; stroke-width: 1; stroke-opacity: 1.00; stroke-linecap: round; stroke-linejoin: round;" id="ezcGraphLine_16"/><path d=" M 334.4559,120.0000 L 334.4559,405.0000" style="fill: none; stroke: #000000; stroke-width: 1; stroke-opacity: 0.00; stroke-linecap: round; stroke-linejoin: round;" id="ezcGraphLine_18"/><path d=" M 334.4559,402.0000 L 334.4559,405.0000" style="fill: none; stroke: #2e3436; stroke-width: 1; stroke-opacity: 1.00; stroke-linecap: round; stroke-linejoin: round;" id="ezcGraphLine_19"/><path d=" M 440.9622,120.0000 L 440.9622,405.0000" style="fill: none; stroke: #000000; stroke-width: 1; stroke-opacity: 0.00; stroke-linecap: round; stroke-linejoin: round;" id="ezcGraphLine_21"/><path d=" M 440.9622,402.0000 L 440.9622,405.0000" style="fill: none; stroke: #2e3436; stroke-width: 1; stroke-opacity: 1.00; stroke-linecap: round; stroke-linejoin: round;" id="ezcGraphLine_22"/><path d=" M 547.4685,120.0000 L 547.4685,405.0000" style="fill: none; stroke: #000000; stroke-width: 1; stroke-opacity: 0.00; stroke-linecap: round; stroke-linejoin: round;" id="ezcGraphLine_24"/><path d=" M 547.4685,402.0000 L 547.4685,405.0000" style="fill: none; stroke: #2e3436; stroke-width: 1; stroke-opacity: 1.00; stroke-linecap: round; stroke-linejoin: round;" id="ezcGraphLine_25"/><path d=" M 653.9748,120.0000 L 653.9748,405.0000" style="fill: none; stroke: #000000; stroke-width: 1; stroke-opacity: 0.00; stroke-linecap: round; stroke-linejoin: round;" id="ezcGraphLine_27"/><path d=" M 653.9748,402.0000 L 653.9748,405.0000" style="fill: none; stroke: #2e3436; stroke-width: 1; stroke-opacity: 1.00; stroke-linecap: round; stroke-linejoin: round;" id="ezcGraphLine_28"/><path d=" M 760.4811,120.0000 L 760.4811,405.0000" style="fill: none; stroke: #000000; stroke-width: 1; stroke-opacity: 0.00; stroke-linecap: round; stroke-linejoin: round;" id="ezcGraphLine_30"/><path d=" M 760.4811,402.0000 L 760.4811,405.0000" style="fill: none; stroke: #2e3436; stroke-width: 1; stroke-opacity: 1.00; stroke-linecap: round; stroke-linejoin: round;" id="ezcGraphLine_31"/><path d=" M 866.9874,120.0000 L 866.9874,405.0000" style="fill: none; stroke: #000000; stroke-width: 1; stroke-opacity: 0.00; stroke-linecap: round; stroke-linejoin: round;" id="ezcGraphLine_33"/><path d=" M 866.9874,402.0000 L 866.9874,405.0000" style="fill: none; stroke: #2e3436; stroke-width: 1; stroke-opacity: 1.00; stroke-linecap: round; stroke-linejoin: round;" id="ezcGraphLine_34"/><path d=" M 973.4937,120.0000 L 973.4937,405.0000" style="fill: none; stroke: #000000; stroke-width: 1; stroke-opacity: 0.00; stroke-linecap: round; stroke-linejoin: round;" id="ezcGraphLine_36"/><path d=" M 973.4937,402.0000 L 973.4937,405.0000" style="fill: none; stroke: #2e3436; stroke-width: 1; stroke-opacity: 1.00; stroke-linecap: round; stroke-linejoin: round;" id="ezcGraphLine_37"/><path d=" M 1080.0000,120.0000 L 1080.0000,405.0000" style="fill: none; stroke: #000000; stroke-width: 1; stroke-opacity: 0.00; stroke-linecap: round; stroke-linejoin: round;" id="ezcGraphLine_39"/><path d=" M 1080.0000,402.0000 L 1080.0000,405.0000" style="fill: none; stroke: #2e3436; stroke-width: 1; stroke-opacity: 1.00; stroke-linecap: round; stroke-linejoin: round;" id="ezcGraphLine_40"/><path d=" M 120.0000,500.0000 L 120.0000,25.0000" style="fill: none; stroke: #2e3436; stroke-width: 1; stroke-opacity: 1.00; stroke-linecap: round; stroke-linejoin: round;" id="ezcGraphLine_41"/><path d=" M 116.0000,33.0000 L 120.0000,25.0000 L 124.0000,33.0000 L 116.0000,33.0000 z " style="fill: #2e3436; fill-opacity: 1.00; stroke: none;" id="ezcGraphPolygon_42"/><path d=" M 120.0000,381.2500 L 1080.0000,381.2500" style="fill: none; stroke: #000000; stroke-width: 1; stroke-opacity: 0.00; stroke-linecap: round; stroke-linejoin: round;" id="ezcGraphLine_44"/><path d=" M 120.0000,381.2500 L 121.0000,381.2500" style="fill: none; stroke: #2e3436; stroke-width: 1; stroke-opacity: 1.00; stroke-linecap: round; stroke-linejoin: round;" id="ezcGraphLine_45"/><path d=" M 120.0000,357.5000 L 1080.0000,357.5000" style="fill: none; stroke: #000000; stroke-width: 1; stroke-opacity: 0.00; stroke-linecap: round; stroke-linejoin: round;" id="ezcGraphLine_46"/><path d=" M 120.0000,357.5000 L 121.0000,357.5000" style="fill: none; stroke: #2e3436; stroke-width: 1; stroke-opacity: 1.00; stroke-linecap: round; stroke-linejoin: round;" id="ezcGraphLine_47"/><path d=" M 120.0000,333.7500 L 1080.0000,333.7500" style="fill: none; stroke: #000000; stroke-width: 1; stroke-opacity: 0.00; stroke-linecap: round; stroke-linejoin: round;" id="ezcGraphLine_48"/><path d=" M 120.0000,333.7500 L 121.0000,333.7500" style="fill: none; stroke: #2e3436; stroke-width: 1; stroke-opacity: 1.00; stroke-linecap: round; stroke-linejoin: round;" id="ezcGraphLine_49"/><path d=" M 120.0000,310.0000 L 1080.0000,310.0000" style="fill: none; stroke: #000000; stroke-width: 1; stroke-opacity: 0.00; stroke-linecap: round; stroke-linejoin: round;" id="ezcGraphLine_50"/><path d=" M 120.0000,310.0000 L 123.0000,310.0000" style="fill: none; stroke: #2e3436; stroke-width: 1; stroke-opacity: 1.00; stroke-linecap: round; stroke-linejoin: round;" id="ezcGraphLine_51"/><path d=" M 120.0000,286.2500 L 1080.0000,286.2500" style="fill: none; stroke: #000000; stroke-width: 1; stroke-opacity: 0.00; stroke-linecap: round; stroke-linejoin: round;" id="ezcGraphLine_53"/><path d=" M 120.0000,286.2500 L 121.0000,286.2500" style="fill: none; stroke: #2e3436; stroke-width: 1; stroke-opacity: 1.00; stroke-linecap: round; stroke-linejoin: round;" id="ezcGraphLine_54"/><path d=" M 120.0000,262.5000 L 1080.0000,262.5000" style="fill: none; stroke: #000000; stroke-width: 1; stroke-opacity: 0.00; stroke-linecap: round; stroke-linejoin: round;" id="ezcGraphLine_55"/><path d=" M 120.0000,262.5000 L 121.0000,262.5000" style="fill: none; stroke: #2e3436; stroke-width: 1; stroke-opacity: 1.00; stroke-linecap: round; stroke-linejoin: round;" id="ezcGraphLine_56"/><path d=" M 120.0000,238.7500 L 1080.0000,238.7500" style="fill: none; stroke: #000000; stroke-width: 1; stroke-opacity: 0.00; stroke-linecap: round; stroke-linejoin: round;" id="ezcGraphLine_57"/><path d=" M 120.0000,238.7500 L 121.0000,238.7500" style="fill: none; stroke: #2e3436; stroke-width: 1; stroke-opacity: 1.00; stroke-linecap: round; stroke-linejoin: round;" id="ezcGraphLine_58"/><path d=" M 120.0000,215.0000 L 1080.0000,215.0000" style="fill: none; stroke: #000000; stroke-width: 1; stroke-opacity: 0.00; stroke-linecap: round; stroke-linejoin: round;" id="ezcGraphLine_59"/><path d=" M 120.0000,215.0000 L 123.0000,215.0000" style="fill: none; stroke: #2e3436; stroke-width: 1; stroke-opacity: 1.00; stroke-linecap: round; stroke-linejoin: round;" id="ezcGraphLine_60"/><path d=" M 120.0000,191.2500 L 1080.0000,191.2500" style="fill: none; stroke: #000000; stroke-width: 1; stroke-opacity: 0.00; stroke-linecap: round; stroke-linejoin: round;" id="ezcGraphLine_62"/><path d=" M 120.0000,191.2500 L 121.0000,191.2500" style="fill: none; stroke: #2e3436; stroke-width: 1; stroke-opacity: 1.00; stroke-linecap: round; stroke-linejoin: round;" id="ezcGraphLine_63"/><path d=" M 120.0000,167.5000 L 1080.0000,167.5000" style="fill: none; stroke: #000000; stroke-width: 1; stroke-opacity: 0.00; stroke-linecap: round; stroke-linejoin: round;" id="ezcGraphLine_64"/><path d=" M 120.0000,167.5000 L 121.0000,167.5000" style="fill: none; stroke: #2e3436; stroke-width: 1; stroke-opacity: 1.00; stroke-linecap: round; stroke-linejoin: round;" id="ezcGraphLine_65"/><path d=" M 120.0000,143.7500 L 1080.0000,143.7500" style="fill: none; stroke: #000000; stroke-width: 1; stroke-opacity: 0.00; stroke-linecap: round; stroke-linejoin: round;" id="ezcGraphLine_66"/><path d=" M 120.0000,143.7500 L 121.0000,143.7500" style="fill: none; stroke: #2e3436; stroke-width: 1; stroke-opacity: 1.00; stroke-linecap: round; stroke-linejoin: round;" id="ezcGraphLine_67"/><path d=" M 120.0000,120.0000 L 1080.0000,120.0000" style="fill: none; stroke: #000000; stroke-width: 1; stroke-opacity: 0.00; stroke-linecap: round; stroke-linejoin: round;" id="ezcGraphLine_68"/><path d=" M 120.0000,120.0000 L 123.0000,120.0000" style="fill: none; stroke: #2e3436; stroke-width: 1; stroke-opacity: 1.00; stroke-linecap: round; stroke-linejoin: round;" id="ezcGraphLine_69"/><path d=" M 121.4433,399.0150 L 121.4433,399.0150" style="fill: none; stroke: #3465a4; stroke-width: 1; stroke-opacity: 1.00; stroke-linecap: round; stroke-linejoin: round;" id="ezcGraphLine_71"/><path d=" M 121.4433,405.0000 L 121.4433,399.0150 L 156.9454,405.0000 L 156.9454,405.0000 L 121.4433,405.0000 z " style="fill: #3465a4; fill-opacity: 0.10; stroke: none;" id="ezcGraphPolygon_72"/><path d=" M 121.4433,399.0150 L 156.9454,405.0000" style="fill: none; stroke: #3465a4; stroke-width: 1; stroke-opacity: 1.00; stroke-linecap: round; stroke-linejoin: round;" id="ezcGraphLine_73"/><path d=" M 156.9454,405.0000 L 156.9454,405.0000 L 192.4475,375.6450 L 192.4475,405.0000 L 156.9454,405.0000 z " style="fill: #3465a4; fill-opacity: 0.10; stroke: none;" id="ezcGraphPolygon_74"/><path d=" M 156.9454,405.0000 L 192.4475,375.6450" style="fill: none; stroke: #3465a4; stroke-width: 1; stroke-opacity: 1.00; stroke-linecap: round; stroke-linejoin: round;" id="ezcGraphLine_75"/><path d=" M 192.4475,405.0000 L 192.4475,375.6450 L 227.9496,394.7400 L 227.9496,405.0000 L 192.4475,405.0000 z " style="fill: #3465a4; fill-opacity: 0.10; stroke: none;" id="ezcGraphPolygon_76"/><path d=" M 192.4475,375.6450 L 227.9496,394.7400" style="fill: none; stroke: #3465a4; stroke-width: 1; stroke-opacity: 1.00; stroke-linecap: round; stroke-linejoin: round;" id="ezcGraphLine_77"/><path d=" M 227.9496,405.0000 L 227.9496,394.7400 L 263.4517,398.2550 L 263.4517,405.0000 L 227.9496,405.0000 z " style="fill: #3465a4; fill-opacity: 0.10; stroke: none;" id="ezcGraphPolygon_78"/><path d=" M 227.9496,394.7400 L 263.4517,398.2550" style="fill: none; stroke: #3465a4; stroke-width: 1; stroke-opacity: 1.00; stroke-linecap: round; stroke-linejoin: round;" id="ezcGraphLine_79"/><path d=" M 263.4517,405.0000 L 263.4517,398.2550 L 298.9538,392.4600 L 298.9538,405.0000 L 263.4517,405.0000 z " style="fill: #3465a4; fill-opacity: 0.10; stroke: none;" id="ezcGraphPolygon_80"/><path d=" M 263.4517,398.2550 L 298.9538,392.4600" style="fill: none; stroke: #3465a4; stroke-width: 1; stroke-opacity: 1.00; stroke-linecap: round; stroke-linejoin: round;" id="ezcGraphLine_81"/><path d=" M 298.9538,405.0000 L 298.9538,392.4600 L 334.4559,402.1500 L 334.4559,405.0000 L 298.9538,405.0000 z " style="fill: #3465a4; fill-opacity: 0.10; stroke: none;" id="ezcGraphPolygon_82"/><path d=" M 298.9538,392.4600 L 334.4559,402.1500" style="fill: none; stroke: #3465a4; stroke-width: 1; stroke-opacity: 1.00; stroke-linecap: round; stroke-linejoin: round;" id="ezcGraphLine_83"/><path d=" M 334.4559,405.0000 L 334.4559,402.1500 L 369.9580,405.0000 L 369.9580,405.0000 L 334.4559,405.0000 z " style="fill: #3465a4; fill-opacity: 0.10; stroke: none;" id="ezcGraphPolygon_84"/><path d=" M 334.4559,402.1500 L 369.9580,405.0000" style="fill: none; stroke: #3465a4; stroke-width: 1; stroke-opacity: 1.00; stroke-linecap: round; stroke-linejoin: round;" id="ezcGraphLine_85"/><path d=" M 369.9580,405.0000 L 369.9580,405.0000 L 405.4601,378.2100 L 405.4601,405.0000 L 369.9580,405.0000 z " style="fill: #3465a4; fill-opacity: 0.10; stroke: none;" id="ezcGraphPolygon_86"/><path d=" M 369.9580,405.0000 L 405.4601,378.2100" style="fill: none; stroke: #3465a4; stroke-width: 1; stroke-opacity: 1.00; stroke-linecap: round; stroke-linejoin: round;" id="ezcGraphLine_87"/><path d=" M 405.4601,405.0000 L 405.4601,378.2100 L 440.9622,337.1700 L 440.9622,405.0000 L 405.4601,405.0000 z " style="fill: #3465a4; fill-opacity: 0.10; stroke: none;" id="ezcGraphPolygon_88"/><path d=" M 405.4601,378.2100 L 440.9622,337.1700" style="fill: none; stroke: #3465a4; stroke-width: 1; stroke-opacity: 1.00; stroke-linecap: round; stroke-linejoin: round;" id="ezcGraphLine_89"/><path d=" M 440.9622,405.0000 L 440.9622,337.1700 L 476.4643,304.7750 L 476.4643,405.0000 L 440.9622,405.0000 z " style="fill: #3465a4; fill-opacity: 0.10; stroke: none;" id="ezcGraphPolygon_90"/><path d=" M 440.9622,337.1700 L 476.4643,304.7750" style="fill: none; stroke: #3465a4; stroke-width: 1; stroke-opacity: 1.00; stroke-linecap: round; stroke-linejoin: round;" id="ezcGraphLine_91"/><path d=" M 476.4643,405.0000 L 476.4643,304.7750 L 511.9664,282.1650 L 511.9664,405.0000 L 476.4643,405.0000 z " style="fill: #3465a4; fill-opacity: 0.10; stroke: none;" id="ezcGraphPolygon_92"/><path d=" M 476.4643,304.7750 L 511.9664,282.1650" style="fill: none; stroke: #3465a4; stroke-width: 1; stroke-opacity: 1.00; stroke-linecap: round; stroke-linejoin: round;" id="ezcGraphLine_93"/><path d=" M 511.9664,405.0000 L 511.9664,282.1650 L 547.4685,270.0050 L 547.4685,405.0000 L 511.9664,405.0000 z " style="fill: #3465a4; fill-opacity: 0.10; stroke: none;" id="ezcGraphPolygon_94"/><path d=" M 511.9664,282.1650 L 547.4685,270.0050" style="fill: none; stroke: #3465a4; stroke-width: 1; stroke-opacity: 1.00; stroke-linecap: round; stroke-linejoin: round;" id="ezcGraphLine_95"/><path d=" M 547.4685,405.0000 L 547.4685,270.0050 L 582.9706,261.9300 L 582.9706,405.0000 L 547.4685,405.0000 z " style="fill: #3465a4; fill-opacity: 0.10; stroke: none;" id="ezcGraphPolygon_96"/><path d=" M 547.4685,270.0050 L 582.9706,261.9300" style="fill: none; stroke: #3465a4; stroke-width: 1; stroke-opacity: 1.00; stroke-linecap: round; stroke-linejoin: round;" id="ezcGraphLine_97"/><path d=" M 582.9706,405.0000 L 582.9706,261.9300 L 618.4727,188.4950 L 618.4727,405.0000 L 582.9706,405.0000 z " style="fill: #3465a4; fill-opacity: 0.10; stroke: none;" id="ezcGraphPolygon_98"/><path d=" M 582.9706,261.9300 L 618.4727,188.4950" style="fill: none; stroke: #3465a4; stroke-width: 1; stroke-opacity: 1.00; stroke-linecap: round; stroke-linejoin: round;" id="ezcGraphLine_99"/><path d=" M 618.4727,405.0000 L 618.4727,188.4950 L 653.9748,254.8050 L 653.9748,405.0000 L 618.4727,405.0000 z " style="fill: #3465a4; fill-opacity: 0.10; stroke: none;" id="ezcGraphPolygon_100"/><path d=" M 618.4727,188.4950 L 653.9748,254.8050" style="fill: none; stroke: #3465a4; stroke-width: 1; stroke-opacity: 1.00; stroke-linecap: round; stroke-linejoin: round;" id="ezcGraphLine_101"/><path d=" M 653.9748,405.0000 L 653.9748,254.8050 L 689.4769,367.0000 L 689.4769,405.0000 L 653.9748,405.0000 z " style="fill: #3465a4; fill-opacity: 0.10; stroke: none;" id="ezcGraphPolygon_102"/><path d=" M 653.9748,254.8050 L 689.4769,367.0000" style="fill: none; stroke: #3465a4; stroke-width: 1; stroke-opacity: 1.00; stroke-linecap: round; stroke-linejoin: round;" id="ezcGraphLine_103"/><path d=" M 689.4769,405.0000 L 689.4769,367.0000 L 724.9790,405.0000 L 724.9790,405.0000 L 689.4769,405.0000 z " style="fill: #3465a4; fill-opacity: 0.10; stroke: none;" id="ezcGraphPolygon_104"/><path d=" M 689.4769,367.0000 L 724.9790,405.0000" style="fill: none; stroke: #3465a4; stroke-width: 1; stroke-opacity: 1.00; stroke-linecap: round; stroke-linejoin: round;" id="ezcGraphLine_105"/><path d=" M 724.9790,405.0000 L 724.9790,405.0000 L 760.4811,405.0000 L 760.4811,405.0000 L 724.9790,405.0000 z " style="fill: #3465a4; fill-opacity: 0.10; stroke: none;" id="ezcGraphPolygon_106"/><path d=" M 724.9790,405.0000 L 760.4811,405.0000" style="fill: none; stroke: #3465a4; stroke-width: 1; stroke-opacity: 1.00; stroke-linecap: round; stroke-linejoin: round;" id="ezcGraphLine_107"/><path d=" M 760.4811,405.0000 L 760.4811,405.0000 L 795.9832,405.0000 L 795.9832,405.0000 L 760.4811,405.0000 z " style="fill: #3465a4; fill-opacity: 0.10; stroke: none;" id="ezcGraphPolygon_108"/><path d=" M 760.4811,405.0000 L 795.9832,405.0000" style="fill: none; stroke: #3465a4; stroke-width: 1; stroke-opacity: 1.00; stroke-linecap: round; stroke-linejoin: round;" id="ezcGraphLine_109"/><path d=" M 795.9832,405.0000 L 795.9832,405.0000 L 831.4853,405.0000 L 831.4853,405.0000 L 795.9832,405.0000 z " style="fill: #3465a4; fill-opacity: 0.10; stroke: none;" id="ezcGraphPolygon_110"/><path d=" M 795.9832,405.0000 L 831.4853,405.0000" style="fill: none; stroke: #3465a4; stroke-width: 1; stroke-opacity: 1.00; stroke-linecap: round; stroke-linejoin: round;" id="ezcGraphLine_111"/><path d=" M 831.4853,405.0000 L 831.4853,405.0000 L 866.9874,405.0000 L 866.9874,405.0000 L 831.4853,405.0000 z " style="fill: #3465a4; fill-opacity: 0.10; stroke: none;" id="ezcGraphPolygon_112"/><path d=" M 831.4853,405.0000 L 866.9874,405.0000" style="fill: none; stroke: #3465a4; stroke-width: 1; stroke-opacity: 1.00; stroke-linecap: round; stroke-linejoin: round;" id="ezcGraphLine_113"/><path d=" M 866.9874,405.0000 L 866.9874,405.0000 L 902.4895,405.0000 L 902.4895,405.0000 L 866.9874,405.0000 z " style="fill: #3465a4; fill-opacity: 0.10; stroke: none;" id="ezcGraphPolygon_114"/><path d=" M 866.9874,405.0000 L 902.4895,405.0000" style="fill: none; stroke: #3465a4; stroke-width: 1; stroke-opacity: 1.00; stroke-linecap: round; stroke-linejoin: round;" id="ezcGraphLine_115"/><path d=" M 902.4895,405.0000 L 902.4895,405.0000 L 937.9916,405.0000 L 937.9916,405.0000 L 902.4895,405.0000 z " style="fill: #3465a4; fill-opacity: 0.10; stroke: none;" id="ezcGraphPolygon_116"/><path d=" M 902.4895,405.0000 L 937.9916,405.0000" style="fill: none; stroke: #3465a4; stroke-width: 1; stroke-opacity: 1.00; stroke-linecap: round; stroke-linejoin: round;" id="ezcGraphLine_117"/><path d=" M 937.9916,405.0000 L 937.9916,405.0000 L 973.4937,405.0000 L 973.4937,405.0000 L 937.9916,405.0000 z " style="fill: #3465a4; fill-opacity: 0.10; stroke: none;" id="ezcGraphPolygon_118"/><path d=" M 937.9916,405.0000 L 973.4937,405.0000" style="fill: none; stroke: #3465a4; stroke-width: 1; stroke-opacity: 1.00; stroke-linecap: round; stroke-linejoin: round;" id="ezcGraphLine_119"/><path d=" M 973.4937,405.0000 L 973.4937,405.0000 L 1008.9958,405.0000 L 1008.9958,405.0000 L 973.4937,405.0000 z " style="fill: #3465a4; fill-opacity: 0.10; stroke: none;" id="ezcGraphPolygon_120"/><path d=" M 973.4937,405.0000 L 1008.9958,405.0000" style="fill: none; stroke: #3465a4; stroke-width: 1; stroke-opacity: 1.00; stroke-linecap: round; stroke-linejoin: round;" id="ezcGraphLine_121"/><path d=" M 1008.9958,405.0000 L 1008.9958,405.0000 L 1044.4979,405.0000 L 1044.4979,405.0000 L 1008.9958,405.0000 z " style="fill: #3465a4; fill-opacity: 0.10; stroke: none;" id="ezcGraphPolygon_122"/><path d=" M 1008.9958,405.0000 L 1044.4979,405.0000" style="fill: none; stroke: #3465a4; stroke-width: 1; stroke-opacity: 1.00; stroke-linecap: round; stroke-linejoin: round;" id="ezcGraphLine_123"/><path d=" M 1044.4979,405.0000 L 1044.4979,405.0000 L 1080.0000,405.0000 L 1080.0000,405.0000 L 1044.4979,405.0000 z " style="fill: #3465a4; fill-opacity: 0.10; stroke: none;" id="ezcGraphPolygon_124"/><path d=" M 1044.4979,405.0000 L 1080.0000,405.0000" style="fill: none; stroke: #3465a4; stroke-width: 1; stroke-opacity: 1.00; stroke-linecap: round; stroke-linejoin: round;" id="ezcGraphLine_125"/><path d=" M 121.4433,393.6950 L 121.4433,393.6950" style="fill: none; stroke: #4e9a06; stroke-width: 1; stroke-opacity: 1.00; stroke-linecap: round; stroke-linejoin: round;" id="ezcGraphLine_126"/><path d=" M 121.4433,405.0000 L 121.4433,393.6950 L 156.9454,392.1750 L 156.9454,405.0000 L 121.4433,405.0000 z " style="fill: #4e9a06; fill-opacity: 0.10; stroke: none;" id="ezcGraphPolygon_127"/><path d=" M 121.4433,393.6950 L 156.9454,392.1750" style="fill: none; stroke: #4e9a06; stroke-width: 1; stroke-opacity: 1.00; stroke-linecap: round; stroke-linejoin: round;" id="ezcGraphLine_128"/><path d=" M 156.9454,405.0000 L 156.9454,392.1750 L 192.4475,393.6950 L 192.4475,405.0000 L 156.9454,405.0000 z " style="fill: #4e9a06; fill-opacity: 0.10; stroke: none;" id="ezcGraphPolygon_129"/><path d=" M 156.9454,392.1750 L 192.4475,393.6950" style="fill: none; stroke: #4e9a06; stroke-width: 1; stroke-opacity: 1.00; stroke-linecap: round; stroke-linejoin: round;" id="ezcGraphLine_130"/><path d=" M 192.4475,405.0000 L 192.4475,393.6950 L 227.9496,390.4650 L 227.9496,405.0000 L 192.4475,405.0000 z " style="fill: #4e9a06; fill-opacity: 0.10; stroke: none;" id="ezcGraphPolygon_131"/><path d=" M 192.4475,393.6950 L 227.9496,390.4650" style="fill: none; stroke: #4e9a06; stroke-width: 1; stroke-opacity: 1.00; stroke-linecap: round; stroke-linejoin: round;" id="ezcGraphLine_132"/><path d=" M 227.9496,405.0000 L 227.9496,390.4650 L 263.4517,386.6650 L 263.4517,405.0000 L 227.9496,405.0000 z " style="fill: #4e9a06; fill-opacity: 0.10; stroke: none;" id="ezcGraphPolygon_133"/><path d=" M 227.9496,390.4650 L 263.4517,386.6650" style="fill: none; stroke: #4e9a06; stroke-width: 1; stroke-opacity: 1.00; stroke-linecap: round; stroke-linejoin: round;" id="ezcGraphLine_134"/><path d=" M 263.4517,405.0000 L 263.4517,386.6650 L 298.9538,391.3200 L 298.9538,405.0000 L 263.4517,405.0000 z " style="fill: #4e9a06; fill-opacity: 0.10; stroke: none;" id="ezcGraphPolygon_135"/><path d=" M 263.4517,386.6650 L 298.9538,391.3200" style="fill: none; stroke: #4e9a06; stroke-width: 1; stroke-opacity: 1.00; stroke-linecap: round; stroke-linejoin: round;" id="ezcGraphLine_136"/><path d=" M 298.9538,405.0000 L 298.9538,391.3200 L 334.4559,384.3850 L 334.4559,405.0000 L 298.9538,405.0000 z " style="fill: #4e9a06; fill-opacity: 0.10; stroke: none;" id="ezcGraphPolygon_137"/><path d=" M 298.9538,391.3200 L 334.4559,384.3850" style="fill: none; stroke: #4e9a06; stroke-width: 1; stroke-opacity: 1.00; stroke-linecap: round; stroke-linejoin: round;" id="ezcGraphLine_138"/><path d=" M 334.4559,405.0000 L 334.4559,384.3850 L 369.9580,399.8700 L 369.9580,405.0000 L 334.4559,405.0000 z " style="fill: #4e9a06; fill-opacity: 0.10; stroke: none;" id="ezcGraphPolygon_139"/><path d=" M 334.4559,384.3850 L 369.9580,399.8700" style="fill: none; stroke: #4e9a06; stroke-width: 1; stroke-opacity: 1.00; stroke-linecap: round; stroke-linejoin: round;" id="ezcGraphLine_140"/><path d=" M 369.9580,405.0000 L 369.9580,399.8700 L 405.4601,402.1500 L 405.4601,405.0000 L 369.9580,405.0000 z " style="fill: #4e9a06; fill-opacity: 0.10; stroke: none;" id="ezcGraphPolygon_141"/><path d=" M 369.9580,399.8700 L 405.4601,402.1500" style="fill: none; stroke: #4e9a06; stroke-width: 1; stroke-opacity: 1.00; stroke-linecap: round; stroke-linejoin: round;" id="ezcGraphLine_142"/><path d=" M 405.4601,405.0000 L 405.4601,402.1500 L 440.9622,354.7450 L 440.9622,405.0000 L 405.4601,405.0000 z " style="fill: #4e9a06; fill-opacity: 0.10; stroke: none;" id="ezcGraphPolygon_143"/><path d=" M 405.4601,402.1500 L 440.9622,354.7450" style="fill: none; stroke: #4e9a06; stroke-width: 1; stroke-opacity: 1.00; stroke-linecap: round; stroke-linejoin: round;" id="ezcGraphLine_144"/><path d=" M 440.9622,405.0000 L 440.9622,354.7450 L 476.4643,359.2100 L 476.4643,405.0000 L 440.9622,405.0000 z " style="fill: #4e9a06; fill-opacity: 0.10; stroke: none;" id="ezcGraphPolygon_145"/><path d=" M 440.9622,354.7450 L 476.4643,359.2100" style="fill: none; stroke: #4e9a06; stroke-width: 1; stroke-opacity: 1.00; stroke-linecap: round; stroke-linejoin: round;" id="ezcGraphLine_146"/><path d=" M 476.4643,405.0000 L 476.4643,359.2100 L 511.9664,363.6750 L 511.9664,405.0000 L 476.4643,405.0000 z " style="fill: #4e9a06; fill-opacity: 0.10; stroke: none;" id="ezcGraphPolygon_147"/><path d=" M 476.4643,359.2100 L 511.9664,363.6750" style="fill: none; stroke: #4e9a06; stroke-width: 1; stroke-opacity: 1.00; stroke-linecap: round; stroke-linejoin: round;" id="ezcGraphLine_148"/><path d=" M 511.9664,405.0000 L 511.9664,363.6750 L 547.4685,356.2650 L 547.4685,405.0000 L 511.9664,405.0000 z " style="fill: #4e9a06; fill-opacity: 0.10; stroke: none;" id="ezcGraphPolygon_149"/><path d=" M 511.9664,363.6750 L 547.4685,356.2650" style="fill: none; stroke: #4e9a06; stroke-width: 1; stroke-opacity: 1.00; stroke-linecap: round; stroke-linejoin: round;" id="ezcGraphLine_150"/><path d=" M 547.4685,405.0000 L 547.4685,356.2650 L 582.9706,375.6450 L 582.9706,405.0000 L 547.4685,405.0000 z " style="fill: #4e9a06; fill-opacity: 0.10; stroke: none;" id="ezcGraphPolygon_151"/><path d=" M 547.4685,356.2650 L 582.9706,375.6450" style="fill: none; stroke: #4e9a06; stroke-width: 1; stroke-opacity: 1.00; stroke-linecap: round; stroke-linejoin: round;" id="ezcGraphLine_152"/><path d=" M 582.9706,405.0000 L 582.9706,375.6450 L 618.4727,300.8800 L 618.4727,405.0000 L 582.9706,405.0000 z " style="fill: #4e9a06; fill-opacity: 0.10; stroke: none;" id="ezcGraphPolygon_153"/><path d=" M 582.9706,375.6450 L 618.4727,300.8800" style="fill: none; stroke: #4e9a06; stroke-width: 1; stroke-opacity: 1.00; stroke-linecap: round; stroke-linejoin: round;" id="ezcGraphLine_154"/><path d=" M 618.4727,405.0000 L 618.4727,300.8800 L 653.9748,323.4900 L 653.9748,405.0000 L 618.4727,405.0000 z " style="fill: #4e9a06; fill-opacity: 0.10; stroke: none;" id="ezcGraphPolygon_155"/><path d=" M 618.4727,300.8800 L 653.9748,323.4900" style="fill: none; stroke: #4e9a06; stroke-width: 1; stroke-opacity: 1.00; stroke-linecap: round; stroke-linejoin: round;" id="ezcGraphLine_156"/><path d=" M 653.9748,405.0000 L 653.9748,323.4900 L 689.4769,382.8650 L 689.4769,405.0000 L 653.9748,405.0000 z " style="fill: #4e9a06; fill-opacity: 0.10; stroke: none;" id="ezcGraphPolygon_157"/><path d=" M 653.9748,323.4900 L 689.4769,382.8650" style="fill: none; stroke: #4e9a06; stroke-width: 1; stroke-opacity: 1.00; stroke-linecap: round; stroke-linejoin: round;" id="ezcGraphLine_158"/><path d=" M 689.4769,405.0000 L 689.4769,382.8650 L 724.9790,378.2100 L 724.9790,405.0000 L 689.4769,405.0000 z " style="fill: #4e9a06; fill-opacity: 0.10; stroke: none;" id="ezcGraphPolygon_159"/><path d=" M 689.4769,382.8650 L 724.9790,378.2100" style="fill: none; stroke: #4e9a06; stroke-width: 1; stroke-opacity: 1.00; stroke-linecap: round; stroke-linejoin: round;" id="ezcGraphLine_160"/><path d=" M 724.9790,405.0000 L 724.9790,378.2100 L 760.4811,405.0000 L 760.4811,405.0000 L 724.9790,405.0000 z " style="fill: #4e9a06; fill-opacity: 0.10; stroke: none;" id="ezcGraphPolygon_161"/><path d=" M 724.9790,378.2100 L 760.4811,405.0000" style="fill: none; stroke: #4e9a06; stroke-width: 1; stroke-opacity: 1.00; stroke-linecap: round; stroke-linejoin: round;" id="ezcGraphLine_162"/><path d=" M 760.4811,405.0000 L 760.4811,405.0000 L 795.9832,405.0000 L 795.9832,405.0000 L 760.4811,405.0000 z " style="fill: #4e9a06; fill-opacity: 0.10; stroke: none;" id="ezcGraphPolygon_163"/><path d=" M 760.4811,405.0000 L 795.9832,405.0000" style="fill: none; stroke: #4e9a06; stroke-width: 1; stroke-opacity: 1.00; stroke-linecap: round; stroke-linejoin: round;" id="ezcGraphLine_164"/><path d=" M 795.9832,405.0000 L 795.9832,405.0000 L 831.4853,405.0000 L 831.4853,405.0000 L 795.9832,405.0000 z " style="fill: #4e9a06; fill-opacity: 0.10; stroke: none;" id="ezcGraphPolygon_165"/><path d=" M 795.9832,405.0000 L 831.4853,405.0000" style="fill: none; stroke: #4e9a06; stroke-width: 1; stroke-opacity: 1.00; stroke-linecap: round; stroke-linejoin: round;" id="ezcGraphLine_166"/><path d=" M 831.4853,405.0000 L 831.4853,405.0000 L 866.9874,405.0000 L 866.9874,405.0000 L 831.4853,405.0000 z " style="fill: #4e9a06; fill-opacity: 0.10; stroke: none;" id="ezcGraphPolygon_167"/><path d=" M 831.4853,405.0000 L 866.9874,405.0000" style="fill: none; stroke: #4e9a06; stroke-width: 1; stroke-opacity: 1.00; stroke-linecap: round; stroke-linejoin: round;" id="ezcGraphLine_168"/><path d=" M 866.9874,405.0000 L 866.9874,405.0000 L 902.4895,405.0000 L 902.4895,405.0000 L 866.9874,405.0000 z " style="fill: #4e9a06; fill-opacity: 0.10; stroke: none;" id="ezcGraphPolygon_169"/><path d=" M 866.9874,405.0000 L 902.4895,405.0000" style="fill: none; stroke: #4e9a06; stroke-width: 1; stroke-opacity: 1.00; stroke-linecap: round; stroke-linejoin: round;" id="ezcGraphLine_170"/><path d=" M 902.4895,405.0000 L 902.4895,405.0000 L 937.9916,405.0000 L 937.9916,405.0000 L 902.4895,405.0000 z " style="fill: #4e9a06; fill-opacity: 0.10; stroke: none;" id="ezcGraphPolygon_171"/><path d=" M 902.4895,405.0000 L 937.9916,405.0000" style="fill: none; stroke: #4e9a06; stroke-width: 1; stroke-opacity: 1.00; stroke-linecap: round; stroke-linejoin: round;" id="ezcGraphLine_172"/><path d=" M 937.9916,405.0000 L 937.9916,405.0000 L 973.4937,394.3600 L 973.4937,405.0000 L 937.9916,405.0000 z " style="fill: #4e9a06; fill-opacity: 0.10; stroke: none;" id="ezcGraphPolygon_173"/><path d=" M 937.9916,405.0000 L 973.4937,394.3600" style="fill: none; stroke: #4e9a06; stroke-width: 1; stroke-opacity: 1.00; stroke-linecap: round; stroke-linejoin: round;" id="ezcGraphLine_174"/><path d=" M 973.4937,405.0000 L 973.4937,394.3600 L 1008.9958,388.3750 L 1008.9958,405.0000 L 973.4937,405.0000 z " style="fill: #4e9a06; fill-opacity: 0.10; stroke: none;" id="ezcGraphPolygon_175"/><path d=" M 973.4937,394.3600 L 1008.9958,388.3750" style="fill: none; stroke: #4e9a06; stroke-width: 1; stroke-opacity: 1.00; stroke-linecap: round; stroke-linejoin: round;" id="ezcGraphLine_176"/><path d=" M 1008.9958,405.0000 L 1008.9958,388.3750 L 1044.4979,398.5400 L 1044.4979,405.0000 L 1008.9958,405.0000 z " style="fill: #4e9a06; fill-opacity: 0.10; stroke: none;" id="ezcGraphPolygon_177"/><path d=" M 1008.9958,388.3750 L 1044.4979,398.5400" style="fill: none; stroke: #4e9a06; stroke-width: 1; stroke-opacity: 1.00; stroke-linecap: round; stroke-linejoin: round;" id="ezcGraphLine_178"/><path d=" M 1044.4979,405.0000 L 1044.4979,398.5400 L 1080.0000,404.8100 L 1080.0000,405.0000 L 1044.4979,405.0000 z " style="fill: #4e9a06; fill-opacity: 0.10; stroke: none;" id="ezcGraphPolygon_179"/><path d=" M 1044.4979,398.5400 L 1080.0000,404.8100" style="fill: none; stroke: #4e9a06; stroke-width: 1; stroke-opacity: 1.00; stroke-linecap: round; stroke-linejoin: round;" id="ezcGraphLine_180"/><g id="ezcGraphTextBox_5"><path d=" M 16.5000,17.0000 L 16.5000,1.5000 L 84.7800,1.5000 L 84.7800,17.0000 L 16.5000,17.0000 z " style="fill: #ffffff; fill-opacity: 0.00; stroke: none;" id="ezcGraphPolygon_181"/><text id="ezcGraphTextBox_5_text" x="17.0000" text-length="66.7800px" y="13.9000" style="font-size: 14px; font-family: 'sans-serif'; fill: #2e3436; fill-opacity: 1.00; stroke: none;">Einnahmen</text></g><g id="ezcGraphTextBox_8"><path d=" M 615.5000,17.0000 L 615.5000,1.5000 L 676.3600,1.5000 L 676.3600,17.0000 L 615.5000,17.0000 z " style="fill: #ffffff; fill-opacity: 0.00; stroke: none;" id="ezcGraphPolygon_182"/><text id="ezcGraphTextBox_8_text" x="616.0000" text-length="59.3600px" y="13.9000" style="font-size: 14px; font-family: 'sans-serif'; fill: #2e3436; fill-opacity: 1.00; stroke: none;">Ausgaben</text></g><g id="ezcGraphTextBox_11" transform="rotate( -85.00 121.4433 405.0000 )"><path d=" M 31.9033,430.0000 L 31.9033,404.5000 L 122.4433,404.5000 L 122.4433,430.0000 L 31.9033,430.0000 z " style="fill: #ffffff; fill-opacity: 0.00; stroke: none;" id="ezcGraphPolygon_183"/><text id="ezcGraphTextBox_11_text" x="32.4033" text-length="89.0400px" y="425.4000" style="font-size: 24px; font-family: 'sans-serif'; fill: #2e3436; fill-opacity: 1.00; stroke: none;">2010-01</text></g><g id="ezcGraphTextBox_14" transform="rotate( -85.00 227.9496 405.0000 )"><path d=" M 138.4096,430.0000 L 138.4096,404.5000 L 228.9496,404.5000 L 228.9496,430.0000 L 138.4096,430.0000 z " style="fill: #ffffff; fill-opacity: 0.00; stroke: none;" id="ezcGraphPolygon_184"/><text id="ezcGraphTextBox_14_text" x="138.9096" text-length="89.0400px" y="425.4000" style="font-size: 24px; font-family: 'sans-serif'; fill: #2e3436; fill-opacity: 1.00; stroke: none;">2010-04</text></g><g id="ezcGraphTextBox_17" transform="rotate( -85.00 334.4559 405.0000 )"><path d=" M 244.9159,430.0000 L 244.9159,404.5000 L 335.4559,404.5000 L 335.4559,430.0000 L 244.9159,430.0000 z " style="fill: #ffffff; fill-opacity: 0.00; stroke: none;" id="ezcGraphPolygon_185"/><text id="ezcGraphTextBox_17_text" x="245.4159" text-length="89.0400px" y="425.4000" style="font-size: 24px; font-family: 'sans-serif'; fill: #2e3436; fill-opacity: 1.00; stroke: none;">2010-07</text></g><g id="ezcGraphTextBox_20" transform="rotate( -85.00 440.9622 405.0000 )"><path d=" M 351.4222,430.0000 L 351.4222,404.5000 L 441.9622,404.5000 L 441.9622,430.0000 L 351.4222,430.0000 z " style="fill: #ffffff; fill-opacity: 0.00; stroke: none;" id="ezcGraphPolygon_186"/><text id="ezcGraphTextBox_20_text" x="351.9222" text-length="89.0400px" y="425.4000" style="font-size: 24px; font-family: 'sans-serif'; fill: #2e3436; fill-opacity: 1.00; stroke: none;">2010-10</text></g><g id="ezcGraphTextBox_23" transform="rotate( -85.00 547.4685 405.0000 )"><path d=" M 457.9285,430.0000 L 457.9285,404.5000 L 548.4685,404.5000 L 548.4685,430.0000 L 457.9285,430.0000 z " style="fill: #ffffff; fill-opacity: 0.00; stroke: none;" id="ezcGraphPolygon_187"/><text id="ezcGraphTextBox_23_text" x="458.4285" text-length="89.0400px" y="425.4000" style="font-size: 24px; font-family: 'sans-serif'; fill: #2e3436; fill-opacity: 1.00; stroke: none;">2011-01</text></g><g id="ezcGraphTextBox_26" transform="rotate( -85.00 653.9748 405.0000 )"><path d=" M 564.4348,430.0000 L 564.4348,404.5000 L 654.9748,404.5000 L 654.9748,430.0000 L 564.4348,430.0000 z " style="fill: #ffffff; fill-opacity: 0.00; stroke: none;" id="ezcGraphPolygon_188"/><text id="ezcGraphTextBox_26_text" x="564.9348" text-length="89.0400px" y="425.4000" style="font-size: 24px; font-family: 'sans-serif'; fill: #2e3436; fill-opacity: 1.00; stroke: none;">2011-04</text></g><g id="ezcGraphTextBox_29" transform="rotate( -85.00 760.4811 405.0000 )"><path d=" M 670.9411,430.0000 L 670.9411,404.5000 L 761.4811,404.5000 L 761.4811,430.0000 L 670.9411,430.0000 z " style="fill: #ffffff; fill-opacity: 0.00; stroke: none;" id="ezcGraphPolygon_189"/><text id="ezcGraphTextBox_29_text" x="671.4411" text-length="89.0400px" y="425.4000" style="font-size: 24px; font-family: 'sans-serif'; fill: #2e3436; fill-opacity: 1.00; stroke: none;">2011-07</text></g><g id="ezcGraphTextBox_32" transform="rotate( -85.00 866.9874 405.0000 )"><path d=" M 777.4474,430.0000 L 777.4474,404.5000 L 867.9874,404.5000 L 867.9874,430.0000 L 777.4474,430.0000 z " style="fill: #ffffff; fill-opacity: 0.00; stroke: none;" id="ezcGraphPolygon_190"/><text id="ezcGraphTextBox_32_text" x="777.9474" text-length="89.0400px" y="425.4000" style="font-size: 24px; font-family: 'sans-serif'; fill: #2e3436; fill-opacity: 1.00; stroke: none;">2011-10</text></g><g id="ezcGraphTextBox_35" transform="rotate( -85.00 973.4937 405.0000 )"><path d=" M 883.9537,430.0000 L 883.9537,404.5000 L 974.4937,404.5000 L 974.4937,430.0000 L 883.9537,430.0000 z " style="fill: #ffffff; fill-opacity: 0.00; stroke: none;" id="ezcGraphPolygon_191"/><text id="ezcGraphTextBox_35_text" x="884.4537" text-length="89.0400px" y="425.4000" style="font-size: 24px; font-family: 'sans-serif'; fill: #2e3436; fill-opacity: 1.00; stroke: none;">2012-01</text></g><g id="ezcGraphTextBox_38" transform="rotate( -85.00 1080.0000 405.0000 )"><path d=" M 990.4600,430.0000 L 990.4600,404.5000 L 1081.0000,404.5000 L 1081.0000,430.0000 L 990.4600,430.0000 z " style="fill: #ffffff; fill-opacity: 0.00; stroke: none;" id="ezcGraphPolygon_192"/><text id="ezcGraphTextBox_38_text" x="990.9600" text-length="89.0400px" y="425.4000" style="font-size: 24px; font-family: 'sans-serif'; fill: #2e3436; fill-opacity: 1.00; stroke: none;">2012-04</text></g><g id="ezcGraphTextBox_43"><path d=" M 102.6200,404.0000 L 102.6200,378.5000 L 119.0000,378.5000 L 119.0000,404.0000 L 102.6200,404.0000 z " style="fill: #ffffff; fill-opacity: 0.00; stroke: none;" id="ezcGraphPolygon_193"/><text id="ezcGraphTextBox_43_text" x="103.1200" text-length="14.8800px" y="399.4000" style="font-size: 24px; font-family: 'sans-serif'; fill: #2e3436; fill-opacity: 1.00; stroke: none;">0</text></g><g id="ezcGraphTextBox_52"><path d=" M 57.9800,309.0000 L 57.9800,283.5000 L 119.0000,283.5000 L 119.0000,309.0000 L 57.9800,309.0000 z " style="fill: #ffffff; fill-opacity: 0.00; stroke: none;" id="ezcGraphPolygon_194"/><text id="ezcGraphTextBox_52_text" x="58.4800" text-length="59.5200px" y="304.4000" style="font-size: 24px; font-family: 'sans-serif'; fill: #2e3436; fill-opacity: 1.00; stroke: none;">1000</text></g><g id="ezcGraphTextBox_61"><path d=" M 57.9800,214.0000 L 57.9800,188.5000 L 119.0000,188.5000 L 119.0000,214.0000 L 57.9800,214.0000 z " style="fill: #ffffff; fill-opacity: 0.00; stroke: none;" id="ezcGraphPolygon_195"/><text id="ezcGraphTextBox_61_text" x="58.4800" text-length="59.5200px" y="209.4000" style="font-size: 24px; font-family: 'sans-serif'; fill: #2e3436; fill-opacity: 1.00; stroke: none;">2000</text></g><g id="ezcGraphTextBox_70"><path d=" M 57.9800,147.0000 L 57.9800,121.5000 L 119.0000,121.5000 L 119.0000,147.0000 L 57.9800,147.0000 z " style="fill: #ffffff; fill-opacity: 0.00; stroke: none;" id="ezcGraphPolygon_196"/><text id="ezcGraphTextBox_70_text" x="58.4800" text-length="59.5200px" y="142.4000" style="font-size: 24px; font-family: 'sans-serif'; fill: #2e3436; fill-opacity: 1.00; stroke: none;">3000</text></g></g></svg>
