<?xml version="1.0"?>
<svg xmlns="http://www.w3.org/2000/svg" width="1200" height="500" version="1.0" id="ezcGraph"><defs><linearGradient id="Definition_LinearGradient_3_3_14_14_4e98f600_1a335200"><stop offset="0" style="stop-color: #4e98f6; stop-opacity: 1.00;"/><stop offset="1" style="stop-color: #1a3352; stop-opacity: 1.00;"/></linearGradient><linearGradient xmlns:xlink="http://www.w3.org/1999/xlink" id="LinearGradient_3_3_14_14_4e98f600_1a335200" x1="3.4000" y1="3.4000" x2="14.6000" y2="14.6000" gradientUnits="userSpaceOnUse" xlink:href="#Definition_LinearGradient_3_3_14_14_4e98f600_1a335200"/><linearGradient id="Definition_LinearGradient_602_3_613_14_75e70900_274d0300"><stop offset="0" style="stop-color: #75e709; stop-opacity: 1.00;"/><stop offset="1" style="stop-color: #274d03; stop-opacity: 1.00;"/></linearGradient><linearGradient xmlns:xlink="http://www.w3.org/1999/xlink" id="LinearGradient_602_3_613_14_75e70900_274d0300" x1="602.4000" y1="3.4000" x2="613.6000" y2="14.6000" gradientUnits="userSpaceOnUse" xlink:href="#Definition_LinearGradient_602_3_613_14_75e70900_274d0300"/></defs><g id="ezcGraphChart" color-rendering="optimizeQuality" shape-rendering="geometricPrecision" text-rendering="optimizeLegibility"><path d=" M 0.0000,500.0000 L 0.0000,0.0000 L 1200.0000,0.0000 L 1200.0000,500.0000 L 0.0000,500.0000 z " style="fill: #eeeeec; fill-opacity: 1.00; stroke: none;" id="ezcGraphPolygon_1"/><path d=" M 0.0000,25.0000 L 0.0000,0.0000 L 1200.0000,0.0000 L 1200.0000,25.0000 L 0.0000,25.0000 z " style="fill: #000000; fill-opacity: 0.00; stroke: none;" id="ezcGraphPolygon_2"/><path d=" M 2.0000,16.0000 L 2.0000,2.0000 L 16.0000,2.0000 L 16.0000,16.0000 L 2.0000,16.0000 z " style="fill: #3465a4; fill-opacity: 1.00; stroke: none;" id="ezcGraphPolygon_3"/><path d=" M 14.6000,3.4000 L 14.6000,14.6000 L 3.4000,14.6000 L 3.4000,3.4000 L 14.6000,3.4000 z " style="fill: url(#LinearGradient_3_3_14_14_4e98f600_1a335200); stroke: none;" id="ezcGraphPolygon_4"/><path d=" M 601.0000,16.0000 L 601.0000,2.0000 L 615.0000,2.0000 L 615.0000,16.0000 L 601.0000,16.0000 z " style="fill: #4e9a06; fill-opacity: 1.00; stroke: none;" id="ezcGraphPolygon_6"/><path d=" M 613.6000,3.4000 L 613.6000,14.6000 L 602.4000,14.6000 L 602.4000,3.4000 L 613.6000,3.4000 z " style="fill: url(#LinearGradient_602_3_613_14_75e70900_274d0300); stroke: none;" id="ezcGraphPolygon_7"/><path d=" M 0.0000,405.0000 L 1200.0000,405.0000" style="fill: none; stroke: #2e3436; stroke-width: 1; stroke-opacity: 1.00; stroke-linecap: round; stroke-linejoin: round;" id="ezcGraphLine_9"/><path d=" M 1192.0000,401.0000 L 1200.0000,405.0000 L 1192.0000,409.0000 L 1192.0000,401.0000 z " style="fill: #2e3436; fill-opacity: 1.00; stroke: none;" id="ezcGraphPolygon_10"/><path d=" M 121.4433,120.0000 L 121.4433,405.0000" style="fill: none; stroke: #000000; stroke-width: 1; stroke-opacity: 0.00; stroke-linecap: round; stroke-linejoin: round;" id="ezcGraphLine_12"/><path d=" M 121.4433,402.0000 L 121.4433,405.0000" style="fill: none; stroke: #2e3436; stroke-width: 1; stroke-opacity: 1.00; stroke-linecap: round; stroke-linejoin: round;" id="ezcGraphLine_13"/><path d=" M 258.3799,120.0000 L 258.3799,405.0000" style="fill: none; stroke: #000000; stroke-width: 1; stroke-opacity: 0.00; stroke-linecap: round; stroke-linejoin: round;" id="ezcGraphLine_15"/><path d=" M 258.3799,402.0000 L 258.3799,405.0000" style="fill: none; stroke: #2e3436; stroke-width: 1; stroke-opacity: 1.00; stroke-linecap: round; stroke-linejoin: round;" id="ezcGraphLine_16"/><path d=" M 395.3166,120.0000 L 395.3166,405.0000" style="fill: none; stroke: #000000; stroke-width: 1; stroke-opacity: 0.00; stroke-linecap: round; stroke-linejoin: round;" id="ezcGraphLine_18"/><path d=" M 395.3166,402.0000 L 395.3166,405.0000" style="fill: none; stroke: #2e3436; stroke-width: 1; stroke-opacity: 1.00; stroke-linecap: round; stroke-linejoin: round;" id="ezcGraphLine_19"/><path d=" M 532.2533,120.0000 L 532.2533,405.0000" style="fill: none; stroke: #000000; stroke-width: 1; stroke-opacity: 0.00; stroke-linecap: round; stroke-linejoin: round;" id="ezcGraphLine_21"/><path d=" M 532.2533,402.0000 L 532.2533,405.0000" style="fill: none; stroke: #2e3436; stroke-width: 1; stroke-opacity: 1.00; stroke-linecap: round; stroke-linejoin: round;" id="ezcGraphLine_22"/><path d=" M 669.1900,120.0000 L 669.1900,405.0000" style="fill: none; stroke: #000000; stroke-width: 1; stroke-opacity: 0.00; stroke-linecap: round; stroke-linejoin: round;" id="ezcGraphLine_24"/><path d=" M 669.1900,402.0000 L 669.1900,405.0000" style="fill: none; stroke: #2e3436; stroke-width: 1; stroke-opacity: 1.00; stroke-linecap: round; stroke-linejoin: round;" id="ezcGraphLine_25"/><path d=" M 806.1266,120.0000 L 806.1266,405.0000" style="fill: none; stroke: #000000; stroke-width: 1; stroke-opacity: 0.00; stroke-linecap: round; stroke-linejoin: round;" id="ezcGraphLine_27"/><path d=" M 806.1266,402.0000 L 806.1266,405.0000" style="fill: none; stroke: #2e3436; stroke-width: 1; stroke-opacity: 1.00; stroke-linecap: round; stroke-linejoin: round;" id="ezcGraphLine_28"/><path d=" M 943.0633,120.0000 L 943.0633,405.0000" style="fill: none; stroke: #000000; stroke-width: 1; stroke-opacity: 0.00; stroke-linecap: round; stroke-linejoin: round;" id="ezcGraphLine_30"/><path d=" M 943.0633,402.0000 L 943.0633,405.0000" style="fill: none; stroke: #2e3436; stroke-width: 1; stroke-opacity: 1.00; stroke-linecap: round; stroke-linejoin: round;" id="ezcGraphLine_31"/><path d=" M 1080.0000,120.0000 L 1080.0000,405.0000" style="fill: none; stroke: #000000; stroke-width: 1; stroke-opacity: 0.00; stroke-linecap: round; stroke-linejoin: round;" id="ezcGraphLine_33"/><path d=" M 1080.0000,402.0000 L 1080.0000,405.0000" style="fill: none; stroke: #2e3436; stroke-width: 1; stroke-opacity: 1.00; stroke-linecap: round; stroke-linejoin: round;" id="ezcGraphLine_34"/><path d=" M 120.0000,500.0000 L 120.0000,25.0000" style="fill: none; stroke: #2e3436; stroke-width: 1; stroke-opacity: 1.00; stroke-linecap: round; stroke-linejoin: round;" id="ezcGraphLine_35"/><path d=" M 116.0000,33.0000 L 120.0000,25.0000 L 124.0000,33.0000 L 116.0000,33.0000 z " style="fill: #2e3436; fill-opacity: 1.00; stroke: none;" id="ezcGraphPolygon_36"/><path d=" M 120.0000,386.0000 L 1080.0000,386.0000" style="fill: none; stroke: #000000; stroke-width: 1; stroke-opacity: 0.00; stroke-linecap: round; stroke-linejoin: round;" id="ezcGraphLine_38"/><path d=" M 120.0000,386.0000 L 121.0000,386.0000" style="fill: none; stroke: #2e3436; stroke-width: 1; stroke-opacity: 1.00; stroke-linecap: round; stroke-linejoin: round;" id="ezcGraphLine_39"/><path d=" M 120.0000,367.0000 L 1080.0000,367.0000" style="fill: none; stroke: #000000; stroke-width: 1; stroke-opacity: 0.00; stroke-linecap: round; stroke-linejoin: round;" id="ezcGraphLine_40"/><path d=" M 120.0000,367.0000 L 121.0000,367.0000" style="fill: none; stroke: #2e3436; stroke-width: 1; stroke-opacity: 1.00; stroke-linecap: round; stroke-linejoin: round;" id="ezcGraphLine_41"/><path d=" M 120.0000,348.0000 L 1080.0000,348.0000" style="fill: none; stroke: #000000; stroke-width: 1; stroke-opacity: 0.00; stroke-linecap: round; stroke-linejoin: round;" id="ezcGraphLine_42"/><path d=" M 120.0000,348.0000 L 121.0000,348.0000" style="fill: none; stroke: #2e3436; stroke-width: 1; stroke-opacity: 1.00; stroke-linecap: round; stroke-linejoin: round;" id="ezcGraphLine_43"/><path d=" M 120.0000,329.0000 L 1080.0000,329.0000" style="fill: none; stroke: #000000; stroke-width: 1; stroke-opacity: 0.00; stroke-linecap: round; stroke-linejoin: round;" id="ezcGraphLine_44"/><path d=" M 120.0000,329.0000 L 121.0000,329.0000" style="fill: none; stroke: #2e3436; stroke-width: 1; stroke-opacity: 1.00; stroke-linecap: round; stroke-linejoin: round;" id="ezcGraphLine_45"/><path d=" M 120.0000,310.0000 L 1080.0000,310.0000" style="fill: none; stroke: #000000; stroke-width: 1; stroke-opacity: 0.00; stroke-linecap: round; stroke-linejoin: round;" id="ezcGraphLine_46"/><path d=" M 120.0000,310.0000 L 123.0000,310.0000" style="fill: none; stroke: #2e3436; stroke-width: 1; stroke-opacity: 1.00; stroke-linecap: round; stroke-linejoin: round;" id="ezcGraphLine_47"/><path d=" M 120.0000,291.0000 L 1080.0000,291.0000" style="fill: none; stroke: #000000; stroke-width: 1; stroke-opacity: 0.00; stroke-linecap: round; stroke-linejoin: round;" id="ezcGraphLine_49"/><path d=" M 120.0000,291.0000 L 121.0000,291.0000" style="fill: none; stroke: #2e3436; stroke-width: 1; stroke-opacity: 1.00; stroke-linecap: round; stroke-linejoin: round;" id="ezcGraphLine_50"/><path d=" M 120.0000,272.0000 L 1080.0000,272.0000" style="fill: none; stroke: #000000; stroke-width: 1; stroke-opacity: 0.00; stroke-linecap: round; stroke-linejoin: round;" id="ezcGraphLine_51"/><path d=" M 120.0000,272.0000 L 121.0000,272.0000" style="fill: none; stroke: #2e3436; stroke-width: 1; stroke-opacity: 1.00; stroke-linecap: round; stroke-linejoin: round;" id="ezcGraphLine_52"/><path d=" M 120.0000,253.0000 L 1080.0000,253.0000" style="fill: none; stroke: #000000; stroke-width: 1; stroke-opacity: 0.00; stroke-linecap: round; stroke-linejoin: round;" id="ezcGraphLine_53"/><path d=" M 120.0000,253.0000 L 121.0000,253.0000" style="fill: none; stroke: #2e3436; stroke-width: 1; stroke-opacity: 1.00; stroke-linecap: round; stroke-linejoin: round;" id="ezcGraphLine_54"/><path d=" M 120.0000,234.0000 L 1080.0000,234.0000" style="fill: none; stroke: #000000; stroke-width: 1; stroke-opacity: 0.00; stroke-linecap: round; stroke-linejoin: round;" id="ezcGraphLine_55"/><path d=" M 120.0000,234.0000 L 121.0000,234.0000" style="fill: none; stroke: #2e3436; stroke-width: 1; stroke-opacity: 1.00; stroke-linecap: round; stroke-linejoin: round;" id="ezcGraphLine_56"/><path d=" M 120.0000,215.0000 L 1080.0000,215.0000" style="fill: none; stroke: #000000; stroke-width: 1; stroke-opacity: 0.00; stroke-linecap: round; stroke-linejoin: round;" id="ezcGraphLine_57"/><path d=" M 120.0000,215.0000 L 123.0000,215.0000" style="fill: none; stroke: #2e3436; stroke-width: 1; stroke-opacity: 1.00; stroke-linecap: round; stroke-linejoin: round;" id="ezcGraphLine_58"/><path d=" M 120.0000,196.0000 L 1080.0000,196.0000" style="fill: none; stroke: #000000; stroke-width: 1; stroke-opacity: 0.00; stroke-linecap: round; stroke-linejoin: round;" id="ezcGraphLine_60"/><path d=" M 120.0000,196.0000 L 121.0000,196.0000" style="fill: none; stroke: #2e3436; stroke-width: 1; stroke-opacity: 1.00; stroke-linecap: round; stroke-linejoin: round;" id="ezcGraphLine_61"/><path d=" M 120.0000,177.0000 L 1080.0000,177.0000" style="fill: none; stroke: #000000; stroke-width: 1; stroke-opacity: 0.00; stroke-linecap: round; stroke-linejoin: round;" id="ezcGraphLine_62"/><path d=" M 120.0000,177.0000 L 121.0000,177.0000" style="fill: none; stroke: #2e3436; stroke-width: 1; stroke-opacity: 1.00; stroke-linecap: round; stroke-linejoin: round;" id="ezcGraphLine_63"/><path d=" M 120.0000,158.0000 L 1080.0000,158.0000" style="fill: none; stroke: #000000; stroke-width: 1; stroke-opacity: 0.00; stroke-linecap: round; stroke-linejoin: round;" id="ezcGraphLine_64"/><path d=" M 120.0000,158.0000 L 121.0000,158.0000" style="fill: none; stroke: #2e3436; stroke-width: 1; stroke-opacity: 1.00; stroke-linecap: round; stroke-linejoin: round;" id="ezcGraphLine_65"/><path d=" M 120.0000,139.0000 L 1080.0000,139.0000" style="fill: none; stroke: #000000; stroke-width: 1; stroke-opacity: 0.00; stroke-linecap: round; stroke-linejoin: round;" id="ezcGraphLine_66"/><path d=" M 120.0000,139.0000 L 121.0000,139.0000" style="fill: none; stroke: #2e3436; stroke-width: 1; stroke-opacity: 1.00; stroke-linecap: round; stroke-linejoin: round;" id="ezcGraphLine_67"/><path d=" M 120.0000,120.0000 L 1080.0000,120.0000" style="fill: none; stroke: #000000; stroke-width: 1; stroke-opacity: 0.00; stroke-linecap: round; stroke-linejoin: round;" id="ezcGraphLine_68"/><path d=" M 120.0000,120.0000 L 123.0000,120.0000" style="fill: none; stroke: #2e3436; stroke-width: 1; stroke-opacity: 1.00; stroke-linecap: round; stroke-linejoin: round;" id="ezcGraphLine_69"/><path d=" M 121.4433,405.0000 L 121.4433,405.0000" style="fill: none; stroke: #3465a4; stroke-width: 1; stroke-opacity: 1.00; stroke-linecap: round; stroke-linejoin: round;" id="ezcGraphLine_71"/><path d=" M 121.4433,405.0000 L 121.4433,405.0000 L 155.6774,405.0000 L 155.6774,405.0000 L 121.4433,405.0000 z " style="fill: #3465a4; fill-opacity: 0.10; stroke: none;" id="ezcGraphPolygon_72"/><path d=" M 121.4433,405.0000 L 155.6774,405.0000" style="fill: none; stroke: #3465a4; stroke-width: 1; stroke-opacity: 1.00; stroke-linecap: round; stroke-linejoin: round;" id="ezcGraphLine_73"/><path d=" M 155.6774,405.0000 L 155.6774,405.0000 L 189.9116,405.0000 L 189.9116,405.0000 L 155.6774,405.0000 z " style="fill: #3465a4; fill-opacity: 0.10; stroke: none;" id="ezcGraphPolygon_74"/><path d=" M 155.6774,405.0000 L 189.9116,405.0000" style="fill: none; stroke: #3465a4; stroke-width: 1; stroke-opacity: 1.00; stroke-linecap: round; stroke-linejoin: round;" id="ezcGraphLine_75"/><path d=" M 189.9116,405.0000 L 189.9116,405.0000 L 224.1458,405.0000 L 224.1458,405.0000 L 189.9116,405.0000 z " style="fill: #3465a4; fill-opacity: 0.10; stroke: none;" id="ezcGraphPolygon_76"/><path d=" M 189.9116,405.0000 L 224.1458,405.0000" style="fill: none; stroke: #3465a4; stroke-width: 1; stroke-opacity: 1.00; stroke-linecap: round; stroke-linejoin: round;" id="ezcGraphLine_77"/><path d=" M 224.1458,405.0000 L 224.1458,405.0000 L 258.3799,405.0000 L 258.3799,405.0000 L 224.1458,405.0000 z " style="fill: #3465a4; fill-opacity: 0.10; stroke: none;" id="ezcGraphPolygon_78"/><path d=" M 224.1458,405.0000 L 258.3799,405.0000" style="fill: none; stroke: #3465a4; stroke-width: 1; stroke-opacity: 1.00; stroke-linecap: round; stroke-linejoin: round;" id="ezcGraphLine_79"/><path d=" M 258.3799,405.0000 L 258.3799,405.0000 L 292.6141,405.0000 L 292.6141,405.0000 L 258.3799,405.0000 z " style="fill: #3465a4; fill-opacity: 0.10; stroke: none;" id="ezcGraphPolygon_80"/><path d=" M 258.3799,405.0000 L 292.6141,405.0000" style="fill: none; stroke: #3465a4; stroke-width: 1; stroke-opacity: 1.00; stroke-linecap: round; stroke-linejoin: round;" id="ezcGraphLine_81"/><path d=" M 292.6141,405.0000 L 292.6141,405.0000 L 326.8483,405.0000 L 326.8483,405.0000 L 292.6141,405.0000 z " style="fill: #3465a4; fill-opacity: 0.10; stroke: none;" id="ezcGraphPolygon_82"/><path d=" M 292.6141,405.0000 L 326.8483,405.0000" style="fill: none; stroke: #3465a4; stroke-width: 1; stroke-opacity: 1.00; stroke-linecap: round; stroke-linejoin: round;" id="ezcGraphLine_83"/><path d=" M 326.8483,405.0000 L 326.8483,405.0000 L 361.0824,405.0000 L 361.0824,405.0000 L 326.8483,405.0000 z " style="fill: #3465a4; fill-opacity: 0.10; stroke: none;" id="ezcGraphPolygon_84"/><path d=" M 326.8483,405.0000 L 361.0824,405.0000" style="fill: none; stroke: #3465a4; stroke-width: 1; stroke-opacity: 1.00; stroke-linecap: round; stroke-linejoin: round;" id="ezcGraphLine_85"/><path d=" M 361.0824,405.0000 L 361.0824,405.0000 L 395.3166,405.0000 L 395.3166,405.0000 L 361.0824,405.0000 z " style="fill: #3465a4; fill-opacity: 0.10; stroke: none;" id="ezcGraphPolygon_86"/><path d=" M 361.0824,405.0000 L 395.3166,405.0000" style="fill: none; stroke: #3465a4; stroke-width: 1; stroke-opacity: 1.00; stroke-linecap: round; stroke-linejoin: round;" id="ezcGraphLine_87"/><path d=" M 395.3166,405.0000 L 395.3166,405.0000 L 429.5508,405.0000 L 429.5508,405.0000 L 395.3166,405.0000 z " style="fill: #3465a4; fill-opacity: 0.10; stroke: none;" id="ezcGraphPolygon_88"/><path d=" M 395.3166,405.0000 L 429.5508,405.0000" style="fill: none; stroke: #3465a4; stroke-width: 1; stroke-opacity: 1.00; stroke-linecap: round; stroke-linejoin: round;" id="ezcGraphLine_89"/><path d=" M 429.5508,405.0000 L 429.5508,405.0000 L 463.7850,372.0920 L 463.7850,405.0000 L 429.5508,405.0000 z " style="fill: #3465a4; fill-opacity: 0.10; stroke: none;" id="ezcGraphPolygon_90"/><path d=" M 429.5508,405.0000 L 463.7850,372.0920" style="fill: none; stroke: #3465a4; stroke-width: 1; stroke-opacity: 1.00; stroke-linecap: round; stroke-linejoin: round;" id="ezcGraphLine_91"/><path d=" M 463.7850,405.0000 L 463.7850,372.0920 L 498.0191,205.8420 L 498.0191,405.0000 L 463.7850,405.0000 z " style="fill: #3465a4; fill-opacity: 0.10; stroke: none;" id="ezcGraphPolygon_92"/><path d=" M 463.7850,372.0920 L 498.0191,205.8420" style="fill: none; stroke: #3465a4; stroke-width: 1; stroke-opacity: 1.00; stroke-linecap: round; stroke-linejoin: round;" id="ezcGraphLine_93"/><path d=" M 498.0191,405.0000 L 498.0191,205.8420 L 532.2533,405.0000 L 532.2533,405.0000 L 498.0191,405.0000 z " style="fill: #3465a4; fill-opacity: 0.10; stroke: none;" id="ezcGraphPolygon_94"/><path d=" M 498.0191,205.8420 L 532.2533,405.0000" style="fill: none; stroke: #3465a4; stroke-width: 1; stroke-opacity: 1.00; stroke-linecap: round; stroke-linejoin: round;" id="ezcGraphLine_95"/><path d=" M 532.2533,405.0000 L 532.2533,405.0000 L 566.4875,405.0000 L 566.4875,405.0000 L 532.2533,405.0000 z " style="fill: #3465a4; fill-opacity: 0.10; stroke: none;" id="ezcGraphPolygon_96"/><path d=" M 532.2533,405.0000 L 566.4875,405.0000" style="fill: none; stroke: #3465a4; stroke-width: 1; stroke-opacity: 1.00; stroke-linecap: round; stroke-linejoin: round;" id="ezcGraphLine_97"/><path d=" M 566.4875,405.0000 L 566.4875,405.0000 L 600.7216,405.0000 L 600.7216,405.0000 L 566.4875,405.0000 z " style="fill: #3465a4; fill-opacity: 0.10; stroke: none;" id="ezcGraphPolygon_98"/><path d=" M 566.4875,405.0000 L 600.7216,405.0000" style="fill: none; stroke: #3465a4; stroke-width: 1; stroke-opacity: 1.00; stroke-linecap: round; stroke-linejoin: round;" id="ezcGraphLine_99"/><path d=" M 600.7216,405.0000 L 600.7216,405.0000 L 634.9558,405.0000 L 634.9558,405.0000 L 600.7216,405.0000 z " style="fill: #3465a4; fill-opacity: 0.10; stroke: none;" id="ezcGraphPolygon_100"/><path d=" M 600.7216,405.0000 L 634.9558,405.0000" style="fill: none; stroke: #3465a4; stroke-width: 1; stroke-opacity: 1.00; stroke-linecap: round; stroke-linejoin: round;" id="ezcGraphLine_101"/><path d=" M 634.9558,405.0000 L 634.9558,405.0000 L 669.1900,405.0000 L 669.1900,405.0000 L 634.9558,405.0000 z " style="fill: #3465a4; fill-opacity: 0.10; stroke: none;" id="ezcGraphPolygon_102"/><path d=" M 634.9558,405.0000 L 669.1900,405.0000" style="fill: none; stroke: #3465a4; stroke-width: 1; stroke-opacity: 1.00; stroke-linecap: round; stroke-linejoin: round;" id="ezcGraphLine_103"/><path d=" M 669.1900,405.0000 L 669.1900,405.0000 L 703.4241,405.0000 L 703.4241,405.0000 L 669.1900,405.0000 z " style="fill: #3465a4; fill-opacity: 0.10; stroke: none;" id="ezcGraphPolygon_104"/><path d=" M 669.1900,405.0000 L 703.4241,405.0000" style="fill: none; stroke: #3465a4; stroke-width: 1; stroke-opacity: 1.00; stroke-linecap: round; stroke-linejoin: round;" id="ezcGraphLine_105"/><path d=" M 703.4241,405.0000 L 703.4241,405.0000 L 737.6583,405.0000 L 737.6583,405.0000 L 703.4241,405.0000 z " style="fill: #3465a4; fill-opacity: 0.10; stroke: none;" id="ezcGraphPolygon_106"/><path d=" M 703.4241,405.0000 L 737.6583,405.0000" style="fill: none; stroke: #3465a4; stroke-width: 1; stroke-opacity: 1.00; stroke-linecap: round; stroke-linejoin: round;" id="ezcGraphLine_107"/><path d=" M 737.6583,405.0000 L 737.6583,405.0000 L 771.8925,405.0000 L 771.8925,405.0000 L 737.6583,405.0000 z " style="fill: #3465a4; fill-opacity: 0.10; stroke: none;" id="ezcGraphPolygon_108"/><path d=" M 737.6583,405.0000 L 771.8925,405.0000" style="fill: none; stroke: #3465a4; stroke-width: 1; stroke-opacity: 1.00; stroke-linecap: round; stroke-linejoin: round;" id="ezcGraphLine_109"/><path d=" M 771.8925,405.0000 L 771.8925,405.0000 L 806.1266,405.0000 L 806.1266,405.0000 L 771.8925,405.0000 z " style="fill: #3465a4; fill-opacity: 0.10; stroke: none;" id="ezcGraphPolygon_110"/><path d=" M 771.8925,405.0000 L 806.1266,405.0000" style="fill: none; stroke: #3465a4; stroke-width: 1; stroke-opacity: 1.00; stroke-linecap: round; stroke-linejoin: round;" id="ezcGraphLine_111"/><path d=" M 806.1266,405.0000 L 806.1266,405.0000 L 840.3608,405.0000 L 840.3608,405.0000 L 806.1266,405.0000 z " style="fill: #3465a4; fill-opacity: 0.10; stroke: none;" id="ezcGraphPolygon_112"/><path d=" M 806.1266,405.0000 L 840.3608,405.0000" style="fill: none; stroke: #3465a4; stroke-width: 1; stroke-opacity: 1.00; stroke-linecap: round; stroke-linejoin: round;" id="ezcGraphLine_113"/><path d=" M 840.3608,405.0000 L 840.3608,405.0000 L 874.5950,400.5920 L 874.5950,405.0000 L 840.3608,405.0000 z " style="fill: #3465a4; fill-opacity: 0.10; stroke: none;" id="ezcGraphPolygon_114"/><path d=" M 840.3608,405.0000 L 874.5950,400.5920" style="fill: none; stroke: #3465a4; stroke-width: 1; stroke-opacity: 1.00; stroke-linecap: round; stroke-linejoin: round;" id="ezcGraphLine_115"/><path d=" M 874.5950,405.0000 L 874.5950,400.5920 L 908.8292,405.0000 L 908.8292,405.0000 L 874.5950,405.0000 z " style="fill: #3465a4; fill-opacity: 0.10; stroke: none;" id="ezcGraphPolygon_116"/><path d=" M 874.5950,400.5920 L 908.8292,405.0000" style="fill: none; stroke: #3465a4; stroke-width: 1; stroke-opacity: 1.00; stroke-linecap: round; stroke-linejoin: round;" id="ezcGraphLine_117"/><path d=" M 908.8292,405.0000 L 908.8292,405.0000 L 943.0633,405.0000 L 943.0633,405.0000 L 908.8292,405.0000 z " style="fill: #3465a4; fill-opacity: 0.10; stroke: none;" id="ezcGraphPolygon_118"/><path d=" M 908.8292,405.0000 L 943.0633,405.0000" style="fill: none; stroke: #3465a4; stroke-width: 1; stroke-opacity: 1.00; stroke-linecap: round; stroke-linejoin: round;" id="ezcGraphLine_119"/><path d=" M 943.0633,405.0000 L 943.0633,405.0000 L 977.2975,405.0000 L 977.2975,405.0000 L 943.0633,405.0000 z " style="fill: #3465a4; fill-opacity: 0.10; stroke: none;" id="ezcGraphPolygon_120"/><path d=" M 943.0633,405.0000 L 977.2975,405.0000" style="fill: none; stroke: #3465a4; stroke-width: 1; stroke-opacity: 1.00; stroke-linecap: round; stroke-linejoin: round;" id="ezcGraphLine_121"/><path d=" M 977.2975,405.0000 L 977.2975,405.0000 L 1011.5317,405.0000 L 1011.5317,405.0000 L 977.2975,405.0000 z " style="fill: #3465a4; fill-opacity: 0.10; stroke: none;" id="ezcGraphPolygon_122"/><path d=" M 977.2975,405.0000 L 1011.5317,405.0000" style="fill: none; stroke: #3465a4; stroke-width: 1; stroke-opacity: 1.00; stroke-linecap: round; stroke-linejoin: round;" id="ezcGraphLine_123"/><path d=" M 1011.5317,405.0000 L 1011.5317,405.0000 L 1045.7658,405.0000 L 1045.7658,405.0000 L 1011.5317,405.0000 z " style="fill: #3465a4; fill-opacity: 0.10; stroke: none;" id="ezcGraphPolygon_124"/><path d=" M 1011.5317,405.0000 L 1045.7658,405.0000" style="fill: none; stroke: #3465a4; stroke-width: 1; stroke-opacity: 1.00; stroke-linecap: round; stroke-linejoin: round;" id="ezcGraphLine_125"/><path d=" M 1045.7658,405.0000 L 1045.7658,405.0000 L 1080.0000,367.9500 L 1080.0000,405.0000 L 1045.7658,405.0000 z " style="fill: #3465a4; fill-opacity: 0.10; stroke: none;" id="ezcGraphPolygon_126"/><path d=" M 1045.7658,405.0000 L 1080.0000,367.9500" style="fill: none; stroke: #3465a4; stroke-width: 1; stroke-opacity: 1.00; stroke-linecap: round; stroke-linejoin: round;" id="ezcGraphLine_127"/><path d=" M 121.4433,405.0000 L 121.4433,405.0000" style="fill: none; stroke: #4e9a06; stroke-width: 1; stroke-opacity: 1.00; stroke-linecap: round; stroke-linejoin: round;" id="ezcGraphLine_128"/><path d=" M 121.4433,405.0000 L 121.4433,405.0000 L 155.6774,405.0000 L 155.6774,405.0000 L 121.4433,405.0000 z " style="fill: #4e9a06; fill-opacity: 0.10; stroke: none;" id="ezcGraphPolygon_129"/><path d=" M 121.4433,405.0000 L 155.6774,405.0000" style="fill: none; stroke: #4e9a06; stroke-width: 1; stroke-opacity: 1.00; stroke-linecap: round; stroke-linejoin: round;" id="ezcGraphLine_130"/><path d=" M 155.6774,405.0000 L 155.6774,405.0000 L 189.9116,405.0000 L 189.9116,405.0000 L 155.6774,405.0000 z " style="fill: #4e9a06; fill-opacity: 0.10; stroke: none;" id="ezcGraphPolygon_131"/><path d=" M 155.6774,405.0000 L 189.9116,405.0000" style="fill: none; stroke: #4e9a06; stroke-width: 1; stroke-opacity: 1.00; stroke-linecap: round; stroke-linejoin: round;" id="ezcGraphLine_132"/><path d=" M 189.9116,405.0000 L 189.9116,405.0000 L 224.1458,405.0000 L 224.1458,405.0000 L 189.9116,405.0000 z " style="fill: #4e9a06; fill-opacity: 0.10; stroke: none;" id="ezcGraphPolygon_133"/><path d=" M 189.9116,405.0000 L 224.1458,405.0000" style="fill: none; stroke: #4e9a06; stroke-width: 1; stroke-opacity: 1.00; stroke-linecap: round; stroke-linejoin: round;" id="ezcGraphLine_134"/><path d=" M 224.1458,405.0000 L 224.1458,405.0000 L 258.3799,405.0000 L 258.3799,405.0000 L 224.1458,405.0000 z " style="fill: #4e9a06; fill-opacity: 0.10; stroke: none;" id="ezcGraphPolygon_135"/><path d=" M 224.1458,405.0000 L 258.3799,405.0000" style="fill: none; stroke: #4e9a06; stroke-width: 1; stroke-opacity: 1.00; stroke-linecap: round; stroke-linejoin: round;" id="ezcGraphLine_136"/><path d=" M 258.3799,405.0000 L 258.3799,405.0000 L 292.6141,405.0000 L 292.6141,405.0000 L 258.3799,405.0000 z " style="fill: #4e9a06; fill-opacity: 0.10; stroke: none;" id="ezcGraphPolygon_137"/><path d=" M 258.3799,405.0000 L 292.6141,405.0000" style="fill: none; stroke: #4e9a06; stroke-width: 1; stroke-opacity: 1.00; stroke-linecap: round; stroke-linejoin: round;" id="ezcGraphLine_138"/><path d=" M 292.6141,405.0000 L 292.6141,405.0000 L 326.8483,405.0000 L 326.8483,405.0000 L 292.6141,405.0000 z " style="fill: #4e9a06; fill-opacity: 0.10; stroke: none;" id="ezcGraphPolygon_139"/><path d=" M 292.6141,405.0000 L 326.8483,405.0000" style="fill: none; stroke: #4e9a06; stroke-width: 1; stroke-opacity: 1.00; stroke-linecap: round; stroke-linejoin: round;" id="ezcGraphLine_140"/><path d=" M 326.8483,405.0000 L 326.8483,405.0000 L 361.0824,404.2780 L 361.0824,405.0000 L 326.8483,405.0000 z " style="fill: #4e9a06; fill-opacity: 0.10; stroke: none;" id="ezcGraphPolygon_141"/><path d=" M 326.8483,405.0000 L 361.0824,404.2780" style="fill: none; stroke: #4e9a06; stroke-width: 1; stroke-opacity: 1.00; stroke-linecap: round; stroke-linejoin: round;" id="ezcGraphLine_142"/><path d=" M 361.0824,405.0000 L 361.0824,404.2780 L 395.3166,404.8480 L 395.3166,405.0000 L 361.0824,405.0000 z " style="fill: #4e9a06; fill-opacity: 0.10; stroke: none;" id="ezcGraphPolygon_143"/><path d=" M 361.0824,404.2780 L 395.3166,404.8480" style="fill: none; stroke: #4e9a06; stroke-width: 1; stroke-opacity: 1.00; stroke-linecap: round; stroke-linejoin: round;" id="ezcGraphLine_144"/><path d=" M 395.3166,405.0000 L 395.3166,404.8480 L 429.5508,404.0120 L 429.5508,405.0000 L 395.3166,405.0000 z " style="fill: #4e9a06; fill-opacity: 0.10; stroke: none;" id="ezcGraphPolygon_145"/><path d=" M 395.3166,404.8480 L 429.5508,404.0120" style="fill: none; stroke: #4e9a06; stroke-width: 1; stroke-opacity: 1.00; stroke-linecap: round; stroke-linejoin: round;" id="ezcGraphLine_146"/><path d=" M 429.5508,405.0000 L 429.5508,404.0120 L 463.7850,404.8480 L 463.7850,405.0000 L 429.5508,405.0000 z " style="fill: #4e9a06; fill-opacity: 0.10; stroke: none;" id="ezcGraphPolygon_147"/><path d=" M 429.5508,404.0120 L 463.7850,404.8480" style="fill: none; stroke: #4e9a06; stroke-width: 1; stroke-opacity: 1.00; stroke-linecap: round; stroke-linejoin: round;" id="ezcGraphLine_148"/><path d=" M 463.7850,405.0000 L 463.7850,404.8480 L 498.0191,404.8480 L 498.0191,405.0000 L 463.7850,405.0000 z " style="fill: #4e9a06; fill-opacity: 0.10; stroke: none;" id="ezcGraphPolygon_149"/><path d=" M 463.7850,404.8480 L 498.0191,404.8480" style="fill: none; stroke: #4e9a06; stroke-width: 1; stroke-opacity: 1.00; stroke-linecap: round; stroke-linejoin: round;" id="ezcGraphLine_150"/><path d=" M 498.0191,405.0000 L 498.0191,404.8480 L 532.2533,404.0120 L 532.2533,405.0000 L 498.0191,405.0000 z " style="fill: #4e9a06; fill-opacity: 0.10; stroke: none;" id="ezcGraphPolygon_151"/><path d=" M 498.0191,404.8480 L 532.2533,404.0120" style="fill: none; stroke: #4e9a06; stroke-width: 1; stroke-opacity: 1.00; stroke-linecap: round; stroke-linejoin: round;" id="ezcGraphLine_152"/><path d=" M 532.2533,405.0000 L 532.2533,404.0120 L 566.4875,404.8480 L 566.4875,405.0000 L 532.2533,405.0000 z " style="fill: #4e9a06; fill-opacity: 0.10; stroke: none;" id="ezcGraphPolygon_153"/><path d=" M 532.2533,404.0120 L 566.4875,404.8480" style="fill: none; stroke: #4e9a06; stroke-width: 1; stroke-opacity: 1.00; stroke-linecap: round; stroke-linejoin: round;" id="ezcGraphLine_154"/><path d=" M 566.4875,405.0000 L 566.4875,404.8480 L 600.7216,404.8480 L 600.7216,405.0000 L 566.4875,405.0000 z " style="fill: #4e9a06; fill-opacity: 0.10; stroke: none;" id="ezcGraphPolygon_155"/><path d=" M 566.4875,404.8480 L 600.7216,404.8480" style="fill: none; stroke: #4e9a06; stroke-width: 1; stroke-opacity: 1.00; stroke-linecap: round; stroke-linejoin: round;" id="ezcGraphLine_156"/><path d=" M 600.7216,405.0000 L 600.7216,404.8480 L 634.9558,404.8480 L 634.9558,405.0000 L 600.7216,405.0000 z " style="fill: #4e9a06; fill-opacity: 0.10; stroke: none;" id="ezcGraphPolygon_157"/><path d=" M 600.7216,404.8480 L 634.9558,404.8480" style="fill: none; stroke: #4e9a06; stroke-width: 1; stroke-opacity: 1.00; stroke-linecap: round; stroke-linejoin: round;" id="ezcGraphLine_158"/><path d=" M 634.9558,405.0000 L 634.9558,404.8480 L 669.1900,404.8480 L 669.1900,405.0000 L 634.9558,405.0000 z " style="fill: #4e9a06; fill-opacity: 0.10; stroke: none;" id="ezcGraphPolygon_159"/><path d=" M 634.9558,404.8480 L 669.1900,404.8480" style="fill: none; stroke: #4e9a06; stroke-width: 1; stroke-opacity: 1.00; stroke-linecap: round; stroke-linejoin: round;" id="ezcGraphLine_160"/><path d=" M 669.1900,405.0000 L 669.1900,404.8480 L 703.4241,404.8480 L 703.4241,405.0000 L 669.1900,405.0000 z " style="fill: #4e9a06; fill-opacity: 0.10; stroke: none;" id="ezcGraphPolygon_161"/><path d=" M 669.1900,404.8480 L 703.4241,404.8480" style="fill: none; stroke: #4e9a06; stroke-width: 1; stroke-opacity: 1.00; stroke-linecap: round; stroke-linejoin: round;" id="ezcGraphLine_162"/><path d=" M 703.4241,405.0000 L 703.4241,404.8480 L 737.6583,404.8480 L 737.6583,405.0000 L 703.4241,405.0000 z " style="fill: #4e9a06; fill-opacity: 0.10; stroke: none;" id="ezcGraphPolygon_163"/><path d=" M 703.4241,404.8480 L 737.6583,404.8480" style="fill: none; stroke: #4e9a06; stroke-width: 1; stroke-opacity: 1.00; stroke-linecap: round; stroke-linejoin: round;" id="ezcGraphLine_164"/><path d=" M 737.6583,405.0000 L 737.6583,404.8480 L 771.8925,403.5560 L 771.8925,405.0000 L 737.6583,405.0000 z " style="fill: #4e9a06; fill-opacity: 0.10; stroke: none;" id="ezcGraphPolygon_165"/><path d=" M 737.6583,404.8480 L 771.8925,403.5560" style="fill: none; stroke: #4e9a06; stroke-width: 1; stroke-opacity: 1.00; stroke-linecap: round; stroke-linejoin: round;" id="ezcGraphLine_166"/><path d=" M 771.8925,405.0000 L 771.8925,403.5560 L 806.1266,404.8480 L 806.1266,405.0000 L 771.8925,405.0000 z " style="fill: #4e9a06; fill-opacity: 0.10; stroke: none;" id="ezcGraphPolygon_167"/><path d=" M 771.8925,403.5560 L 806.1266,404.8480" style="fill: none; stroke: #4e9a06; stroke-width: 1; stroke-opacity: 1.00; stroke-linecap: round; stroke-linejoin: round;" id="ezcGraphLine_168"/><path d=" M 806.1266,405.0000 L 806.1266,404.8480 L 840.3608,403.9740 L 840.3608,405.0000 L 806.1266,405.0000 z " style="fill: #4e9a06; fill-opacity: 0.10; stroke: none;" id="ezcGraphPolygon_169"/><path d=" M 806.1266,404.8480 L 840.3608,403.9740" style="fill: none; stroke: #4e9a06; stroke-width: 1; stroke-opacity: 1.00; stroke-linecap: round; stroke-linejoin: round;" id="ezcGraphLine_170"/><path d=" M 840.3608,405.0000 L 840.3608,403.9740 L 874.5950,359.4000 L 874.5950,405.0000 L 840.3608,405.0000 z " style="fill: #4e9a06; fill-opacity: 0.10; stroke: none;" id="ezcGraphPolygon_171"/><path d=" M 840.3608,403.9740 L 874.5950,359.4000" style="fill: none; stroke: #4e9a06; stroke-width: 1; stroke-opacity: 1.00; stroke-linecap: round; stroke-linejoin: round;" id="ezcGraphLine_172"/><path d=" M 874.5950,405.0000 L 874.5950,359.4000 L 908.8292,404.8480 L 908.8292,405.0000 L 874.5950,405.0000 z " style="fill: #4e9a06; fill-opacity: 0.10; stroke: none;" id="ezcGraphPolygon_173"/><path d=" M 874.5950,359.4000 L 908.8292,404.8480" style="fill: none; stroke: #4e9a06; stroke-width: 1; stroke-opacity: 1.00; stroke-linecap: round; stroke-linejoin: round;" id="ezcGraphLine_174"/><path d=" M 908.8292,405.0000 L 908.8292,404.8480 L 943.0633,403.1000 L 943.0633,405.0000 L 908.8292,405.0000 z " style="fill: #4e9a06; fill-opacity: 0.10; stroke: none;" id="ezcGraphPolygon_175"/><path d=" M 908.8292,404.8480 L 943.0633,403.1000" style="fill: none; stroke: #4e9a06; stroke-width: 1; stroke-opacity: 1.00; stroke-linecap: round; stroke-linejoin: round;" id="ezcGraphLine_176"/><path d=" M 943.0633,405.0000 L 943.0633,403.1000 L 977.2975,404.8480 L 977.2975,405.0000 L 943.0633,405.0000 z " style="fill: #4e9a06; fill-opacity: 0.10; stroke: none;" id="ezcGraphPolygon_177"/><path d=" M 943.0633,403.1000 L 977.2975,404.8480" style="fill: none; stroke: #4e9a06; stroke-width: 1; stroke-opacity: 1.00; stroke-linecap: round; stroke-linejoin: round;" id="ezcGraphLine_178"/><path d=" M 977.2975,405.0000 L 977.2975,404.8480 L 1011.5317,404.8480 L 1011.5317,405.0000 L 977.2975,405.0000 z " style="fill: #4e9a06; fill-opacity: 0.10; stroke: none;" id="ezcGraphPolygon_179"/><path d=" M 977.2975,404.8480 L 1011.5317,404.8480" style="fill: none; stroke: #4e9a06; stroke-width: 1; stroke-opacity: 1.00; stroke-linecap: round; stroke-linejoin: round;" id="ezcGraphLine_180"/><path d=" M 1011.5317,405.0000 L 1011.5317,404.8480 L 1045.7658,403.1000 L 1045.7658,405.0000 L 1011.5317,405.0000 z " style="fill: #4e9a06; fill-opacity: 0.10; stroke: none;" id="ezcGraphPolygon_181"/><path d=" M 1011.5317,404.8480 L 1045.7658,403.1000" style="fill: none; stroke: #4e9a06; stroke-width: 1; stroke-opacity: 1.00; stroke-linecap: round; stroke-linejoin: round;" id="ezcGraphLine_182"/><path d=" M 1045.7658,405.0000 L 1045.7658,403.1000 L 1080.0000,405.0000 L 1080.0000,405.0000 L 1045.7658,405.0000 z " style="fill: #4e9a06; fill-opacity: 0.10; stroke: none;" id="ezcGraphPolygon_183"/><path d=" M 1045.7658,403.1000 L 1080.0000,405.0000" style="fill: none; stroke: #4e9a06; stroke-width: 1; stroke-opacity: 1.00; stroke-linecap: round; stroke-linejoin: round;" id="ezcGraphLine_184"/><g id="ezcGraphTextBox_5"><path d=" M 16.5000,17.0000 L 16.5000,1.5000 L 84.7800,1.5000 L 84.7800,17.0000 L 16.5000,17.0000 z " style="fill: #ffffff; fill-opacity: 0.00; stroke: none;" id="ezcGraphPolygon_185"/><text id="ezcGraphTextBox_5_text" x="17.0000" text-length="66.7800px" y="13.9000" style="font-size: 14px; font-family: 'sans-serif'; fill: #2e3436; fill-opacity: 1.00; stroke: none;">Einnahmen</text></g><g id="ezcGraphTextBox_8"><path d=" M 615.5000,17.0000 L 615.5000,1.5000 L 676.3600,1.5000 L 676.3600,17.0000 L 615.5000,17.0000 z " style="fill: #ffffff; fill-opacity: 0.00; stroke: none;" id="ezcGraphPolygon_186"/><text id="ezcGraphTextBox_8_text" x="616.0000" text-length="59.3600px" y="13.9000" style="font-size: 14px; font-family: 'sans-serif'; fill: #2e3436; fill-opacity: 1.00; stroke: none;">Ausgaben</text></g><g id="ezcGraphTextBox_11" transform="rotate( -85.00 121.4433 405.0000 )"><path d=" M 35.6133,429.0000 L 35.6133,404.5000 L 122.4433,404.5000 L 122.4433,429.0000 L 35.6133,429.0000 z " style="fill: #ffffff; fill-opacity: 0.00; stroke: none;" id="ezcGraphPolygon_187"/><text id="ezcGraphTextBox_11_text" x="36.1133" text-length="85.3300px" y="424.5500" style="font-size: 23px; font-family: 'sans-serif'; fill: #2e3436; fill-opacity: 1.00; stroke: none;">2012-01</text></g><g id="ezcGraphTextBox_14" transform="rotate( -85.00 258.3799 405.0000 )"><path d=" M 172.5499,429.0000 L 172.5499,404.5000 L 259.3799,404.5000 L 259.3799,429.0000 L 172.5499,429.0000 z " style="fill: #ffffff; fill-opacity: 0.00; stroke: none;" id="ezcGraphPolygon_188"/><text id="ezcGraphTextBox_14_text" x="173.0499" text-length="85.3300px" y="424.5500" style="font-size: 23px; font-family: 'sans-serif'; fill: #2e3436; fill-opacity: 1.00; stroke: none;">2012-05</text></g><g id="ezcGraphTextBox_17" transform="rotate( -85.00 395.3166 405.0000 )"><path d=" M 309.4866,429.0000 L 309.4866,404.5000 L 396.3166,404.5000 L 396.3166,429.0000 L 309.4866,429.0000 z " style="fill: #ffffff; fill-opacity: 0.00; stroke: none;" id="ezcGraphPolygon_189"/><text id="ezcGraphTextBox_17_text" x="309.9866" text-length="85.3300px" y="424.5500" style="font-size: 23px; font-family: 'sans-serif'; fill: #2e3436; fill-opacity: 1.00; stroke: none;">2012-09</text></g><g id="ezcGraphTextBox_20" transform="rotate( -85.00 532.2533 405.0000 )"><path d=" M 446.4233,429.0000 L 446.4233,404.5000 L 533.2533,404.5000 L 533.2533,429.0000 L 446.4233,429.0000 z " style="fill: #ffffff; fill-opacity: 0.00; stroke: none;" id="ezcGraphPolygon_190"/><text id="ezcGraphTextBox_20_text" x="446.9233" text-length="85.3300px" y="424.5500" style="font-size: 23px; font-family: 'sans-serif'; fill: #2e3436; fill-opacity: 1.00; stroke: none;">2013-01</text></g><g id="ezcGraphTextBox_23" transform="rotate( -85.00 669.1900 405.0000 )"><path d=" M 583.3600,429.0000 L 583.3600,404.5000 L 670.1900,404.5000 L 670.1900,429.0000 L 583.3600,429.0000 z " style="fill: #ffffff; fill-opacity: 0.00; stroke: none;" id="ezcGraphPolygon_191"/><text id="ezcGraphTextBox_23_text" x="583.8600" text-length="85.3300px" y="424.5500" style="font-size: 23px; font-family: 'sans-serif'; fill: #2e3436; fill-opacity: 1.00; stroke: none;">2013-05</text></g><g id="ezcGraphTextBox_26" transform="rotate( -85.00 806.1266 405.0000 )"><path d=" M 720.2966,429.0000 L 720.2966,404.5000 L 807.1266,404.5000 L 807.1266,429.0000 L 720.2966,429.0000 z " style="fill: #ffffff; fill-opacity: 0.00; stroke: none;" id="ezcGraphPolygon_192"/><text id="ezcGraphTextBox_26_text" x="720.7966" text-length="85.3300px" y="424.5500" style="font-size: 23px; font-family: 'sans-serif'; fill: #2e3436; fill-opacity: 1.00; stroke: none;">2013-09</text></g><g id="ezcGraphTextBox_29" transform="rotate( -85.00 943.0633 405.0000 )"><path d=" M 857.2333,429.0000 L 857.2333,404.5000 L 944.0633,404.5000 L 944.0633,429.0000 L 857.2333,429.0000 z " style="fill: #ffffff; fill-opacity: 0.00; stroke: none;" id="ezcGraphPolygon_193"/><text id="ezcGraphTextBox_29_text" x="857.7333" text-length="85.3300px" y="424.5500" style="font-size: 23px; font-family: 'sans-serif'; fill: #2e3436; fill-opacity: 1.00; stroke: none;">2014-01</text></g><g id="ezcGraphTextBox_32" transform="rotate( -85.00 1080.0000 405.0000 )"><path d=" M 994.1700,429.0000 L 994.1700,404.5000 L 1081.0000,404.5000 L 1081.0000,429.0000 L 994.1700,429.0000 z " style="fill: #ffffff; fill-opacity: 0.00; stroke: none;" id="ezcGraphPolygon_194"/><text id="ezcGraphTextBox_32_text" x="994.6700" text-length="85.3300px" y="424.5500" style="font-size: 23px; font-family: 'sans-serif'; fill: #2e3436; fill-opacity: 1.00; stroke: none;">2014-05</text></g><g id="ezcGraphTextBox_37"><path d=" M 103.2400,404.0000 L 103.2400,379.5000 L 119.0000,379.5000 L 119.0000,404.0000 L 103.2400,404.0000 z " style="fill: #ffffff; fill-opacity: 0.00; stroke: none;" id="ezcGraphPolygon_195"/><text id="ezcGraphTextBox_37_text" x="103.7400" text-length="14.2600px" y="399.5500" style="font-size: 23px; font-family: 'sans-serif'; fill: #2e3436; fill-opacity: 1.00; stroke: none;">0</text></g><g id="ezcGraphTextBox_48"><path d=" M 60.4600,309.0000 L 60.4600,284.5000 L 119.0000,284.5000 L 119.0000,309.0000 L 60.4600,309.0000 z " style="fill: #ffffff; fill-opacity: 0.00; stroke: none;" id="ezcGraphPolygon_196"/><text id="ezcGraphTextBox_48_text" x="60.9600" text-length="57.0400px" y="304.5500" style="font-size: 23px; font-family: 'sans-serif'; fill: #2e3436; fill-opacity: 1.00; stroke: none;">2500</text></g><g id="ezcGraphTextBox_59"><path d=" M 60.4600,214.0000 L 60.4600,189.5000 L 119.0000,189.5000 L 119.0000,214.0000 L 60.4600,214.0000 z " style="fill: #ffffff; fill-opacity: 0.00; stroke: none;" id="ezcGraphPolygon_197"/><text id="ezcGraphTextBox_59_text" x="60.9600" text-length="57.0400px" y="209.5500" style="font-size: 23px; font-family: 'sans-serif'; fill: #2e3436; fill-opacity: 1.00; stroke: none;">5000</text></g><g id="ezcGraphTextBox_70"><path d=" M 60.4600,146.0000 L 60.4600,121.5000 L 119.0000,121.5000 L 119.0000,146.0000 L 60.4600,146.0000 z " style="fill: #ffffff; fill-opacity: 0.00; stroke: none;" id="ezcGraphPolygon_198"/><text id="ezcGraphTextBox_70_text" x="60.9600" text-length="57.0400px" y="141.5500" style="font-size: 23px; font-family: 'sans-serif'; fill: #2e3436; fill-opacity: 1.00; stroke: none;">7500</text></g></g></svg>
