<?xml version="1.0"?>
<svg xmlns="http://www.w3.org/2000/svg" width="1200" height="500" version="1.0" id="ezcGraph"><defs><linearGradient id="Definition_LinearGradient_3_3_14_14_4e98f600_1a335200"><stop offset="0" style="stop-color: #4e98f6; stop-opacity: 1.00;"/><stop offset="1" style="stop-color: #1a3352; stop-opacity: 1.00;"/></linearGradient><linearGradient xmlns:xlink="http://www.w3.org/1999/xlink" id="LinearGradient_3_3_14_14_4e98f600_1a335200" x1="3.4000" y1="3.4000" x2="14.6000" y2="14.6000" gradientUnits="userSpaceOnUse" xlink:href="#Definition_LinearGradient_3_3_14_14_4e98f600_1a335200"/><linearGradient id="Definition_LinearGradient_602_3_613_14_75e70900_274d0300"><stop offset="0" style="stop-color: #75e709; stop-opacity: 1.00;"/><stop offset="1" style="stop-color: #274d03; stop-opacity: 1.00;"/></linearGradient><linearGradient xmlns:xlink="http://www.w3.org/1999/xlink" id="LinearGradient_602_3_613_14_75e70900_274d0300" x1="602.4000" y1="3.4000" x2="613.6000" y2="14.6000" gradientUnits="userSpaceOnUse" xlink:href="#Definition_LinearGradient_602_3_613_14_75e70900_274d0300"/></defs><g id="ezcGraphChart" color-rendering="optimizeQuality" shape-rendering="geometricPrecision" text-rendering="optimizeLegibility"><path d=" M 0.0000,500.0000 L 0.0000,0.0000 L 1200.0000,0.0000 L 1200.0000,500.0000 L 0.0000,500.0000 z " style="fill: #eeeeec; fill-opacity: 1.00; stroke: none;" id="ezcGraphPolygon_1"/><path d=" M 0.0000,25.0000 L 0.0000,0.0000 L 1200.0000,0.0000 L 1200.0000,25.0000 L 0.0000,25.0000 z " style="fill: #000000; fill-opacity: 0.00; stroke: none;" id="ezcGraphPolygon_2"/><path d=" M 2.0000,16.0000 L 2.0000,2.0000 L 16.0000,2.0000 L 16.0000,16.0000 L 2.0000,16.0000 z " style="fill: #3465a4; fill-opacity: 1.00; stroke: none;" id="ezcGraphPolygon_3"/><path d=" M 14.6000,3.4000 L 14.6000,14.6000 L 3.4000,14.6000 L 3.4000,3.4000 L 14.6000,3.4000 z " style="fill: url(#LinearGradient_3_3_14_14_4e98f600_1a335200); stroke: none;" id="ezcGraphPolygon_4"/><path d=" M 601.0000,16.0000 L 601.0000,2.0000 L 615.0000,2.0000 L 615.0000,16.0000 L 601.0000,16.0000 z " style="fill: #4e9a06; fill-opacity: 1.00; stroke: none;" id="ezcGraphPolygon_6"/><path d=" M 613.6000,3.4000 L 613.6000,14.6000 L 602.4000,14.6000 L 602.4000,3.4000 L 613.6000,3.4000 z " style="fill: url(#LinearGradient_602_3_613_14_75e70900_274d0300); stroke: none;" id="ezcGraphPolygon_7"/><path d=" M 0.0000,405.0000 L 1200.0000,405.0000" style="fill: none; stroke: #2e3436; stroke-width: 1; stroke-opacity: 1.00; stroke-linecap: round; stroke-linejoin: round;" id="ezcGraphLine_9"/><path d=" M 1192.0000,401.0000 L 1200.0000,405.0000 L 1192.0000,409.0000 L 1192.0000,401.0000 z " style="fill: #2e3436; fill-opacity: 1.00; stroke: none;" id="ezcGraphPolygon_10"/><path d=" M 121.4433,120.0000 L 121.4433,405.0000" style="fill: none; stroke: #000000; stroke-width: 1; stroke-opacity: 0.00; stroke-linecap: round; stroke-linejoin: round;" id="ezcGraphLine_12"/><path d=" M 121.4433,402.0000 L 121.4433,405.0000" style="fill: none; stroke: #2e3436; stroke-width: 1; stroke-opacity: 1.00; stroke-linecap: round; stroke-linejoin: round;" id="ezcGraphLine_13"/><path d=" M 440.9622,120.0000 L 440.9622,405.0000" style="fill: none; stroke: #000000; stroke-width: 1; stroke-opacity: 0.00; stroke-linecap: round; stroke-linejoin: round;" id="ezcGraphLine_15"/><path d=" M 440.9622,402.0000 L 440.9622,405.0000" style="fill: none; stroke: #2e3436; stroke-width: 1; stroke-opacity: 1.00; stroke-linecap: round; stroke-linejoin: round;" id="ezcGraphLine_16"/><path d=" M 760.4811,120.0000 L 760.4811,405.0000" style="fill: none; stroke: #000000; stroke-width: 1; stroke-opacity: 0.00; stroke-linecap: round; stroke-linejoin: round;" id="ezcGraphLine_18"/><path d=" M 760.4811,402.0000 L 760.4811,405.0000" style="fill: none; stroke: #2e3436; stroke-width: 1; stroke-opacity: 1.00; stroke-linecap: round; stroke-linejoin: round;" id="ezcGraphLine_19"/><path d=" M 1080.0000,120.0000 L 1080.0000,405.0000" style="fill: none; stroke: #000000; stroke-width: 1; stroke-opacity: 0.00; stroke-linecap: round; stroke-linejoin: round;" id="ezcGraphLine_21"/><path d=" M 1080.0000,402.0000 L 1080.0000,405.0000" style="fill: none; stroke: #2e3436; stroke-width: 1; stroke-opacity: 1.00; stroke-linecap: round; stroke-linejoin: round;" id="ezcGraphLine_22"/><path d=" M 120.0000,500.0000 L 120.0000,25.0000" style="fill: none; stroke: #2e3436; stroke-width: 1; stroke-opacity: 1.00; stroke-linecap: round; stroke-linejoin: round;" id="ezcGraphLine_23"/><path d=" M 116.0000,33.0000 L 120.0000,25.0000 L 124.0000,33.0000 L 116.0000,33.0000 z " style="fill: #2e3436; fill-opacity: 1.00; stroke: none;" id="ezcGraphPolygon_24"/><path d=" M 120.0000,390.7500 L 1080.0000,390.7500" style="fill: none; stroke: #000000; stroke-width: 1; stroke-opacity: 0.00; stroke-linecap: round; stroke-linejoin: round;" id="ezcGraphLine_26"/><path d=" M 120.0000,390.7500 L 121.0000,390.7500" style="fill: none; stroke: #2e3436; stroke-width: 1; stroke-opacity: 1.00; stroke-linecap: round; stroke-linejoin: round;" id="ezcGraphLine_27"/><path d=" M 120.0000,376.5000 L 1080.0000,376.5000" style="fill: none; stroke: #000000; stroke-width: 1; stroke-opacity: 0.00; stroke-linecap: round; stroke-linejoin: round;" id="ezcGraphLine_28"/><path d=" M 120.0000,376.5000 L 121.0000,376.5000" style="fill: none; stroke: #2e3436; stroke-width: 1; stroke-opacity: 1.00; stroke-linecap: round; stroke-linejoin: round;" id="ezcGraphLine_29"/><path d=" M 120.0000,362.2500 L 1080.0000,362.2500" style="fill: none; stroke: #000000; stroke-width: 1; stroke-opacity: 0.00; stroke-linecap: round; stroke-linejoin: round;" id="ezcGraphLine_30"/><path d=" M 120.0000,362.2500 L 121.0000,362.2500" style="fill: none; stroke: #2e3436; stroke-width: 1; stroke-opacity: 1.00; stroke-linecap: round; stroke-linejoin: round;" id="ezcGraphLine_31"/><path d=" M 120.0000,348.0000 L 1080.0000,348.0000" style="fill: none; stroke: #000000; stroke-width: 1; stroke-opacity: 0.00; stroke-linecap: round; stroke-linejoin: round;" id="ezcGraphLine_32"/><path d=" M 120.0000,348.0000 L 123.0000,348.0000" style="fill: none; stroke: #2e3436; stroke-width: 1; stroke-opacity: 1.00; stroke-linecap: round; stroke-linejoin: round;" id="ezcGraphLine_33"/><path d=" M 120.0000,333.7500 L 1080.0000,333.7500" style="fill: none; stroke: #000000; stroke-width: 1; stroke-opacity: 0.00; stroke-linecap: round; stroke-linejoin: round;" id="ezcGraphLine_35"/><path d=" M 120.0000,333.7500 L 121.0000,333.7500" style="fill: none; stroke: #2e3436; stroke-width: 1; stroke-opacity: 1.00; stroke-linecap: round; stroke-linejoin: round;" id="ezcGraphLine_36"/><path d=" M 120.0000,319.5000 L 1080.0000,319.5000" style="fill: none; stroke: #000000; stroke-width: 1; stroke-opacity: 0.00; stroke-linecap: round; stroke-linejoin: round;" id="ezcGraphLine_37"/><path d=" M 120.0000,319.5000 L 121.0000,319.5000" style="fill: none; stroke: #2e3436; stroke-width: 1; stroke-opacity: 1.00; stroke-linecap: round; stroke-linejoin: round;" id="ezcGraphLine_38"/><path d=" M 120.0000,305.2500 L 1080.0000,305.2500" style="fill: none; stroke: #000000; stroke-width: 1; stroke-opacity: 0.00; stroke-linecap: round; stroke-linejoin: round;" id="ezcGraphLine_39"/><path d=" M 120.0000,305.2500 L 121.0000,305.2500" style="fill: none; stroke: #2e3436; stroke-width: 1; stroke-opacity: 1.00; stroke-linecap: round; stroke-linejoin: round;" id="ezcGraphLine_40"/><path d=" M 120.0000,291.0000 L 1080.0000,291.0000" style="fill: none; stroke: #000000; stroke-width: 1; stroke-opacity: 0.00; stroke-linecap: round; stroke-linejoin: round;" id="ezcGraphLine_41"/><path d=" M 120.0000,291.0000 L 123.0000,291.0000" style="fill: none; stroke: #2e3436; stroke-width: 1; stroke-opacity: 1.00; stroke-linecap: round; stroke-linejoin: round;" id="ezcGraphLine_42"/><path d=" M 120.0000,276.7500 L 1080.0000,276.7500" style="fill: none; stroke: #000000; stroke-width: 1; stroke-opacity: 0.00; stroke-linecap: round; stroke-linejoin: round;" id="ezcGraphLine_44"/><path d=" M 120.0000,276.7500 L 121.0000,276.7500" style="fill: none; stroke: #2e3436; stroke-width: 1; stroke-opacity: 1.00; stroke-linecap: round; stroke-linejoin: round;" id="ezcGraphLine_45"/><path d=" M 120.0000,262.5000 L 1080.0000,262.5000" style="fill: none; stroke: #000000; stroke-width: 1; stroke-opacity: 0.00; stroke-linecap: round; stroke-linejoin: round;" id="ezcGraphLine_46"/><path d=" M 120.0000,262.5000 L 121.0000,262.5000" style="fill: none; stroke: #2e3436; stroke-width: 1; stroke-opacity: 1.00; stroke-linecap: round; stroke-linejoin: round;" id="ezcGraphLine_47"/><path d=" M 120.0000,248.2500 L 1080.0000,248.2500" style="fill: none; stroke: #000000; stroke-width: 1; stroke-opacity: 0.00; stroke-linecap: round; stroke-linejoin: round;" id="ezcGraphLine_48"/><path d=" M 120.0000,248.2500 L 121.0000,248.2500" style="fill: none; stroke: #2e3436; stroke-width: 1; stroke-opacity: 1.00; stroke-linecap: round; stroke-linejoin: round;" id="ezcGraphLine_49"/><path d=" M 120.0000,234.0000 L 1080.0000,234.0000" style="fill: none; stroke: #000000; stroke-width: 1; stroke-opacity: 0.00; stroke-linecap: round; stroke-linejoin: round;" id="ezcGraphLine_50"/><path d=" M 120.0000,234.0000 L 123.0000,234.0000" style="fill: none; stroke: #2e3436; stroke-width: 1; stroke-opacity: 1.00; stroke-linecap: round; stroke-linejoin: round;" id="ezcGraphLine_51"/><path d=" M 120.0000,219.7500 L 1080.0000,219.7500" style="fill: none; stroke: #000000; stroke-width: 1; stroke-opacity: 0.00; stroke-linecap: round; stroke-linejoin: round;" id="ezcGraphLine_53"/><path d=" M 120.0000,219.7500 L 121.0000,219.7500" style="fill: none; stroke: #2e3436; stroke-width: 1; stroke-opacity: 1.00; stroke-linecap: round; stroke-linejoin: round;" id="ezcGraphLine_54"/><path d=" M 120.0000,205.5000 L 1080.0000,205.5000" style="fill: none; stroke: #000000; stroke-width: 1; stroke-opacity: 0.00; stroke-linecap: round; stroke-linejoin: round;" id="ezcGraphLine_55"/><path d=" M 120.0000,205.5000 L 121.0000,205.5000" style="fill: none; stroke: #2e3436; stroke-width: 1; stroke-opacity: 1.00; stroke-linecap: round; stroke-linejoin: round;" id="ezcGraphLine_56"/><path d=" M 120.0000,191.2500 L 1080.0000,191.2500" style="fill: none; stroke: #000000; stroke-width: 1; stroke-opacity: 0.00; stroke-linecap: round; stroke-linejoin: round;" id="ezcGraphLine_57"/><path d=" M 120.0000,191.2500 L 121.0000,191.2500" style="fill: none; stroke: #2e3436; stroke-width: 1; stroke-opacity: 1.00; stroke-linecap: round; stroke-linejoin: round;" id="ezcGraphLine_58"/><path d=" M 120.0000,177.0000 L 1080.0000,177.0000" style="fill: none; stroke: #000000; stroke-width: 1; stroke-opacity: 0.00; stroke-linecap: round; stroke-linejoin: round;" id="ezcGraphLine_59"/><path d=" M 120.0000,177.0000 L 123.0000,177.0000" style="fill: none; stroke: #2e3436; stroke-width: 1; stroke-opacity: 1.00; stroke-linecap: round; stroke-linejoin: round;" id="ezcGraphLine_60"/><path d=" M 120.0000,162.7500 L 1080.0000,162.7500" style="fill: none; stroke: #000000; stroke-width: 1; stroke-opacity: 0.00; stroke-linecap: round; stroke-linejoin: round;" id="ezcGraphLine_62"/><path d=" M 120.0000,162.7500 L 121.0000,162.7500" style="fill: none; stroke: #2e3436; stroke-width: 1; stroke-opacity: 1.00; stroke-linecap: round; stroke-linejoin: round;" id="ezcGraphLine_63"/><path d=" M 120.0000,148.5000 L 1080.0000,148.5000" style="fill: none; stroke: #000000; stroke-width: 1; stroke-opacity: 0.00; stroke-linecap: round; stroke-linejoin: round;" id="ezcGraphLine_64"/><path d=" M 120.0000,148.5000 L 121.0000,148.5000" style="fill: none; stroke: #2e3436; stroke-width: 1; stroke-opacity: 1.00; stroke-linecap: round; stroke-linejoin: round;" id="ezcGraphLine_65"/><path d=" M 120.0000,134.2500 L 1080.0000,134.2500" style="fill: none; stroke: #000000; stroke-width: 1; stroke-opacity: 0.00; stroke-linecap: round; stroke-linejoin: round;" id="ezcGraphLine_66"/><path d=" M 120.0000,134.2500 L 121.0000,134.2500" style="fill: none; stroke: #2e3436; stroke-width: 1; stroke-opacity: 1.00; stroke-linecap: round; stroke-linejoin: round;" id="ezcGraphLine_67"/><path d=" M 120.0000,120.0000 L 1080.0000,120.0000" style="fill: none; stroke: #000000; stroke-width: 1; stroke-opacity: 0.00; stroke-linecap: round; stroke-linejoin: round;" id="ezcGraphLine_68"/><path d=" M 120.0000,120.0000 L 123.0000,120.0000" style="fill: none; stroke: #2e3436; stroke-width: 1; stroke-opacity: 1.00; stroke-linecap: round; stroke-linejoin: round;" id="ezcGraphLine_69"/><path d=" M 121.4433,291.0000 L 121.4433,291.0000" style="fill: none; stroke: #3465a4; stroke-width: 1; stroke-opacity: 1.00; stroke-linecap: round; stroke-linejoin: round;" id="ezcGraphLine_71"/><path d=" M 121.4433,405.0000 L 121.4433,291.0000 L 440.9622,120.0000 L 440.9622,405.0000 L 121.4433,405.0000 z " style="fill: #3465a4; fill-opacity: 0.10; stroke: none;" id="ezcGraphPolygon_72"/><path d=" M 121.4433,291.0000 L 440.9622,120.0000" style="fill: none; stroke: #3465a4; stroke-width: 1; stroke-opacity: 1.00; stroke-linecap: round; stroke-linejoin: round;" id="ezcGraphLine_73"/><path d=" M 440.9622,405.0000 L 440.9622,120.0000 L 760.4811,271.0500 L 760.4811,405.0000 L 440.9622,405.0000 z " style="fill: #3465a4; fill-opacity: 0.10; stroke: none;" id="ezcGraphPolygon_74"/><path d=" M 440.9622,120.0000 L 760.4811,271.0500" style="fill: none; stroke: #3465a4; stroke-width: 1; stroke-opacity: 1.00; stroke-linecap: round; stroke-linejoin: round;" id="ezcGraphLine_75"/><path d=" M 760.4811,405.0000 L 760.4811,271.0500 L 1080.0000,405.0000 L 1080.0000,405.0000 L 760.4811,405.0000 z " style="fill: #3465a4; fill-opacity: 0.10; stroke: none;" id="ezcGraphPolygon_76"/><path d=" M 760.4811,271.0500 L 1080.0000,405.0000" style="fill: none; stroke: #3465a4; stroke-width: 1; stroke-opacity: 1.00; stroke-linecap: round; stroke-linejoin: round;" id="ezcGraphLine_77"/><path d=" M 121.4433,291.0000 L 121.4433,291.0000" style="fill: none; stroke: #4e9a06; stroke-width: 1; stroke-opacity: 1.00; stroke-linecap: round; stroke-linejoin: round;" id="ezcGraphLine_78"/><path d=" M 121.4433,405.0000 L 121.4433,291.0000 L 440.9622,348.0000 L 440.9622,405.0000 L 121.4433,405.0000 z " style="fill: #4e9a06; fill-opacity: 0.10; stroke: none;" id="ezcGraphPolygon_79"/><path d=" M 121.4433,291.0000 L 440.9622,348.0000" style="fill: none; stroke: #4e9a06; stroke-width: 1; stroke-opacity: 1.00; stroke-linecap: round; stroke-linejoin: round;" id="ezcGraphLine_80"/><path d=" M 440.9622,405.0000 L 440.9622,348.0000 L 760.4811,294.9330 L 760.4811,405.0000 L 440.9622,405.0000 z " style="fill: #4e9a06; fill-opacity: 0.10; stroke: none;" id="ezcGraphPolygon_81"/><path d=" M 440.9622,348.0000 L 760.4811,294.9330" style="fill: none; stroke: #4e9a06; stroke-width: 1; stroke-opacity: 1.00; stroke-linecap: round; stroke-linejoin: round;" id="ezcGraphLine_82"/><path d=" M 760.4811,405.0000 L 760.4811,294.9330 L 1080.0000,399.3000 L 1080.0000,405.0000 L 760.4811,405.0000 z " style="fill: #4e9a06; fill-opacity: 0.10; stroke: none;" id="ezcGraphPolygon_83"/><path d=" M 760.4811,294.9330 L 1080.0000,399.3000" style="fill: none; stroke: #4e9a06; stroke-width: 1; stroke-opacity: 1.00; stroke-linecap: round; stroke-linejoin: round;" id="ezcGraphLine_84"/><g id="ezcGraphTextBox_5"><path d=" M 16.5000,17.0000 L 16.5000,1.5000 L 84.7800,1.5000 L 84.7800,17.0000 L 16.5000,17.0000 z " style="fill: #ffffff; fill-opacity: 0.00; stroke: none;" id="ezcGraphPolygon_85"/><text id="ezcGraphTextBox_5_text" x="17.0000" text-length="66.7800px" y="13.9000" style="font-size: 14px; font-family: 'sans-serif'; fill: #2e3436; fill-opacity: 1.00; stroke: none;">Einnahmen</text></g><g id="ezcGraphTextBox_8"><path d=" M 615.5000,17.0000 L 615.5000,1.5000 L 676.3600,1.5000 L 676.3600,17.0000 L 615.5000,17.0000 z " style="fill: #ffffff; fill-opacity: 0.00; stroke: none;" id="ezcGraphPolygon_86"/><text id="ezcGraphTextBox_8_text" x="616.0000" text-length="59.3600px" y="13.9000" style="font-size: 14px; font-family: 'sans-serif'; fill: #2e3436; fill-opacity: 1.00; stroke: none;">Ausgaben</text></g><g id="ezcGraphTextBox_11" transform="rotate( -85.00 121.4433 405.0000 )"><path d=" M 43.0333,427.0000 L 43.0333,404.5000 L 122.4433,404.5000 L 122.4433,427.0000 L 43.0333,427.0000 z " style="fill: #ffffff; fill-opacity: 0.00; stroke: none;" id="ezcGraphPolygon_87"/><text id="ezcGraphTextBox_11_text" x="43.5333" text-length="77.9100px" y="422.8500" style="font-size: 21px; font-family: 'sans-serif'; fill: #2e3436; fill-opacity: 1.00; stroke: none;">2011-07</text></g><g id="ezcGraphTextBox_14" transform="rotate( -85.00 440.9622 405.0000 )"><path d=" M 362.5522,427.0000 L 362.5522,404.5000 L 441.9622,404.5000 L 441.9622,427.0000 L 362.5522,427.0000 z " style="fill: #ffffff; fill-opacity: 0.00; stroke: none;" id="ezcGraphPolygon_88"/><text id="ezcGraphTextBox_14_text" x="363.0522" text-length="77.9100px" y="422.8500" style="font-size: 21px; font-family: 'sans-serif'; fill: #2e3436; fill-opacity: 1.00; stroke: none;">2011-08</text></g><g id="ezcGraphTextBox_17" transform="rotate( -85.00 760.4811 405.0000 )"><path d=" M 682.0711,427.0000 L 682.0711,404.5000 L 761.4811,404.5000 L 761.4811,427.0000 L 682.0711,427.0000 z " style="fill: #ffffff; fill-opacity: 0.00; stroke: none;" id="ezcGraphPolygon_89"/><text id="ezcGraphTextBox_17_text" x="682.5711" text-length="77.9100px" y="422.8500" style="font-size: 21px; font-family: 'sans-serif'; fill: #2e3436; fill-opacity: 1.00; stroke: none;">2011-09</text></g><g id="ezcGraphTextBox_20" transform="rotate( -85.00 1080.0000 405.0000 )"><path d=" M 1001.5900,427.0000 L 1001.5900,404.5000 L 1081.0000,404.5000 L 1081.0000,427.0000 L 1001.5900,427.0000 z " style="fill: #ffffff; fill-opacity: 0.00; stroke: none;" id="ezcGraphPolygon_90"/><text id="ezcGraphTextBox_20_text" x="1002.0900" text-length="77.9100px" y="422.8500" style="font-size: 21px; font-family: 'sans-serif'; fill: #2e3436; fill-opacity: 1.00; stroke: none;">2011-10</text></g><g id="ezcGraphTextBox_25"><path d=" M 104.4800,404.0000 L 104.4800,381.5000 L 119.0000,381.5000 L 119.0000,404.0000 L 104.4800,404.0000 z " style="fill: #ffffff; fill-opacity: 0.00; stroke: none;" id="ezcGraphPolygon_91"/><text id="ezcGraphTextBox_25_text" x="104.9800" text-length="13.0200px" y="399.8500" style="font-size: 21px; font-family: 'sans-serif'; fill: #2e3436; fill-opacity: 1.00; stroke: none;">0</text></g><g id="ezcGraphTextBox_34"><path d=" M 65.4200,347.0000 L 65.4200,324.5000 L 119.0000,324.5000 L 119.0000,347.0000 L 65.4200,347.0000 z " style="fill: #ffffff; fill-opacity: 0.00; stroke: none;" id="ezcGraphPolygon_92"/><text id="ezcGraphTextBox_34_text" x="65.9200" text-length="52.0800px" y="342.8500" style="font-size: 21px; font-family: 'sans-serif'; fill: #2e3436; fill-opacity: 1.00; stroke: none;">1000</text></g><g id="ezcGraphTextBox_43"><path d=" M 65.4200,290.0000 L 65.4200,267.5000 L 119.0000,267.5000 L 119.0000,290.0000 L 65.4200,290.0000 z " style="fill: #ffffff; fill-opacity: 0.00; stroke: none;" id="ezcGraphPolygon_93"/><text id="ezcGraphTextBox_43_text" x="65.9200" text-length="52.0800px" y="285.8500" style="font-size: 21px; font-family: 'sans-serif'; fill: #2e3436; fill-opacity: 1.00; stroke: none;">2000</text></g><g id="ezcGraphTextBox_52"><path d=" M 65.4200,233.0000 L 65.4200,210.5000 L 119.0000,210.5000 L 119.0000,233.0000 L 65.4200,233.0000 z " style="fill: #ffffff; fill-opacity: 0.00; stroke: none;" id="ezcGraphPolygon_94"/><text id="ezcGraphTextBox_52_text" x="65.9200" text-length="52.0800px" y="228.8500" style="font-size: 21px; font-family: 'sans-serif'; fill: #2e3436; fill-opacity: 1.00; stroke: none;">3000</text></g><g id="ezcGraphTextBox_61"><path d=" M 65.4200,176.0000 L 65.4200,153.5000 L 119.0000,153.5000 L 119.0000,176.0000 L 65.4200,176.0000 z " style="fill: #ffffff; fill-opacity: 0.00; stroke: none;" id="ezcGraphPolygon_95"/><text id="ezcGraphTextBox_61_text" x="65.9200" text-length="52.0800px" y="171.8500" style="font-size: 21px; font-family: 'sans-serif'; fill: #2e3436; fill-opacity: 1.00; stroke: none;">4000</text></g><g id="ezcGraphTextBox_70"><path d=" M 65.4200,144.0000 L 65.4200,121.5000 L 119.0000,121.5000 L 119.0000,144.0000 L 65.4200,144.0000 z " style="fill: #ffffff; fill-opacity: 0.00; stroke: none;" id="ezcGraphPolygon_96"/><text id="ezcGraphTextBox_70_text" x="65.9200" text-length="52.0800px" y="139.8500" style="font-size: 21px; font-family: 'sans-serif'; fill: #2e3436; fill-opacity: 1.00; stroke: none;">5000</text></g></g></svg>
