<?xml version="1.0"?>
<svg xmlns="http://www.w3.org/2000/svg" width="550" height="400" version="1.0" id="ezcGraph"><defs><linearGradient id="Definition_LinearGradient_145_203_393_203_ffffffbf_0000007f"><stop offset="0" style="stop-color: #ffffff; stop-opacity: 0.25;"/><stop offset="1" style="stop-color: #000000; stop-opacity: 0.50;"/></linearGradient><linearGradient xmlns:xlink="http://www.w3.org/1999/xlink" id="LinearGradient_145_203_393_203_ffffffbf_0000007f" x1="145.8041" y1="203.6370" x2="393.3041" y2="203.6370" gradientUnits="userSpaceOnUse" xlink:href="#Definition_LinearGradient_145_203_393_203_ffffffbf_0000007f"/><linearGradient id="Definition_LinearGradient_151_215_398_215_ffffffbf_0000007f"><stop offset="0" style="stop-color: #ffffff; stop-opacity: 0.25;"/><stop offset="1" style="stop-color: #000000; stop-opacity: 0.50;"/></linearGradient><linearGradient xmlns:xlink="http://www.w3.org/1999/xlink" id="LinearGradient_151_215_398_215_ffffffbf_0000007f" x1="151.2500" y1="215.0000" x2="398.7500" y2="215.0000" gradientUnits="userSpaceOnUse" xlink:href="#Definition_LinearGradient_151_215_398_215_ffffffbf_0000007f"/><linearGradient id="Definition_LinearGradient_275_215_151_108_ffffffff_ffffff4c"><stop offset="0" style="stop-color: #ffffff; stop-opacity: 0.00;"/><stop offset="1" style="stop-color: #ffffff; stop-opacity: 0.70;"/></linearGradient><linearGradient xmlns:xlink="http://www.w3.org/1999/xlink" id="LinearGradient_275_215_151_108_ffffffff_ffffff4c" x1="275.0000" y1="215.0000" x2="151.2500" y2="108.6250" gradientUnits="userSpaceOnUse" xlink:href="#Definition_LinearGradient_275_215_151_108_ffffffff_ffffff4c"/><linearGradient id="Definition_RadialGradient_187_290_247_212_0.00_ffffff4c_ffffffcc"><stop offset="0" style="stop-color: #ffffff; stop-opacity: 0.70;"/><stop offset="1" style="stop-color: #ffffff; stop-opacity: 0.20;"/></linearGradient><radialGradient xmlns:xlink="http://www.w3.org/1999/xlink" id="RadialGradient_187_290_247_212_0.00_ffffff4c_ffffffcc" cx="187.4955" cy="290.2185" fx="187.4955" fy="290.2185" r="247.5" gradientUnits="userSpaceOnUse" xlink:href="#Definition_RadialGradient_187_290_247_212_0.00_ffffff4c_ffffffcc"/><linearGradient id="Definition_LinearGradient_269_203_145_97_ffffffff_ffffff4c"><stop offset="0" style="stop-color: #ffffff; stop-opacity: 0.00;"/><stop offset="1" style="stop-color: #ffffff; stop-opacity: 0.70;"/></linearGradient><linearGradient xmlns:xlink="http://www.w3.org/1999/xlink" id="LinearGradient_269_203_145_97_ffffffff_ffffff4c" x1="269.5541" y1="203.6370" x2="145.8041" y2="97.2620" gradientUnits="userSpaceOnUse" xlink:href="#Definition_LinearGradient_269_203_145_97_ffffffff_ffffff4c"/><linearGradient id="Definition_RadialGradient_182_278_247_212_0.00_ffffff4c_ffffffcc"><stop offset="0" style="stop-color: #ffffff; stop-opacity: 0.70;"/><stop offset="1" style="stop-color: #ffffff; stop-opacity: 0.20;"/></linearGradient><radialGradient xmlns:xlink="http://www.w3.org/1999/xlink" id="RadialGradient_182_278_247_212_0.00_ffffff4c_ffffffcc" cx="182.0497" cy="278.8555" fx="182.0497" fy="278.8555" r="247.5" gradientUnits="userSpaceOnUse" xlink:href="#Definition_RadialGradient_182_278_247_212_0.00_ffffff4c_ffffffcc"/></defs><g id="ezcGraphChart" color-rendering="optimizeQuality" shape-rendering="geometricPrecision" text-rendering="optimizeLegibility"><path d=" M 0.0000,400.0000 L 0.0000,0.0000 L 550.0000,0.0000 L 550.0000,400.0000 L 0.0000,400.0000 z " style="fill: #eeeeec; fill-opacity: 1.00; stroke: none;" id="ezcGraphPolygon_1"/><path d=" M 0.0000,40.0000 L 0.0000,0.0000 L 550.0000,0.0000 L 550.0000,40.0000 L 0.0000,40.0000 z " style="fill: #000000; fill-opacity: 0.00; stroke: none;" id="ezcGraphPolygon_2"/><path d="M 275.00,225.00 L 333.45,324.24 A 128.75,111.38 0 0,1 318.33,329.88 z" style="fill: #000000; fill-opacity: 0.06; stroke: none;" id="ezcGraphCircleSector_4"/><path d="M 275.00,225.00 L 334.97,322.46 A 127.75,110.38 0 0,1 315.88,329.57 z" style="fill: #000000; fill-opacity: 0.06; stroke: none;" id="ezcGraphCircleSector_5"/><path d="M 275.00,225.00 L 336.45,320.66 A 126.75,109.38 0 0,1 313.46,329.22 z" style="fill: #000000; fill-opacity: 0.06; stroke: none;" id="ezcGraphCircleSector_6"/><path d="M 275.00,225.00 L 337.88,318.86 A 125.75,108.38 0 0,1 311.06,328.82 z" style="fill: #000000; fill-opacity: 0.06; stroke: none;" id="ezcGraphCircleSector_7"/><path d="M 275.00,225.00 L 339.25,317.04 A 124.75,107.38 0 0,1 308.68,328.39 z" style="fill: #000000; fill-opacity: 0.06; stroke: none;" id="ezcGraphCircleSector_8"/><path d="M 269.55,213.64 L 312.88,318.52 A 128.75,111.38 0 1,1 328.01,312.87 z" style="fill: #000000; fill-opacity: 0.06; stroke: none;" id="ezcGraphCircleSector_9"/><path d="M 269.55,213.64 L 314.64,316.91 A 127.75,110.38 0 1,1 325.56,312.84 z" style="fill: #000000; fill-opacity: 0.06; stroke: none;" id="ezcGraphCircleSector_10"/><path d="M 269.55,213.64 L 316.35,315.29 A 126.75,109.38 0 1,1 323.12,312.76 z" style="fill: #000000; fill-opacity: 0.06; stroke: none;" id="ezcGraphCircleSector_11"/><path d="M 269.55,213.64 L 318.01,313.64 A 125.75,108.38 0 1,1 320.70,312.64 z" style="fill: #000000; fill-opacity: 0.06; stroke: none;" id="ezcGraphCircleSector_12"/><ellipse cx="269.5541" cy="213.6370" rx="124.7500" ry="107.3750" style="fill: #000000; fill-opacity: 0.06; stroke: none;" id="ezcGraphCircle_13"/><path d="M 145.80,213.64 A 123.75,106.38 0 0,0 311.20,313.81 L 311.20,303.81 A 123.75,106.375000 0 0,1 145.80,203.64 z" style="fill: #4e9a06; fill-opacity: 1.00; stroke: none;" id="ezcGraphCircularArc_14"/><path d="M 145.80,213.64 A 123.75,106.38 0 0,0 311.20,313.81 L 311.20,303.81 A 123.75,106.375000 0 0,1 145.80,203.64 z" style="fill: url(#LinearGradient_145_203_393_203_ffffffbf_0000007f); stroke: none;" id="ezcGraphCircularArc_15"/><path d="M 393.30,213.64 A 123.75,106.38 0 0,0 145.80,213.64 L 145.80,203.64 A 123.75,106.375000 0 0,1 393.30,203.64 z" style="fill: #4e9a06; fill-opacity: 1.00; stroke: none;" id="ezcGraphCircularArc_16"/><path d="M 393.30,213.64 A 123.75,106.38 0 0,0 145.80,213.64 L 145.80,203.64 A 123.75,106.375000 0 0,1 393.30,203.64 z" style="fill: url(#LinearGradient_145_203_393_203_ffffffbf_0000007f); stroke: none;" id="ezcGraphCircularArc_17"/><path d="M 325.74,308.42 A 123.75,106.38 0 0,0 393.30,213.64 L 393.30,203.64 A 123.75,106.375000 0 0,1 325.74,298.42 z" style="fill: #4e9a06; fill-opacity: 1.00; stroke: none;" id="ezcGraphCircularArc_18"/><path d="M 325.74,308.42 A 123.75,106.38 0 0,0 393.30,213.64 L 393.30,203.64 A 123.75,106.375000 0 0,1 325.74,298.42 z" style="fill: url(#LinearGradient_145_203_393_203_ffffffbf_0000007f); stroke: none;" id="ezcGraphCircularArc_19"/><path d=" M 325.7355,298.4178 L 269.5541,203.6370 L 269.5541,213.6370 L 325.7355,308.4178 L 325.7355,298.4178 z " style="fill: #4e9a06; fill-opacity: 1.00; stroke: none;" id="ezcGraphPolygon_20"/><path d=" M 270.0541,205.4611 L 270.0541,213.4999 L 325.2355,306.5937 L 325.2355,298.5549 L 270.0541,205.4611 z " style="fill: none; stroke: #274d03; stroke-width: 1; stroke-opacity: 1.00; stroke-linecap: round; stroke-linejoin: round;" id="ezcGraphPolygon_21"/><path d=" M 311.1976,303.8081 L 269.5541,203.6370 L 269.5541,213.6370 L 311.1976,313.8081 L 311.1976,303.8081 z " style="fill: #4e9a06; fill-opacity: 1.00; stroke: none;" id="ezcGraphPolygon_22"/><path d=" M 270.0541,206.1422 L 270.0541,213.5372 L 310.6976,311.3028 L 310.6976,303.9079 L 270.0541,206.1422 z " style="fill: none; stroke: #274d03; stroke-width: 1; stroke-opacity: 1.00; stroke-linecap: round; stroke-linejoin: round;" id="ezcGraphPolygon_23"/><path d=" M 331.1813,309.7808 L 275.0000,215.0000 L 275.0000,225.0000 L 331.1813,319.7808 L 331.1813,309.7808 z " style="fill: #3465a4; fill-opacity: 1.00; stroke: none;" id="ezcGraphPolygon_24"/><path d=" M 275.5000,216.8241 L 275.5000,224.8629 L 330.6813,317.9567 L 330.6813,309.9179 L 275.5000,216.8241 z " style="fill: none; stroke: #1a3352; stroke-width: 1; stroke-opacity: 1.00; stroke-linecap: round; stroke-linejoin: round;" id="ezcGraphPolygon_25"/><path d=" M 316.6435,315.1711 L 275.0000,215.0000 L 275.0000,225.0000 L 316.6435,325.1711 L 316.6435,315.1711 z " style="fill: #3465a4; fill-opacity: 1.00; stroke: none;" id="ezcGraphPolygon_26"/><path d=" M 275.5000,217.5052 L 275.5000,224.9002 L 316.1435,322.6658 L 316.1435,315.2709 L 275.5000,217.5052 z " style="fill: none; stroke: #1a3352; stroke-width: 1; stroke-opacity: 1.00; stroke-linecap: round; stroke-linejoin: round;" id="ezcGraphPolygon_27"/><path d="M 316.64,325.17 A 123.75,106.38 0 0,0 331.18,319.78 L 331.18,309.78 A 123.75,106.375000 0 0,1 316.64,315.17 z" style="fill: #3465a4; fill-opacity: 1.00; stroke: none;" id="ezcGraphCircularArc_28"/><path d="M 316.64,325.17 A 123.75,106.38 0 0,0 331.18,319.78 L 331.18,309.78 A 123.75,106.375000 0 0,1 316.64,315.17 z" style="fill: url(#LinearGradient_151_215_398_215_ffffffbf_0000007f); stroke: none;" id="ezcGraphCircularArc_29"/><path d="M 275.00,215.00 L 331.18,309.78 A 123.75,106.38 0 0,1 316.64,315.17 z" style="fill: #3465a4; fill-opacity: 1.00; stroke: none;" id="ezcGraphCircleSector_30"/><path d="M 275.00,215.00 L 331.18,309.78 A 123.75,106.38 0 0,1 316.64,315.17 z" style="fill: url(#LinearGradient_275_215_151_108_ffffffff_ffffff4c); stroke: none;" id="ezcGraphCircleSector_31"/><path d="M 278.55,221.96 L 330.47,309.55 A 123.25,105.88 0 0,1 316.93,314.56 z" style="fill: none; stroke: #1a3352; stroke-width: 1; stroke-opacity: 1.00; stroke-linecap: round; stroke-linejoin: round;" id="ezcGraphCircleSector_32"/><path d="M 331.18,309.78  A 123.75,106.38 0 0,1 316.64,315.17" style="fill: none; stroke: url(#RadialGradient_187_290_247_212_0.00_ffffff4c_ffffffcc);" id="ezcGraphCircularArc_33"/><path d="M 269.55,203.64 L 311.20,303.81 A 123.75,106.38 0 1,1 325.74,298.42 z" style="fill: #4e9a06; fill-opacity: 1.00; stroke: none;" id="ezcGraphCircleSector_34"/><path d="M 269.55,203.64 L 311.20,303.81 A 123.75,106.38 0 1,1 325.74,298.42 z" style="fill: url(#LinearGradient_269_203_145_97_ffffffff_ffffff4c); stroke: none;" id="ezcGraphCircleSector_35"/><path d="M 266.10,196.63 L 310.53,303.49 A 123.25,105.88 0 1,1 325.94,297.79 z" style="fill: none; stroke: #274d03; stroke-width: 1; stroke-opacity: 1.00; stroke-linecap: round; stroke-linejoin: round;" id="ezcGraphCircleSector_36"/><path d="M 311.20,303.81  A 123.75,106.38 0 0,1 145.80,203.64" style="fill: none; stroke: url(#RadialGradient_182_278_247_212_0.00_ffffff4c_ffffffcc);" id="ezcGraphCircularArc_37"/><path d="M 145.80,203.64  A 123.75,106.38 0 0,1 393.30,203.64" style="fill: none; stroke: url(#RadialGradient_182_278_247_212_0.00_ffffff4c_ffffffcc);" id="ezcGraphCircularArc_38"/><path d="M 393.30,203.64  A 123.75,106.38 0 0,1 325.74,298.42" style="fill: none; stroke: url(#RadialGradient_182_278_247_212_0.00_ffffff4c_ffffffcc);" id="ezcGraphCircularArc_39"/><path d=" M 236.8789,140.4173 L 224.2088,90.0000" style="fill: none; stroke: #555753; stroke-width: 1; stroke-opacity: 0.47; stroke-linecap: round; stroke-linejoin: round;" id="ezcGraphLine_40"/><ellipse cx="236.8789" cy="140.4173" rx="3.0000" ry="3.0000" style="fill: #555753; fill-opacity: 0.47; stroke: none;" id="ezcGraphCircle_41"/><ellipse cx="224.2088" cy="90.0000" rx="3.0000" ry="3.0000" style="fill: #555753; fill-opacity: 0.47; stroke: none;" id="ezcGraphCircle_42"/><path d=" M 307.6752,278.2197 L 366.1014,328.0000" style="fill: none; stroke: #555753; stroke-width: 1; stroke-opacity: 0.47; stroke-linecap: round; stroke-linejoin: round;" id="ezcGraphLine_44"/><ellipse cx="307.6752" cy="278.2197" rx="3.0000" ry="3.0000" style="fill: #555753; fill-opacity: 0.47; stroke: none;" id="ezcGraphCircle_45"/><ellipse cx="366.1014" cy="328.0000" rx="3.0000" ry="3.0000" style="fill: #555753; fill-opacity: 0.47; stroke: none;" id="ezcGraphCircle_46"/><g id="ezcGraphTextBox_3"><path d=" M 103.3100,40.0000 L 103.3100,0.5000 L 447.1900,0.5000 L 447.1900,40.0000 L 103.3100,40.0000 z " style="fill: #ffffff; fill-opacity: 0.00; stroke: none;" id="ezcGraphPolygon_48"/><text id="ezcGraphTextBox_3_text" x="103.8100" text-length="342.3800px" y="33.3000" style="font-size: 38px; font-family: 'sans-serif'; fill: #2e3436; fill-opacity: 1.00; stroke: none;">Einnahmen = 51.04</text></g><g id="ezcGraphTextBox_43"><path d=" M 1.4688,99.5000 L 1.4688,81.0000 L 219.2088,81.0000 L 219.2088,99.5000 L 1.4688,99.5000 z " style="fill: #ffffff; fill-opacity: 0.00; stroke: none;" id="ezcGraphPolygon_49"/><text id="ezcGraphTextBox_43_text" x="1.9688" text-length="216.2400px" y="95.9500" style="font-size: 17px; font-family: 'sans-serif'; fill: #2e3436; fill-opacity: 1.00; stroke: none;">Ueberweisung: 50 (98.0%)</text></g><g id="ezcGraphTextBox_47"><path d=" M 371.6014,346.0500 L 371.6014,310.4500 L 526.2714,310.4500 L 526.2714,346.0500 L 371.6014,346.0500 z " style="fill: #ffffff; fill-opacity: 0.00; stroke: none;" id="ezcGraphPolygon_50"/><text id="ezcGraphTextBox_47_text" x="372.1014" text-length="153.1700px" y="325.4000" style="font-size: 17px; font-family: 'sans-serif'; fill: #2e3436; fill-opacity: 1.00; stroke: none;">Kontoabschluss: 1</text><text id="ezcGraphTextBox_47_text" x="372.1014" text-length="54.0600px" y="344.1000" style="font-size: 17px; font-family: 'sans-serif'; fill: #2e3436; fill-opacity: 1.00; stroke: none;">(2.0%)</text></g></g></svg>
