<?xml version="1.0"?>
<svg xmlns="http://www.w3.org/2000/svg" width="550" height="400" version="1.0" id="ezcGraph"><defs><linearGradient id="Definition_LinearGradient_145_203_392_203_ffffffbf_0000007f"><stop offset="0" style="stop-color: #ffffff; stop-opacity: 0.25;"/><stop offset="1" style="stop-color: #000000; stop-opacity: 0.50;"/></linearGradient><linearGradient xmlns:xlink="http://www.w3.org/1999/xlink" id="LinearGradient_145_203_392_203_ffffffbf_0000007f" x1="145.0076" y1="203.9738" x2="392.5076" y2="203.9738" gradientUnits="userSpaceOnUse" xlink:href="#Definition_LinearGradient_145_203_392_203_ffffffbf_0000007f"/><linearGradient id="Definition_LinearGradient_268_203_145_97_ffffffff_ffffff4c"><stop offset="0" style="stop-color: #ffffff; stop-opacity: 0.00;"/><stop offset="1" style="stop-color: #ffffff; stop-opacity: 0.70;"/></linearGradient><linearGradient xmlns:xlink="http://www.w3.org/1999/xlink" id="LinearGradient_268_203_145_97_ffffffff_ffffff4c" x1="268.7576" y1="203.9738" x2="145.0076" y2="97.5988" gradientUnits="userSpaceOnUse" xlink:href="#Definition_LinearGradient_268_203_145_97_ffffffff_ffffff4c"/><linearGradient id="Definition_RadialGradient_181_279_247_212_0.00_ffffff4c_ffffffcc"><stop offset="0" style="stop-color: #ffffff; stop-opacity: 0.70;"/><stop offset="1" style="stop-color: #ffffff; stop-opacity: 0.20;"/></linearGradient><radialGradient xmlns:xlink="http://www.w3.org/1999/xlink" id="RadialGradient_181_279_247_212_0.00_ffffff4c_ffffffcc" cx="181.2532" cy="279.1923" fx="181.2532" fy="279.1923" r="247.5" gradientUnits="userSpaceOnUse" xlink:href="#Definition_RadialGradient_181_279_247_212_0.00_ffffff4c_ffffffcc"/></defs><g id="ezcGraphChart" color-rendering="optimizeQuality" shape-rendering="geometricPrecision" text-rendering="optimizeLegibility"><path d=" M 0.0000,400.0000 L 0.0000,0.0000 L 550.0000,0.0000 L 550.0000,400.0000 L 0.0000,400.0000 z " style="fill: #eeeeec; fill-opacity: 1.00; stroke: none;" id="ezcGraphPolygon_1"/><path d=" M 0.0000,40.0000 L 0.0000,0.0000 L 550.0000,0.0000 L 550.0000,40.0000 L 0.0000,40.0000 z " style="fill: #000000; fill-opacity: 0.00; stroke: none;" id="ezcGraphPolygon_2"/><ellipse cx="268.7576" cy="213.9738" rx="128.7500" ry="111.3750" style="fill: #000000; fill-opacity: 0.06; stroke: none;" id="ezcGraphCircle_4"/><ellipse cx="268.7576" cy="213.9738" rx="127.7500" ry="110.3750" style="fill: #000000; fill-opacity: 0.06; stroke: none;" id="ezcGraphCircle_5"/><ellipse cx="268.7576" cy="213.9738" rx="126.7500" ry="109.3750" style="fill: #000000; fill-opacity: 0.06; stroke: none;" id="ezcGraphCircle_6"/><ellipse cx="268.7576" cy="213.9738" rx="125.7500" ry="108.3750" style="fill: #000000; fill-opacity: 0.06; stroke: none;" id="ezcGraphCircle_7"/><ellipse cx="268.7576" cy="213.9738" rx="124.7500" ry="107.3750" style="fill: #000000; fill-opacity: 0.06; stroke: none;" id="ezcGraphCircle_8"/><path d="M 145.01,213.97 A 123.75,106.38 0 0,0 324.94,308.75 L 324.94,298.75 A 123.75,106.375000 0 0,1 145.01,203.97 z" style="fill: #3465a4; fill-opacity: 1.00; stroke: none;" id="ezcGraphCircularArc_9"/><path d="M 145.01,213.97 A 123.75,106.38 0 0,0 324.94,308.75 L 324.94,298.75 A 123.75,106.375000 0 0,1 145.01,203.97 z" style="fill: url(#LinearGradient_145_203_392_203_ffffffbf_0000007f); stroke: none;" id="ezcGraphCircularArc_10"/><path d="M 392.51,213.97 A 123.75,106.38 0 0,0 145.01,213.97 L 145.01,203.97 A 123.75,106.375000 0 0,1 392.51,203.97 z" style="fill: #3465a4; fill-opacity: 1.00; stroke: none;" id="ezcGraphCircularArc_11"/><path d="M 392.51,213.97 A 123.75,106.38 0 0,0 145.01,213.97 L 145.01,203.97 A 123.75,106.375000 0 0,1 392.51,203.97 z" style="fill: url(#LinearGradient_145_203_392_203_ffffffbf_0000007f); stroke: none;" id="ezcGraphCircularArc_12"/><path d="M 324.94,308.75 A 123.75,106.38 0 0,0 392.51,213.97 L 392.51,203.97 A 123.75,106.375000 0 0,1 324.94,298.75 z" style="fill: #3465a4; fill-opacity: 1.00; stroke: none;" id="ezcGraphCircularArc_13"/><path d="M 324.94,308.75 A 123.75,106.38 0 0,0 392.51,213.97 L 392.51,203.97 A 123.75,106.375000 0 0,1 324.94,298.75 z" style="fill: url(#LinearGradient_145_203_392_203_ffffffbf_0000007f); stroke: none;" id="ezcGraphCircularArc_14"/><path d=" M 324.9390,298.7546 L 268.7576,203.9738 L 268.7576,213.9738 L 324.9390,308.7546 L 324.9390,298.7546 z " style="fill: #3465a4; fill-opacity: 1.00; stroke: none;" id="ezcGraphPolygon_15"/><path d=" M 269.2576,205.7979 L 269.2576,213.8367 L 324.4390,306.9305 L 324.4390,298.8917 L 269.2576,205.7979 z " style="fill: none; stroke: #1a3352; stroke-width: 1; stroke-opacity: 1.00; stroke-linecap: round; stroke-linejoin: round;" id="ezcGraphPolygon_16"/><path d=" M 324.9390,298.7546 L 268.7576,203.9738 L 268.7576,213.9738 L 324.9390,308.7546 L 324.9390,298.7546 z " style="fill: #3465a4; fill-opacity: 1.00; stroke: none;" id="ezcGraphPolygon_17"/><path d=" M 269.2576,205.7979 L 269.2576,213.8367 L 324.4390,306.9305 L 324.4390,298.8917 L 269.2576,205.7979 z " style="fill: none; stroke: #1a3352; stroke-width: 1; stroke-opacity: 1.00; stroke-linecap: round; stroke-linejoin: round;" id="ezcGraphPolygon_18"/><ellipse cx="268.7576" cy="203.9738" rx="123.7500" ry="106.3750" style="fill: #3465a4; fill-opacity: 1.00; stroke: none;" id="ezcGraphCircle_19"/><ellipse cx="268.7576" cy="203.9738" rx="123.7500" ry="106.3750" style="fill: url(#LinearGradient_268_203_145_97_ffffffff_ffffff4c); stroke: none;" id="ezcGraphCircle_20"/><ellipse cx="268.7576" cy="203.9738" rx="123.2500" ry="105.8750" style="fill: none; stroke: #1a3352; stroke-width: 1; stroke-opacity: 1.00; stroke-linecap: round; stroke-linejoin: round;" id="ezcGraphCircle_21"/><path d="M 324.94,298.75  A 123.75,106.38 0 0,1 145.01,203.97" style="fill: none; stroke: url(#RadialGradient_181_279_247_212_0.00_ffffff4c_ffffffcc);" id="ezcGraphCircularArc_22"/><path d="M 145.01,203.97  A 123.75,106.38 0 0,1 392.51,203.97" style="fill: none; stroke: url(#RadialGradient_181_279_247_212_0.00_ffffff4c_ffffffcc);" id="ezcGraphCircularArc_23"/><path d="M 392.51,203.97  A 123.75,106.38 0 0,1 324.94,298.75" style="fill: none; stroke: url(#RadialGradient_181_279_247_212_0.00_ffffff4c_ffffffcc);" id="ezcGraphCircularArc_24"/><path d=" M 231.3034,142.6280 L 216.3004,93.0000" style="fill: none; stroke: #555753; stroke-width: 1; stroke-opacity: 0.47; stroke-linecap: round; stroke-linejoin: round;" id="ezcGraphLine_25"/><ellipse cx="231.3034" cy="142.6280" rx="3.0000" ry="3.0000" style="fill: #555753; fill-opacity: 0.47; stroke: none;" id="ezcGraphCircle_26"/><ellipse cx="216.3004" cy="93.0000" rx="3.0000" ry="3.0000" style="fill: #555753; fill-opacity: 0.47; stroke: none;" id="ezcGraphCircle_27"/><g id="ezcGraphTextBox_3"><path d=" M 123.4500,40.0000 L 123.4500,0.5000 L 427.0500,0.5000 L 427.0500,40.0000 L 123.4500,40.0000 z " style="fill: #ffffff; fill-opacity: 0.00; stroke: none;" id="ezcGraphPolygon_29"/><text id="ezcGraphTextBox_3_text" x="123.9500" text-length="302.1000px" y="33.3000" style="font-size: 38px; font-family: 'sans-serif'; fill: #2e3436; fill-opacity: 1.00; stroke: none;">Einnahmen = 300</text></g><g id="ezcGraphTextBox_28"><path d=" M 11.5804,111.0500 L 11.5804,75.4500 L 211.3004,75.4500 L 211.3004,111.0500 L 11.5804,111.0500 z " style="fill: #ffffff; fill-opacity: 0.00; stroke: none;" id="ezcGraphPolygon_30"/><text id="ezcGraphTextBox_28_text" x="12.0804" text-length="198.2200px" y="90.4000" style="font-size: 17px; font-family: 'sans-serif'; fill: #2e3436; fill-opacity: 1.00; stroke: none;">Projektabwicklung: 300</text><text id="ezcGraphTextBox_28_text" x="138.2204" text-length="72.0800px" y="109.1000" style="font-size: 17px; font-family: 'sans-serif'; fill: #2e3436; fill-opacity: 1.00; stroke: none;">(100.0%)</text></g></g></svg>
