<?xml version="1.0"?>
<svg xmlns="http://www.w3.org/2000/svg" width="550" height="400" version="1.0" id="ezcGraph"><defs><linearGradient id="Definition_LinearGradient_151_202_399_202_ffffffbf_0000007f"><stop offset="0" style="stop-color: #ffffff; stop-opacity: 0.25;"/><stop offset="1" style="stop-color: #000000; stop-opacity: 0.50;"/></linearGradient><linearGradient xmlns:xlink="http://www.w3.org/1999/xlink" id="LinearGradient_151_202_399_202_ffffffbf_0000007f" x1="151.9250" y1="202.6399" x2="399.4250" y2="202.6399" gradientUnits="userSpaceOnUse" xlink:href="#Definition_LinearGradient_151_202_399_202_ffffffbf_0000007f"/><linearGradient id="Definition_LinearGradient_151_215_398_215_ffffffbf_0000007f"><stop offset="0" style="stop-color: #ffffff; stop-opacity: 0.25;"/><stop offset="1" style="stop-color: #000000; stop-opacity: 0.50;"/></linearGradient><linearGradient xmlns:xlink="http://www.w3.org/1999/xlink" id="LinearGradient_151_215_398_215_ffffffbf_0000007f" x1="151.2500" y1="215.0000" x2="398.7500" y2="215.0000" gradientUnits="userSpaceOnUse" xlink:href="#Definition_LinearGradient_151_215_398_215_ffffffbf_0000007f"/><linearGradient id="Definition_LinearGradient_275_215_151_108_ffffffff_ffffff4c"><stop offset="0" style="stop-color: #ffffff; stop-opacity: 0.00;"/><stop offset="1" style="stop-color: #ffffff; stop-opacity: 0.70;"/></linearGradient><linearGradient xmlns:xlink="http://www.w3.org/1999/xlink" id="LinearGradient_275_215_151_108_ffffffff_ffffff4c" x1="275.0000" y1="215.0000" x2="151.2500" y2="108.6250" gradientUnits="userSpaceOnUse" xlink:href="#Definition_LinearGradient_275_215_151_108_ffffffff_ffffff4c"/><linearGradient id="Definition_RadialGradient_187_290_247_212_0.00_ffffff4c_ffffffcc"><stop offset="0" style="stop-color: #ffffff; stop-opacity: 0.70;"/><stop offset="1" style="stop-color: #ffffff; stop-opacity: 0.20;"/></linearGradient><radialGradient xmlns:xlink="http://www.w3.org/1999/xlink" id="RadialGradient_187_290_247_212_0.00_ffffff4c_ffffffcc" cx="187.4955" cy="290.2185" fx="187.4955" fy="290.2185" r="247.5" gradientUnits="userSpaceOnUse" xlink:href="#Definition_RadialGradient_187_290_247_212_0.00_ffffff4c_ffffffcc"/><linearGradient id="Definition_LinearGradient_275_202_151_96_ffffffff_ffffff4c"><stop offset="0" style="stop-color: #ffffff; stop-opacity: 0.00;"/><stop offset="1" style="stop-color: #ffffff; stop-opacity: 0.70;"/></linearGradient><linearGradient xmlns:xlink="http://www.w3.org/1999/xlink" id="LinearGradient_275_202_151_96_ffffffff_ffffff4c" x1="275.6750" y1="202.6399" x2="151.9250" y2="96.2649" gradientUnits="userSpaceOnUse" xlink:href="#Definition_LinearGradient_275_202_151_96_ffffffff_ffffff4c"/><linearGradient id="Definition_RadialGradient_188_277_247_212_0.00_ffffff4c_ffffffcc"><stop offset="0" style="stop-color: #ffffff; stop-opacity: 0.70;"/><stop offset="1" style="stop-color: #ffffff; stop-opacity: 0.20;"/></linearGradient><radialGradient xmlns:xlink="http://www.w3.org/1999/xlink" id="RadialGradient_188_277_247_212_0.00_ffffff4c_ffffffcc" cx="188.1706" cy="277.8584" fx="188.1706" fy="277.8584" r="247.5" gradientUnits="userSpaceOnUse" xlink:href="#Definition_RadialGradient_188_277_247_212_0.00_ffffff4c_ffffffcc"/></defs><g id="ezcGraphChart" color-rendering="optimizeQuality" shape-rendering="geometricPrecision" text-rendering="optimizeLegibility"><path d=" M 0.0000,400.0000 L 0.0000,0.0000 L 550.0000,0.0000 L 550.0000,400.0000 L 0.0000,400.0000 z " style="fill: #eeeeec; fill-opacity: 1.00; stroke: none;" id="ezcGraphPolygon_1"/><path d=" M 0.0000,40.0000 L 0.0000,0.0000 L 550.0000,0.0000 L 550.0000,40.0000 L 0.0000,40.0000 z " style="fill: #000000; fill-opacity: 0.00; stroke: none;" id="ezcGraphPolygon_2"/><path d="M 275.00,225.00 L 333.45,324.24 A 128.75,111.38 0 0,1 205.16,318.57 z" style="fill: #000000; fill-opacity: 0.06; stroke: none;" id="ezcGraphCircleSector_4"/><path d="M 275.00,225.00 L 334.97,322.46 A 127.75,110.38 0 0,1 203.84,316.67 z" style="fill: #000000; fill-opacity: 0.06; stroke: none;" id="ezcGraphCircleSector_5"/><path d="M 275.00,225.00 L 336.45,320.66 A 126.75,109.38 0 0,1 202.57,314.76 z" style="fill: #000000; fill-opacity: 0.06; stroke: none;" id="ezcGraphCircleSector_6"/><path d="M 275.00,225.00 L 337.88,318.86 A 125.75,108.38 0 0,1 201.35,312.85 z" style="fill: #000000; fill-opacity: 0.06; stroke: none;" id="ezcGraphCircleSector_7"/><path d="M 275.00,225.00 L 339.25,317.04 A 124.75,107.38 0 0,1 200.19,310.92 z" style="fill: #000000; fill-opacity: 0.06; stroke: none;" id="ezcGraphCircleSector_8"/><path d="M 275.68,212.64 L 205.84,306.21 A 128.75,111.38 0 1,1 334.57,311.68 z" style="fill: #000000; fill-opacity: 0.06; stroke: none;" id="ezcGraphCircleSector_9"/><path d="M 275.68,212.64 L 208.26,306.40 A 127.75,110.38 0 1,1 332.12,311.66 z" style="fill: #000000; fill-opacity: 0.06; stroke: none;" id="ezcGraphCircleSector_10"/><path d="M 275.68,212.64 L 210.68,306.54 A 126.75,109.38 0 1,1 329.68,311.59 z" style="fill: #000000; fill-opacity: 0.06; stroke: none;" id="ezcGraphCircleSector_11"/><path d="M 275.68,212.64 L 213.09,306.64 A 125.75,108.38 0 1,1 327.26,311.47 z" style="fill: #000000; fill-opacity: 0.06; stroke: none;" id="ezcGraphCircleSector_12"/><path d="M 275.68,212.64 L 215.48,306.69 A 124.75,107.38 0 1,1 324.86,311.32 z" style="fill: #000000; fill-opacity: 0.06; stroke: none;" id="ezcGraphCircleSector_13"/><path d="M 275.00,225.00 L 333.89,324.04 A 128.75,111.38 0 0,1 333.45,324.24 z" style="fill: #000000; fill-opacity: 0.06; stroke: none;" id="ezcGraphCircleSector_14"/><path d="M 275.00,225.00 L 335.41,322.26 A 127.75,110.38 0 0,1 331.00,324.20 z" style="fill: #000000; fill-opacity: 0.06; stroke: none;" id="ezcGraphCircleSector_15"/><path d="M 275.00,225.00 L 336.88,320.46 A 126.75,109.38 0 0,1 328.57,324.13 z" style="fill: #000000; fill-opacity: 0.06; stroke: none;" id="ezcGraphCircleSector_16"/><path d="M 275.00,225.00 L 338.29,318.65 A 125.75,108.38 0 0,1 326.15,324.01 z" style="fill: #000000; fill-opacity: 0.06; stroke: none;" id="ezcGraphCircleSector_17"/><path d="M 275.00,225.00 L 339.66,316.82 A 124.75,107.38 0 0,1 323.74,323.84 z" style="fill: #000000; fill-opacity: 0.06; stroke: none;" id="ezcGraphCircleSector_18"/><path d="M 151.93,212.64 A 123.75,106.38 0 0,0 208.55,302.01 L 208.55,292.01 A 123.75,106.375000 0 0,1 151.93,202.64 z" style="fill: #cc0000; fill-opacity: 1.00; stroke: none;" id="ezcGraphCircularArc_19"/><path d="M 151.93,212.64 A 123.75,106.38 0 0,0 208.55,302.01 L 208.55,292.01 A 123.75,106.375000 0 0,1 151.93,202.64 z" style="fill: url(#LinearGradient_151_202_399_202_ffffffbf_0000007f); stroke: none;" id="ezcGraphCircularArc_20"/><path d="M 399.43,212.64 A 123.75,106.38 0 0,0 151.93,212.64 L 151.93,202.64 A 123.75,106.375000 0 0,1 399.43,202.64 z" style="fill: #cc0000; fill-opacity: 1.00; stroke: none;" id="ezcGraphCircularArc_21"/><path d="M 399.43,212.64 A 123.75,106.38 0 0,0 151.93,212.64 L 151.93,202.64 A 123.75,106.375000 0 0,1 399.43,202.64 z" style="fill: url(#LinearGradient_151_202_399_202_ffffffbf_0000007f); stroke: none;" id="ezcGraphCircularArc_22"/><path d="M 332.28,307.23 A 123.75,106.38 0 0,0 399.43,212.64 L 399.43,202.64 A 123.75,106.375000 0 0,1 332.28,297.23 z" style="fill: #cc0000; fill-opacity: 1.00; stroke: none;" id="ezcGraphCircularArc_23"/><path d="M 332.28,307.23 A 123.75,106.38 0 0,0 399.43,212.64 L 399.43,202.64 A 123.75,106.375000 0 0,1 332.28,297.23 z" style="fill: url(#LinearGradient_151_202_399_202_ffffffbf_0000007f); stroke: none;" id="ezcGraphCircularArc_24"/><path d=" M 208.5503,292.0062 L 275.6750,202.6399 L 275.6750,212.6399 L 208.5503,302.0062 L 208.5503,292.0062 z " style="fill: #cc0000; fill-opacity: 1.00; stroke: none;" id="ezcGraphPolygon_25"/><path d=" M 275.1750,204.1381 L 275.1750,212.4731 L 209.0503,300.5080 L 209.0503,292.1731 L 275.1750,204.1381 z " style="fill: none; stroke: #660000; stroke-width: 1; stroke-opacity: 1.00; stroke-linecap: round; stroke-linejoin: round;" id="ezcGraphPolygon_26"/><path d=" M 332.2807,297.2340 L 275.6750,202.6399 L 275.6750,212.6399 L 332.2807,307.2340 L 332.2807,297.2340 z " style="fill: #cc0000; fill-opacity: 1.00; stroke: none;" id="ezcGraphPolygon_27"/><path d=" M 276.1750,204.4492 L 276.1750,212.5017 L 331.7807,305.4247 L 331.7807,297.3722 L 276.1750,204.4492 z " style="fill: none; stroke: #660000; stroke-width: 1; stroke-opacity: 1.00; stroke-linecap: round; stroke-linejoin: round;" id="ezcGraphPolygon_28"/><path d=" M 207.8753,304.3663 L 275.0000,215.0000 L 275.0000,225.0000 L 207.8753,314.3663 L 207.8753,304.3663 z " style="fill: #4e9a06; fill-opacity: 1.00; stroke: none;" id="ezcGraphPolygon_29"/><path d=" M 274.5000,216.4982 L 274.5000,224.8331 L 208.3753,312.8681 L 208.3753,304.5332 L 274.5000,216.4982 z " style="fill: none; stroke: #274d03; stroke-width: 1; stroke-opacity: 1.00; stroke-linecap: round; stroke-linejoin: round;" id="ezcGraphPolygon_30"/><path d=" M 331.1813,309.7808 L 275.0000,215.0000 L 275.0000,225.0000 L 331.1813,319.7808 L 331.1813,309.7808 z " style="fill: #3465a4; fill-opacity: 1.00; stroke: none;" id="ezcGraphPolygon_31"/><path d=" M 275.5000,216.8241 L 275.5000,224.8629 L 330.6813,317.9567 L 330.6813,309.9179 L 275.5000,216.8241 z " style="fill: none; stroke: #1a3352; stroke-width: 1; stroke-opacity: 1.00; stroke-linecap: round; stroke-linejoin: round;" id="ezcGraphPolygon_32"/><path d=" M 331.6057,309.5941 L 275.0000,215.0000 L 275.0000,225.0000 L 331.6057,319.5941 L 331.6057,309.5941 z " style="fill: #edd400; fill-opacity: 1.00; stroke: none;" id="ezcGraphPolygon_33"/><path d=" M 275.5000,216.8093 L 275.5000,224.8618 L 331.1057,317.7848 L 331.1057,309.7323 L 275.5000,216.8093 z " style="fill: none; stroke: #776a00; stroke-width: 1; stroke-opacity: 1.00; stroke-linecap: round; stroke-linejoin: round;" id="ezcGraphPolygon_34"/><path d=" M 331.1813,309.7808 L 275.0000,215.0000 L 275.0000,225.0000 L 331.1813,319.7808 L 331.1813,309.7808 z " style="fill: #edd400; fill-opacity: 1.00; stroke: none;" id="ezcGraphPolygon_35"/><path d=" M 275.5000,216.8241 L 275.5000,224.8629 L 330.6813,317.9567 L 330.6813,309.9179 L 275.5000,216.8241 z " style="fill: none; stroke: #776a00; stroke-width: 1; stroke-opacity: 1.00; stroke-linecap: round; stroke-linejoin: round;" id="ezcGraphPolygon_36"/><path d=" M 229.0173,313.7588 L 275.0000,215.0000 L 275.0000,225.0000 L 229.0173,323.7588 L 229.0173,313.7588 z " style="fill: #3465a4; fill-opacity: 1.00; stroke: none;" id="ezcGraphPolygon_37"/><path d=" M 274.5000,217.2584 L 274.5000,224.8893 L 229.5173,321.5003 L 229.5173,313.8694 L 274.5000,217.2584 z " style="fill: none; stroke: #1a3352; stroke-width: 1; stroke-opacity: 1.00; stroke-linecap: round; stroke-linejoin: round;" id="ezcGraphPolygon_38"/><path d=" M 229.0173,313.7588 L 275.0000,215.0000 L 275.0000,225.0000 L 229.0173,323.7588 L 229.0173,313.7588 z " style="fill: #4e9a06; fill-opacity: 1.00; stroke: none;" id="ezcGraphPolygon_39"/><path d=" M 274.5000,217.2584 L 274.5000,224.8893 L 229.5173,321.5003 L 229.5173,313.8694 L 274.5000,217.2584 z " style="fill: none; stroke: #274d03; stroke-width: 1; stroke-opacity: 1.00; stroke-linecap: round; stroke-linejoin: round;" id="ezcGraphPolygon_40"/><path d="M 207.88,314.37 A 123.75,106.38 0 0,0 229.02,323.76 L 229.02,313.76 A 123.75,106.375000 0 0,1 207.88,304.37 z" style="fill: #4e9a06; fill-opacity: 1.00; stroke: none;" id="ezcGraphCircularArc_41"/><path d="M 207.88,314.37 A 123.75,106.38 0 0,0 229.02,323.76 L 229.02,313.76 A 123.75,106.375000 0 0,1 207.88,304.37 z" style="fill: url(#LinearGradient_151_215_398_215_ffffffbf_0000007f); stroke: none;" id="ezcGraphCircularArc_42"/><path d="M 331.18,319.78 A 123.75,106.38 0 0,0 331.61,319.59 L 331.61,309.59 A 123.75,106.375000 0 0,1 331.18,309.78 z" style="fill: #edd400; fill-opacity: 1.00; stroke: none;" id="ezcGraphCircularArc_43"/><path d="M 331.18,319.78 A 123.75,106.38 0 0,0 331.61,319.59 L 331.61,309.59 A 123.75,106.375000 0 0,1 331.18,309.78 z" style="fill: url(#LinearGradient_151_215_398_215_ffffffbf_0000007f); stroke: none;" id="ezcGraphCircularArc_44"/><path d="M 229.02,323.76 A 123.75,106.38 0 0,0 331.18,319.78 L 331.18,309.78 A 123.75,106.375000 0 0,1 229.02,313.76 z" style="fill: #3465a4; fill-opacity: 1.00; stroke: none;" id="ezcGraphCircularArc_45"/><path d="M 229.02,323.76 A 123.75,106.38 0 0,0 331.18,319.78 L 331.18,309.78 A 123.75,106.375000 0 0,1 229.02,313.76 z" style="fill: url(#LinearGradient_151_215_398_215_ffffffbf_0000007f); stroke: none;" id="ezcGraphCircularArc_46"/><path d="M 275.00,215.00 L 331.18,309.78 A 123.75,106.38 0 0,1 229.02,313.76 z" style="fill: #3465a4; fill-opacity: 1.00; stroke: none;" id="ezcGraphCircleSector_47"/><path d="M 275.00,215.00 L 331.18,309.78 A 123.75,106.38 0 0,1 229.02,313.76 z" style="fill: url(#LinearGradient_275_215_151_108_ffffffff_ffffff4c); stroke: none;" id="ezcGraphCircleSector_48"/><path d="M 275.13,216.20 L 330.47,309.55 A 123.25,105.88 0 0,1 229.70,313.47 z" style="fill: none; stroke: #1a3352; stroke-width: 1; stroke-opacity: 1.00; stroke-linecap: round; stroke-linejoin: round;" id="ezcGraphCircleSector_49"/><path d="M 331.18,309.78  A 123.75,106.38 0 0,1 229.02,313.76" style="fill: none; stroke: url(#RadialGradient_187_290_247_212_0.00_ffffff4c_ffffffcc);" id="ezcGraphCircularArc_50"/><path d="M 275.00,215.00 L 229.02,313.76 A 123.75,106.38 0 0,1 207.88,304.37 z" style="fill: #4e9a06; fill-opacity: 1.00; stroke: none;" id="ezcGraphCircleSector_51"/><path d="M 275.00,215.00 L 229.02,313.76 A 123.75,106.38 0 0,1 207.88,304.37 z" style="fill: url(#LinearGradient_275_215_151_108_ffffffff_ffffff4c); stroke: none;" id="ezcGraphCircleSector_52"/><path d="M 272.36,219.48 L 228.76,313.14 A 123.25,105.88 0 0,1 208.61,304.21 z" style="fill: none; stroke: #274d03; stroke-width: 1; stroke-opacity: 1.00; stroke-linecap: round; stroke-linejoin: round;" id="ezcGraphCircleSector_53"/><path d="M 229.02,313.76  A 123.75,106.38 0 0,1 207.88,304.37" style="fill: none; stroke: url(#RadialGradient_187_290_247_212_0.00_ffffff4c_ffffffcc);" id="ezcGraphCircularArc_54"/><path d="M 275.68,202.64 L 208.55,292.01 A 123.75,106.38 0 1,1 332.28,297.23 z" style="fill: #cc0000; fill-opacity: 1.00; stroke: none;" id="ezcGraphCircleSector_55"/><path d="M 275.68,202.64 L 208.55,292.01 A 123.75,106.38 0 1,1 332.28,297.23 z" style="fill: url(#LinearGradient_275_202_151_96_ffffffff_ffffff4c); stroke: none;" id="ezcGraphCircleSector_56"/><path d="M 275.79,201.65 L 208.41,291.36 A 123.25,105.88 0 1,1 332.48,296.60 z" style="fill: none; stroke: #660000; stroke-width: 1; stroke-opacity: 1.00; stroke-linecap: round; stroke-linejoin: round;" id="ezcGraphCircleSector_57"/><path d="M 208.55,292.01  A 123.75,106.38 0 0,1 151.93,202.64" style="fill: none; stroke: url(#RadialGradient_188_277_247_212_0.00_ffffff4c_ffffffcc);" id="ezcGraphCircularArc_58"/><path d="M 151.93,202.64  A 123.75,106.38 0 0,1 399.43,202.64" style="fill: none; stroke: url(#RadialGradient_188_277_247_212_0.00_ffffff4c_ffffffcc);" id="ezcGraphCircularArc_59"/><path d="M 399.43,202.64  A 123.75,106.38 0 0,1 332.28,297.23" style="fill: none; stroke: url(#RadialGradient_188_277_247_212_0.00_ffffff4c_ffffffcc);" id="ezcGraphCircularArc_60"/><path d="M 275.00,215.00 L 331.61,309.59 A 123.75,106.38 0 0,1 331.18,309.78 z" style="fill: #edd400; fill-opacity: 1.00; stroke: none;" id="ezcGraphCircleSector_61"/><path d="M 275.00,215.00 L 331.61,309.59 A 123.75,106.38 0 0,1 331.18,309.78 z" style="fill: url(#LinearGradient_275_215_151_108_ffffffff_ffffff4c); stroke: none;" id="ezcGraphCircleSector_62"/><path d="M 331.61,309.59  A 123.75,106.38 0 0,1 331.18,309.78" style="fill: none; stroke: url(#RadialGradient_187_290_247_212_0.00_ffffff4c_ffffffcc);" id="ezcGraphCircularArc_63"/><path d=" M 237.1220,276.1643 L 179.0542,324.0000" style="fill: none; stroke: #555753; stroke-width: 1; stroke-opacity: 0.47; stroke-linecap: round; stroke-linejoin: round;" id="ezcGraphLine_64"/><ellipse cx="237.1220" cy="276.1643" rx="3.0000" ry="3.0000" style="fill: #555753; fill-opacity: 0.47; stroke: none;" id="ezcGraphCircle_65"/><ellipse cx="179.0542" cy="324.0000" rx="3.0000" ry="3.0000" style="fill: #555753; fill-opacity: 0.47; stroke: none;" id="ezcGraphCircle_66"/><path d=" M 279.7252,133.8729 L 280.0000,79.0000" style="fill: none; stroke: #555753; stroke-width: 1; stroke-opacity: 0.47; stroke-linecap: round; stroke-linejoin: round;" id="ezcGraphLine_68"/><ellipse cx="279.7252" cy="133.8729" rx="3.0000" ry="3.0000" style="fill: #555753; fill-opacity: 0.47; stroke: none;" id="ezcGraphCircle_69"/><ellipse cx="280.0000" cy="79.0000" rx="3.0000" ry="3.0000" style="fill: #555753; fill-opacity: 0.47; stroke: none;" id="ezcGraphCircle_70"/><path d=" M 312.5957,276.2855 L 369.7764,325.0000" style="fill: none; stroke: #555753; stroke-width: 1; stroke-opacity: 0.47; stroke-linecap: round; stroke-linejoin: round;" id="ezcGraphLine_72"/><ellipse cx="312.5957" cy="276.2855" rx="3.0000" ry="3.0000" style="fill: #555753; fill-opacity: 0.47; stroke: none;" id="ezcGraphCircle_73"/><ellipse cx="369.7764" cy="325.0000" rx="3.0000" ry="3.0000" style="fill: #555753; fill-opacity: 0.47; stroke: none;" id="ezcGraphCircle_74"/><path d=" M 278.7331,283.7795 L 280.0000,361.0000" style="fill: none; stroke: #555753; stroke-width: 1; stroke-opacity: 0.47; stroke-linecap: round; stroke-linejoin: round;" id="ezcGraphLine_76"/><ellipse cx="278.7331" cy="283.7795" rx="3.0000" ry="3.0000" style="fill: #555753; fill-opacity: 0.47; stroke: none;" id="ezcGraphCircle_77"/><ellipse cx="280.0000" cy="361.0000" rx="3.0000" ry="3.0000" style="fill: #555753; fill-opacity: 0.47; stroke: none;" id="ezcGraphCircle_78"/><g id="ezcGraphTextBox_3"><path d=" M 73.1000,40.0000 L 73.1000,0.5000 L 477.4000,0.5000 L 477.4000,40.0000 L 73.1000,40.0000 z " style="fill: #ffffff; fill-opacity: 0.00; stroke: none;" id="ezcGraphPolygon_80"/><text id="ezcGraphTextBox_3_text" x="73.6000" text-length="402.8000px" y="33.3000" style="font-size: 38px; font-family: 'sans-serif'; fill: #2e3436; fill-opacity: 1.00; stroke: none;">Einnahmen = 17126.22</text></g><g id="ezcGraphTextBox_67"><path d=" M 28.3942,342.0500 L 28.3942,306.4500 L 174.0542,306.4500 L 174.0542,342.0500 L 28.3942,342.0500 z " style="fill: #ffffff; fill-opacity: 0.00; stroke: none;" id="ezcGraphPolygon_81"/><text id="ezcGraphTextBox_67_text" x="28.8942" text-length="144.1600px" y="321.4000" style="font-size: 17px; font-family: 'sans-serif'; fill: #2e3436; fill-opacity: 1.00; stroke: none;">Taschengeld: 525</text><text id="ezcGraphTextBox_67_text" x="118.9942" text-length="54.0600px" y="340.1000" style="font-size: 17px; font-family: 'sans-serif'; fill: #2e3436; fill-opacity: 1.00; stroke: none;">(3.1%)</text></g><g id="ezcGraphTextBox_71"><path d=" M 285.5000,97.0500 L 285.5000,61.4500 L 503.2400,61.4500 L 503.2400,97.0500 L 285.5000,97.0500 z " style="fill: #ffffff; fill-opacity: 0.00; stroke: none;" id="ezcGraphPolygon_82"/><text id="ezcGraphTextBox_71_text" x="286.0000" text-length="216.2400px" y="76.4000" style="font-size: 17px; font-family: 'sans-serif'; fill: #2e3436; fill-opacity: 1.00; stroke: none;">USA Investitionen: 14268</text><text id="ezcGraphTextBox_71_text" x="286.0000" text-length="63.0700px" y="95.1000" style="font-size: 17px; font-family: 'sans-serif'; fill: #2e3436; fill-opacity: 1.00; stroke: none;">(83.3%)</text></g><g id="ezcGraphTextBox_75"><path d=" M 375.2764,334.5000 L 375.2764,316.0000 L 529.9464,316.0000 L 529.9464,334.5000 L 375.2764,334.5000 z " style="fill: #ffffff; fill-opacity: 0.00; stroke: none;" id="ezcGraphPolygon_83"/><text id="ezcGraphTextBox_75_text" x="375.7764" text-length="153.1700px" y="330.9500" style="font-size: 17px; font-family: 'sans-serif'; fill: #2e3436; fill-opacity: 1.00; stroke: none;">&lt; 1.0%: 10 (0.1%)</text></g><g id="ezcGraphTextBox_79"><path d=" M 285.5000,370.5000 L 285.5000,352.0000 L 494.2300,352.0000 L 494.2300,370.5000 L 285.5000,370.5000 z " style="fill: #ffffff; fill-opacity: 0.00; stroke: none;" id="ezcGraphPolygon_84"/><text id="ezcGraphTextBox_79_text" x="286.0000" text-length="207.2300px" y="366.9500" style="font-size: 17px; font-family: 'sans-serif'; fill: #2e3436; fill-opacity: 1.00; stroke: none;">Sonstiges: 2322 (13.6%)</text></g></g></svg>
